STARTFONT 2.1
FONT -HP-Sung-Medium-R-Normal--24-240-75-75-C-240-CNS11643.1992-4
SIZE 24 75 75
FONTBOUNDINGBOX 24 24 0 -2

STARTPROPERTIES 23
FONTNAME_REGISTRY ""
FOUNDRY "HP"
FAMILY_NAME "Sung"
WEIGHT_NAME "Medium"
SLANT "R"
SETWIDTH_NAME "Normal"
ADD_STYLE_NAME ""
PIXEL_SIZE 24
POINT_SIZE 240
RESOLUTION_X 75
RESOLUTION_Y 75
SPACING "C"
AVERAGE_WIDTH 240
CHARSET_REGISTRY "CNS11643.1992"
CHARSET_ENCODING "4"
COPYRIGHT "Copyright (c) 1994 Hewlett-Packard Company."
_HP_ASXVERSION "@(#) ASX 3.00 $Revision: 13.9 $ sungX24n4"
WEIGHT 10
X_HEIGHT 9
QUAD_WIDTH 24
DEFAULT_CHAR 28253
FONT_DESCENT 2
FONT_ASCENT 22
ENDPROPERTIES

CHARS 7299

STARTCHAR cns4_2121
ENCODING 8481
SWIDTH 960 0
DWIDTH 24 0
BBX 24 24 0 -2
BITMAP
000000
000000
00003C
0403E0
07FE00
060000
060000
060000
060000
060000
060000
060000
060000
060000
060000
060000
060000
0C0000
0C0000
0C0000
180000
180000
300000
000000
ENDCHAR

STARTCHAR cns4_2122
ENCODING 8482
SWIDTH 960 0
DWIDTH 24 0
BBX 24 24 0 -2
BITMAP
000000
000000
000000
000000
000000
003000
00F800
03B000
0E3000
381800
001800
001800
000C00
000C00
000C00
000600
000600
000300
000380
0001C0
0000F0
000060
000000
000000
ENDCHAR

STARTCHAR cns4_2123
ENCODING 8483
SWIDTH 960 0
DWIDTH 24 0
BBX 24 24 0 -2
BITMAP
000000
000000
000000
000000
000000
000C00
1FFE00
000C00
000C00
000C00
000600
000600
000600
000300
000300
000180
000180
0000C0
0000E0
00007C
000030
000000
000000
000000
ENDCHAR

STARTCHAR cns4_2124
ENCODING 8484
SWIDTH 960 0
DWIDTH 24 0
BBX 24 24 0 -2
BITMAP
000000
000000
000000
038000
030000
030000
030000
030000
030000
030000
030000
030000
030000
030000
030000
030000
030020
030020
030020
030030
038070
01FFE0
000000
000000
ENDCHAR

STARTCHAR cns4_2125
ENCODING 8485
SWIDTH 960 0
DWIDTH 24 0
BBX 24 24 0 -2
BITMAP
000000
000000
001C00
001800
001800
003000
003000
003000
006000
006000
00C000
00C000
018000
018000
00C000
006000
003000
003000
001800
001800
000C00
000C00
000C00
000000
ENDCHAR

STARTCHAR cns4_2126
ENCODING 8486
SWIDTH 960 0
DWIDTH 24 0
BBX 24 24 0 -2
BITMAP
000000
000000
000000
000018
1FFFFC
00C000
00C000
00C000
00C000
018060
01FFF0
030060
000060
000060
000060
000060
0000C0
0000C0
000180
000380
003F00
000E00
000000
000000
ENDCHAR

STARTCHAR cns4_2127
ENCODING 8487
SWIDTH 960 0
DWIDTH 24 0
BBX 24 24 0 -2
BITMAP
000000
000000
0000E0
0000C0
00E0C0
00C0C0
00C0C0
00C0C0
00C0C0
00C0C0
00C0C0
00C7C0
00FCC0
03E0C0
0180C0
0000C0
0000C0
0000C0
0000C0
0000C0
0000C0
0000C0
000000
000000
ENDCHAR

STARTCHAR cns4_2128
ENCODING 8488
SWIDTH 960 0
DWIDTH 24 0
BBX 24 24 0 -2
BITMAP
000000
000000
000180
3FFFC0
000180
000180
000180
000180
00030C
0003FE
00030C
00060C
00000C
00000C
00000C
00000C
000018
000018
000018
000030
000FF0
0000E0
000000
000000
ENDCHAR

STARTCHAR cns4_2129
ENCODING 8489
SWIDTH 960 0
DWIDTH 24 0
BBX 24 24 0 -2
BITMAP
000000
000000
0080C0
00FFE0
00C0C0
00C0C0
00C0C0
00C0C0
00C0C0
00C0C0
00C0C0
00C0C0
00C0C0
0180C0
0180C0
0180C0
0300C0
0300C0
0600C0
0C00C0
1800E6
30007E
000000
000000
ENDCHAR

STARTCHAR cns4_212A
ENCODING 8490
SWIDTH 960 0
DWIDTH 24 0
BBX 24 24 0 -2
BITMAP
000000
000380
000300
00E300
00C300
00C300
00C300
00C300
00C300
00C300
00C300
00C300
00C300
00C300
00C300
00C300
00C300
00C300
000300
000300
000300
007F00
000E00
000000
ENDCHAR

STARTCHAR cns4_212B
ENCODING 8491
SWIDTH 960 0
DWIDTH 24 0
BBX 24 24 0 -2
BITMAP
000000
000000
040180
07FFC0
060180
060180
060180
060180
060180
060180
060180
060180
061F80
060700
060000
060000
060000
060020
060020
060030
070070
03FFE0
000000
000000
ENDCHAR

STARTCHAR cns4_212C
ENCODING 8492
SWIDTH 960 0
DWIDTH 24 0
BBX 24 24 0 -2
BITMAP
000000
000000
000000
006060
007070
006060
00C0C0
00C0C0
018180
018180
030300
060600
060600
030300
030300
018180
018180
00C0C0
00C0C0
006060
006060
000000
000000
000000
ENDCHAR

STARTCHAR cns4_212D
ENCODING 8493
SWIDTH 960 0
DWIDTH 24 0
BBX 24 24 0 -2
BITMAP
000000
000000
100018
1FFFFC
180018
180018
180018
180018
180018
180318
19FF98
180018
180018
180018
180018
180018
180018
180018
180018
180018
1801F8
180030
000000
000000
ENDCHAR

STARTCHAR cns4_212E
ENCODING 8494
SWIDTH 960 0
DWIDTH 24 0
BBX 24 24 0 -2
BITMAP
000000
000000
1C001C
180018
180018
180018
180018
180018
180018
180198
1BFFD8
180018
180018
180018
180018
180018
180018
180018
180018
180018
1FFFF8
180018
000000
000000
ENDCHAR

STARTCHAR cns4_212F
ENCODING 8495
SWIDTH 960 0
DWIDTH 24 0
BBX 24 24 0 -2
BITMAP
000000
000000
038000
030000
030000
030018
03FFFC
060018
060018
0C0018
0C0198
1BFFD8
300018
000018
000018
000018
000018
000030
000030
000070
000FE0
0001C0
000000
000000
ENDCHAR

STARTCHAR cns4_2130
ENCODING 8496
SWIDTH 960 0
DWIDTH 24 0
BBX 24 24 0 -2
BITMAP
000000
000000
0000C0
3FFFE0
0000C0
00E0C0
00C0C0
00C0C0
00C0C0
00C0C0
00CCC0
3FFEC0
00C0C0
00C0C4
00C0C4
00C0C4
00C0C6
00C0E6
00C07C
00C000
00C000
00C000
000000
000000
ENDCHAR

STARTCHAR cns4_2131
ENCODING 8497
SWIDTH 960 0
DWIDTH 24 0
BBX 24 24 0 -2
BITMAP
000000
000000
0200C0
03FFE0
0300C0
0300C0
0300C0
0330C0
0318C0
030CC0
030CC0
0300C0
0300C0
0300C0
0300C0
030FC0
030380
030000
030000
030000
030000
030000
000000
000000
ENDCHAR

STARTCHAR cns4_2132
ENCODING 8498
SWIDTH 960 0
DWIDTH 24 0
BBX 24 24 0 -2
BITMAP
000000
000000
000030
07FFF8
000070
0001C0
000700
001C00
001800
001800
001818
001FFC
001800
001800
001800
001800
001800
001800
001800
001800
01F800
003000
000000
000000
ENDCHAR

STARTCHAR cns4_2133
ENCODING 8499
SWIDTH 960 0
DWIDTH 24 0
BBX 24 24 0 -2
BITMAP
000000
000000
000030
0FFFF8
0000E0
000380
000E00
000C00
000C00
000C00
000C00
000C00
000C00
01FC00
3F0C00
180C00
000C00
000C00
000C00
000C00
000C00
01FC00
003800
000000
ENDCHAR

STARTCHAR cns4_2134
ENCODING 8500
SWIDTH 960 0
DWIDTH 24 0
BBX 24 24 0 -2
BITMAP
000000
001C00
001800
001800
001800
001800
00180C
3FFFFE
001800
001800
001E00
001C00
003C00
003C00
003C00
006C00
006C04
00CC04
00CC04
018C04
030C06
0E0E0E
3807FC
000000
ENDCHAR

STARTCHAR cns4_2135
ENCODING 8501
SWIDTH 960 0
DWIDTH 24 0
BBX 24 24 0 -2
BITMAP
000000
000000
001C00
001800
001800
0E1838
0C1830
0C1830
0C1830
0C1830
0C1830
0C1830
0C1830
0C1830
0FFFF0
0C3030
003000
003000
006000
006000
00C000
018000
030000
000000
ENDCHAR

STARTCHAR cns4_2136
ENCODING 8502
SWIDTH 960 0
DWIDTH 24 0
BBX 24 24 0 -2
BITMAP
000000
000000
001C00
001800
001800
005800
005E00
00DB00
00D980
019980
019800
001800
001800
001800
001800
001800
001800
001800
001800
001800
001800
001800
000000
000000
ENDCHAR

STARTCHAR cns4_2137
ENCODING 8503
SWIDTH 960 0
DWIDTH 24 0
BBX 24 24 0 -2
BITMAP
000000
000000
000E00
000C00
000C00
000C00
000C18
1FFFFC
000C00
000C00
000C38
000DE0
000F00
003C00
01EC00
0F0C00
060C00
000C00
000C00
000C00
000C00
00FC00
003800
000000
ENDCHAR

STARTCHAR cns4_2138
ENCODING 8504
SWIDTH 960 0
DWIDTH 24 0
BBX 24 24 0 -2
BITMAP
000000
000000
0031C0
001B00
000E00
000C00
001E00
003600
00E300
078300
000300
000F00
000F00
003B00
00E300
038300
000300
000300
000300
000300
000600
007E00
001C00
000000
ENDCHAR

STARTCHAR cns4_2139
ENCODING 8505
SWIDTH 960 0
DWIDTH 24 0
BBX 24 24 0 -2
BITMAP
000000
000000
000018
0FFFFC
001818
001818
001818
001818
039818
00F818
003818
001C18
003E18
003730
006330
006030
00C060
018060
0300C0
0E0FC0
00038C
3FFFFE
000000
000000
ENDCHAR

STARTCHAR cns4_213A
ENCODING 8506
SWIDTH 960 0
DWIDTH 24 0
BBX 24 24 0 -2
BITMAP
000000
000000
000E00
000C38
000CE0
000F80
003C00
1FEC00
000C38
000CE0
000F80
007C00
1FCC00
000C38
000CE0
000F80
00FC00
3F8C00
000C00
000C00
000C00
000C00
000C00
000000
ENDCHAR

STARTCHAR cns4_213B
ENCODING 8507
SWIDTH 960 0
DWIDTH 24 0
BBX 24 24 0 -2
BITMAP
000000
000000
000000
000060
0FFFF0
000000
000000
000000
00000C
3FFFFE
000000
000000
000000
000030
0FFFF8
000000
000000
000000
000000
00000C
7FFFFE
000000
000000
000000
ENDCHAR

STARTCHAR cns4_213C
ENCODING 8508
SWIDTH 960 0
DWIDTH 24 0
BBX 24 24 0 -2
BITMAP
000000
001C00
001800
003800
003800
006C00
00C600
018380
031DE0
0618FE
1C1870
701800
001800
001818
3FFFFC
001800
001800
001800
001800
001800
001800
001800
001800
000000
ENDCHAR

STARTCHAR cns4_213D
ENCODING 8509
SWIDTH 960 0
DWIDTH 24 0
BBX 24 24 0 -2
BITMAP
000000
000E00
000C00
000C00
000C00
000C30
1FFFF8
000C00
070C00
060C00
060C00
060C18
0FFFFC
0C1800
001E00
001C00
003C00
003C08
006C08
00CC0C
018E1C
0707F8
1C0000
000000
ENDCHAR

STARTCHAR cns4_213E
ENCODING 8510
SWIDTH 960 0
DWIDTH 24 0
BBX 24 24 0 -2
BITMAP
000000
100018
1FFFFC
180018
180018
180018
180018
180198
1BFFD8
180018
180018
180018
180198
1BFFD8
180018
180018
180018
180018
180018
180018
1801F8
180070
000000
000000
ENDCHAR

STARTCHAR cns4_213F
ENCODING 8511
SWIDTH 960 0
DWIDTH 24 0
BBX 24 24 0 -2
BITMAP
000000
000000
003800
003000
003000
003C00
006700
0061C0
00C070
01803C
07001E
1C000C
701C00
001800
001800
003C00
006600
00C300
0181C0
0700F0
1C007E
70001C
000000
000000
ENDCHAR

STARTCHAR cns4_2140
ENCODING 8512
SWIDTH 960 0
DWIDTH 24 0
BBX 24 24 0 -2
BITMAP
000000
000000
000C0E
3FFE0C
018CEC
018CCC
018CCC
018CCC
018CCC
018CCC
030CCC
030CCC
030CCC
030CCC
060CCC
060CCC
060CCC
0C0C0C
0C0C0C
18180C
18180C
31F8FC
607038
000000
ENDCHAR

STARTCHAR cns4_2141
ENCODING 8513
SWIDTH 960 0
DWIDTH 24 0
BBX 24 24 0 -2
BITMAP
000000
000000
00300C
7FFBFE
0330CC
0330CC
0330CC
0330CC
0330CC
0330CC
0630CC
06318C
06318C
06318C
0C618C
0C6318
0C6318
0C6318
186618
18C638
37CDF0
619860
000000
000000
ENDCHAR

STARTCHAR cns4_2142
ENCODING 8514
SWIDTH 960 0
DWIDTH 24 0
BBX 24 24 0 -2
BITMAP
000000
000000
038000
030000
030020
03FFF0
030008
03000C
03801C
01FFF8
000000
001C00
001800
001800
001818
3FFFFC
001800
001800
001800
001800
001800
001800
001800
000000
ENDCHAR

STARTCHAR cns4_2143
ENCODING 8515
SWIDTH 960 0
DWIDTH 24 0
BBX 24 24 0 -2
BITMAP
000000
000000
206418
3FF7FC
306618
306618
306618
306618
306618
306618
306618
30C618
30C618
37C6F8
318630
300600
300600
300604
302604
302604
303606
38770E
1FE3FC
000000
ENDCHAR

STARTCHAR cns4_2144
ENCODING 8516
SWIDTH 960 0
DWIDTH 24 0
BBX 24 24 0 -2
BITMAP
000000
01C000
018000
018300
03FF80
030300
060600
0C0C0C
3FFFFE
060000
060000
060000
060000
060000
060000
060000
0C0000
0C0000
0C0000
180000
180000
300000
000000
000000
ENDCHAR

STARTCHAR cns4_2145
ENCODING 8517
SWIDTH 960 0
DWIDTH 24 0
BBX 24 24 0 -2
BITMAP
000000
000000
018060
01C070
018060
018060
018060
0180C0
0300C0
0300C0
0300C0
030180
060180
060180
060300
0CC300
0C6330
0C3618
183E0C
19FC3C
7F1FE6
303C06
001806
000000
ENDCHAR

STARTCHAR cns4_2146
ENCODING 8518
SWIDTH 960 0
DWIDTH 24 0
BBX 24 24 0 -2
BITMAP
000000
000E00
000C00
000C00
10CC00
1FEC00
18CC00
18CC00
18CC00
18CC00
18CC00
18CC00
18CC00
18CC00
18CC00
1FCC00
18CC00
180C04
000C04
000C04
000C06
000E0E
0007FC
000000
ENDCHAR

STARTCHAR cns4_2147
ENCODING 8519
SWIDTH 960 0
DWIDTH 24 0
BBX 24 24 0 -2
BITMAP
000000
000000
000000
000018
3FFFFC
000000
000000
000000
040060
07FFF0
060060
060060
060060
060060
060060
060060
060060
060060
060060
060060
07FFE0
060060
000000
000000
ENDCHAR

STARTCHAR cns4_2148
ENCODING 8520
SWIDTH 960 0
DWIDTH 24 0
BBX 24 24 0 -2
BITMAP
000000
000000
000060
0001F8
000F00
01F800
1F9800
001800
001800
001800
001800
001830
1FFFF8
001800
001800
001800
001800
001800
001800
001800
00180C
3FFFFE
000000
000000
ENDCHAR

STARTCHAR cns4_2149
ENCODING 8521
SWIDTH 960 0
DWIDTH 24 0
BBX 24 24 0 -2
BITMAP
000000
01C000
018000
018000
030000
030C00
03FE00
000C00
000C00
000C00
000C00
000C18
1FFFFC
001800
001800
001C00
003600
003300
0061C0
00C0F0
01807E
070030
3C0000
000000
ENDCHAR

STARTCHAR cns4_214A
ENCODING 8522
SWIDTH 960 0
DWIDTH 24 0
BBX 24 24 0 -2
BITMAP
000000
00C300
00E180
00C0C0
018060
018030
030030
060018
0C8198
38FFC0
00C180
00C180
00C180
00C180
00C180
00C180
018184
018184
030184
030186
0601C6
0C00FC
380000
000000
ENDCHAR

STARTCHAR cns4_214B
ENCODING 8523
SWIDTH 960 0
DWIDTH 24 0
BBX 24 24 0 -2
BITMAP
000000
018300
01C180
0180C0
030060
030030
060030
0C0018
19C398
318300
018300
018300
018300
018300
018300
030300
030304
030304
060304
060306
0C038E
1801FC
700000
000000
ENDCHAR

STARTCHAR cns4_214C
ENCODING 8524
SWIDTH 960 0
DWIDTH 24 0
BBX 24 24 0 -2
BITMAP
000000
000000
000070
0007F8
00FC00
1F9800
001800
001800
101818
1FFFFC
181818
181818
181818
181818
181818
181818
181818
181818
1819F8
181870
001800
001800
001800
000000
ENDCHAR

STARTCHAR cns4_214D
ENCODING 8525
SWIDTH 960 0
DWIDTH 24 0
BBX 24 24 0 -2
BITMAP
000000
000000
000018
1FFFFC
00C180
00C180
00C180
00C180
00C180
00C180
00C180
00C18C
7FFFFE
018180
018180
018180
030180
030180
030180
060180
060180
0C0180
380180
000000
ENDCHAR

STARTCHAR cns4_214E
ENCODING 8526
SWIDTH 960 0
DWIDTH 24 0
BBX 24 24 0 -2
BITMAP
000000
000000
000000
00000C
3FFFFE
003800
003800
007C00
007C00
00DE00
00DE00
019B00
019980
0318C0
061870
0C183E
381818
001800
001800
001800
001800
001800
000000
000000
ENDCHAR

STARTCHAR cns4_214F
ENCODING 8527
SWIDTH 960 0
DWIDTH 24 0
BBX 24 24 0 -2
BITMAP
000000
000000
0C0030
067FF8
060060
000060
0080C0
0080C0
318180
198180
1B0300
030600
030600
060C00
060C00
0E1804
3C1804
1C1804
0C3004
0C3006
0C180E
0C0FFC
000000
000000
ENDCHAR

STARTCHAR cns4_2150
ENCODING 8528
SWIDTH 960 0
DWIDTH 24 0
BBX 24 24 0 -2
BITMAP
000000
000000
000000
000000
000000
000000
000000
000000
000000
000000
000000
000000
000000
058C30
0CC618
0C630C
18630C
183186
303186
300000
000000
000000
000000
000000
ENDCHAR

STARTCHAR cns4_2151
ENCODING 8529
SWIDTH 960 0
DWIDTH 24 0
BBX 24 24 0 -2
BITMAP
000000
000000
000000
0000E0
040FF0
07F800
060060
063030
061818
0C0C18
0C0C0C
180C0C
18000C
300000
000000
000000
000000
000000
000000
000000
000000
000000
000000
000000
ENDCHAR

STARTCHAR cns4_2152
ENCODING 8530
SWIDTH 960 0
DWIDTH 24 0
BBX 24 24 0 -2
BITMAP
000000
000000
100018
1FFFFC
180018
180198
180198
198198
18C318
186318
183618
181E18
180C18
181E18
181B18
183198
186198
18C0D8
1980D8
1B0018
1801F8
180070
000000
000000
ENDCHAR

STARTCHAR cns4_2153
ENCODING 8531
SWIDTH 960 0
DWIDTH 24 0
BBX 24 24 0 -2
BITMAP
000000
000000
000000
000000
000000
0700E0
0600C0
06C0CC
7FEFFE
0600C0
0600C0
0600C0
000000
000000
000000
000000
000000
000000
000000
000000
000000
000000
000000
000000
ENDCHAR

STARTCHAR cns4_2154
ENCODING 8532
SWIDTH 960 0
DWIDTH 24 0
BBX 24 24 0 -2
BITMAP
000000
000000
380000
0E0000
060000
000000
000000
060000
3F0000
060000
0C0000
0C0000
1B0000
1F8000
1B0000
030000
030000
060000
060000
0C0000
1F0000
31FFFE
000000
000000
ENDCHAR

STARTCHAR cns4_2155
ENCODING 8533
SWIDTH 960 0
DWIDTH 24 0
BBX 24 24 0 -2
BITMAP
000000
000000
071C70
061860
061860
061860
061860
061860
06186C
3FFFFE
061860
061860
061860
061860
061860
061860
061860
061860
060060
000000
00000C
3FFFFE
000000
000000
ENDCHAR

STARTCHAR cns4_2156
ENCODING 8534
SWIDTH 960 0
DWIDTH 24 0
BBX 24 24 0 -2
BITMAP
000000
000070
060060
0300C0
0180C0
00C1E0
066330
1C6618
183C18
003800
001800
001800
001800
001800
001800
001800
001800
001800
001800
001800
001800
001800
001800
000000
ENDCHAR

STARTCHAR cns4_2157
ENCODING 8535
SWIDTH 960 0
DWIDTH 24 0
BBX 24 24 0 -2
BITMAP
000000
060000
070000
060000
06000C
0FFFFE
0C0000
180E00
338C00
030C18
030CFC
037F98
1FCC18
030C18
030C18
030C30
030CF0
030C64
030C04
030004
030006
03800E
01FFFC
000000
ENDCHAR

STARTCHAR cns4_2158
ENCODING 8536
SWIDTH 960 0
DWIDTH 24 0
BBX 24 24 0 -2
BITMAP
000000
070000
060380
06830C
06FFFE
0CC000
0CC000
1CC000
1CC000
3CC000
3CC000
6CC000
0CC000
0CC000
0CC000
0CC000
0D8000
0D8000
0D8000
0D8000
0F0000
0F0000
0C0000
000000
ENDCHAR

STARTCHAR cns4_2159
ENCODING 8537
SWIDTH 960 0
DWIDTH 24 0
BBX 24 24 0 -2
BITMAP
000000
070000
060000
060000
068018
0CFFFC
0CC018
0CC018
1CC018
1CC018
3CC018
3CC018
6CC018
0CC018
0CC018
0CC018
0CC018
0CC018
0CC018
0CFFF8
0CC018
0CC018
0C0000
000000
ENDCHAR

STARTCHAR cns4_215A
ENCODING 8538
SWIDTH 960 0
DWIDTH 24 0
BBX 24 24 0 -2
BITMAP
000000
000000
01CE00
018C00
018C00
031800
03180C
071FFE
06300C
0E600C
0E000C
1E0C0C
36060C
06030C
06018C
06018C
06000C
06000C
060018
060018
060038
0603F0
060060
000000
ENDCHAR

STARTCHAR cns4_215B
ENCODING 8539
SWIDTH 960 0
DWIDTH 24 0
BBX 24 24 0 -2
BITMAP
000000
000000
038060
0301F0
030700
061E00
067600
060600
0E0600
0E0600
1E0600
1E0618
36FFFC
660600
060600
060600
060600
060604
060604
060606
06070E
0603FC
000000
000000
ENDCHAR

STARTCHAR cns4_215C
ENCODING 8540
SWIDTH 960 0
DWIDTH 24 0
BBX 24 24 0 -2
BITMAP
000000
001C00
001800
001800
001800
001860
001FF0
001800
001800
001800
00180C
3FFFFE
006300
006300
006300
00C304
00C304
018304
018304
030306
06038E
0C01FC
380000
000000
ENDCHAR

STARTCHAR cns4_215D
ENCODING 8541
SWIDTH 960 0
DWIDTH 24 0
BBX 24 24 0 -2
BITMAP
000000
000000
00000C
7FFFFE
000000
000000
080060
0FFFF0
0C0060
0C0060
0C0660
0DFF60
0C0060
0C0060
0C006C
7FFFFE
0C0060
0C0060
0C0060
0C0060
0C0060
0C07E0
0C01C0
000000
ENDCHAR

STARTCHAR cns4_215E
ENCODING 8542
SWIDTH 960 0
DWIDTH 24 0
BBX 24 24 0 -2
BITMAP
000000
000000
003800
003000
003000
00300C
3FFFFE
006600
006300
00C180
0180E0
030078
06303E
1C1818
700E00
000600
000000
0000E0
000380
000E00
007800
03C000
018000
000000
ENDCHAR

STARTCHAR cns4_215F
ENCODING 8543
SWIDTH 960 0
DWIDTH 24 0
BBX 24 24 0 -2
BITMAP
000000
080030
0FFFF8
0C0030
0C0030
0C1C30
0C1830
0C1830
0C1830
0C1830
0DD9F0
0D99B0
0D99B0
0D99B0
0D99B0
0D99B0
0D99B8
19999A
19999A
19999E
31FF8E
31808E
600006
000000
ENDCHAR

STARTCHAR cns4_2160
ENCODING 8544
SWIDTH 960 0
DWIDTH 24 0
BBX 24 24 0 -2
BITMAP
000000
000000
70000E
60380C
60300C
60300C
60300C
60300C
60330C
63FF8C
60300C
60300C
60300C
60300C
60300C
6030CC
6FFFEC
60000C
60000C
60000C
7FFFFC
60000C
000000
000000
ENDCHAR

STARTCHAR cns4_2161
ENCODING 8545
SWIDTH 960 0
DWIDTH 24 0
BBX 24 24 0 -2
BITMAP
000000
000000
00000E
00000C
0018CC
7FFCCC
0300CC
0300CC
0300CC
0300CC
0300CC
0300CC
0300CC
0300CC
0300CC
0300CC
033CCC
03E0CC
7F000C
30000C
00000C
0000FC
000038
000000
ENDCHAR

STARTCHAR cns4_2162
ENCODING 8546
SWIDTH 960 0
DWIDTH 24 0
BBX 24 24 0 -2
BITMAP
000000
000000
001800
7FFC38
06C030
06C3B0
06C330
06C330
06C330
06C330
06C330
06C330
06C330
0CC330
0CC330
0CC030
0CC030
18C030
18C1F4
18C064
30C006
30E00E
607FFC
000000
ENDCHAR

STARTCHAR cns4_2163
ENCODING 8547
SWIDTH 960 0
DWIDTH 24 0
BBX 24 24 0 -2
BITMAP
000000
000000
0E00E0
0C00C0
0C00C0
0C18C0
1FFCC0
1800CC
3003FE
6060CC
1FF0CC
00C0CC
0180CC
0300CC
0300CC
06018C
06018C
0C118C
0C118C
181B1C
1C3BF8
0FF670
000000
000000
ENDCHAR

STARTCHAR cns4_2164
ENCODING 8548
SWIDTH 960 0
DWIDTH 24 0
BBX 24 24 0 -2
BITMAP
000000
000000
0079C0
03C180
3F0180
030180
030180
03018C
030FFE
03018C
03318C
7FF98C
03018C
03018C
03030C
03030C
03030C
03030C
030618
030618
030DF8
031870
007000
000000
ENDCHAR

STARTCHAR cns4_2165
ENCODING 8549
SWIDTH 960 0
DWIDTH 24 0
BBX 24 24 0 -2
BITMAP
000000
000000
200018
3FFFFC
307000
306000
306300
307F80
30C300
30C300
318600
330600
360C00
300C00
301E00
303300
306180
30C0C0
318070
370030
30000C
3FFFFE
300000
000000
ENDCHAR

STARTCHAR cns4_2166
ENCODING 8550
SWIDTH 960 0
DWIDTH 24 0
BBX 24 24 0 -2
BITMAP
000000
000000
08000C
0FFFFE
0C0000
0C0030
0DFFF8
0C0600
0C0600
0C0600
0C0600
0C061C
0FFFFE
0C0600
0C0600
0C0600
180600
180600
180600
180600
300600
300600
000000
000000
ENDCHAR

STARTCHAR cns4_2167
ENCODING 8551
SWIDTH 960 0
DWIDTH 24 0
BBX 24 24 0 -2
BITMAP
000000
000000
08000C
0FFFFE
0C0040
0C00E0
0C0380
0C1E00
0CF600
0C0600
0C0600
0C0600
0C063C
0FFFE0
0C0600
0C0600
180604
180604
180604
180606
30070E
3003FC
000000
000000
ENDCHAR

STARTCHAR cns4_2168
ENCODING 8552
SWIDTH 960 0
DWIDTH 24 0
BBX 24 24 0 -2
BITMAP
000000
001C00
001800
1C181C
181818
181818
181818
1FFFF8
181818
001800
0018C0
07FFE0
00C0C0
00C180
006180
006300
003300
001E00
001C00
007600
01C380
0701FE
3C00F0
000000
ENDCHAR

STARTCHAR cns4_2169
ENCODING 8553
SWIDTH 960 0
DWIDTH 24 0
BBX 24 24 0 -2
BITMAP
000000
001C00
001800
001860
0FFFF0
001860
001860
001860
00186C
3FFFFE
001800
0018C0
1FFFE0
0180C0
018180
00C180
006300
003E00
001C00
007600
01C3C0
0700FE
3C0030
000000
ENDCHAR

STARTCHAR cns4_216A
ENCODING 8554
SWIDTH 960 0
DWIDTH 24 0
BBX 24 24 0 -2
BITMAP
000000
000000
001CE0
2198C0
3FD8C0
3198C0
3198C0
3198C0
3198C0
3198C0
3198C0
3198C0
3198C0
3198C0
3F98C0
3198C0
3018C4
0030C4
0030C6
0060E6
00C07C
038000
000000
000000
ENDCHAR

STARTCHAR cns4_216B
ENCODING 8555
SWIDTH 960 0
DWIDTH 24 0
BBX 24 24 0 -2
BITMAP
000000
000000
00E000
00C600
018300
018180
0300C0
030070
060038
0C001E
18000C
740060
07FFF0
060060
060060
060060
060060
060060
060060
060060
07FFE0
060060
000000
000000
ENDCHAR

STARTCHAR cns4_216C
ENCODING 8556
SWIDTH 960 0
DWIDTH 24 0
BBX 24 24 0 -2
BITMAP
000000
000000
040030
07FFF8
060030
060030
060030
060030
060030
07FFF0
060030
000000
00000C
1FFFFE
00180C
00180C
00300C
00300C
006018
00C018
018030
0707F0
1C00E0
000000
ENDCHAR

STARTCHAR cns4_216D
ENCODING 8557
SWIDTH 960 0
DWIDTH 24 0
BBX 24 24 0 -2
BITMAP
000000
000000
20000C
3FFFFE
30000C
30300C
30380C
30300C
30300C
30600C
30600C
30600C
30600C
30C30C
30C18C
3180CC
331FEC
3FF06C
33006C
30000C
30000C
3FFFFC
30000C
000000
ENDCHAR

STARTCHAR cns4_216E
ENCODING 8558
SWIDTH 960 0
DWIDTH 24 0
BBX 24 24 0 -2
BITMAP
000000
20000C
3FFFFE
30000C
30180C
31FC0C
30180C
30180C
30180C
30180C
30380C
303C0C
30360C
30660C
30630C
30C18C
31818C
3300CC
3600EC
3C006C
30000C
3FFFFC
30000C
000000
ENDCHAR

STARTCHAR cns4_216F
ENCODING 8559
SWIDTH 960 0
DWIDTH 24 0
BBX 24 24 0 -2
BITMAP
000000
000000
20000C
3FFFFE
30000C
30000C
30000C
30000C
30030C
3FFF8C
30030C
30030C
30030C
30030C
3FFF0C
30030C
30000C
30000C
30000C
30000C
3FFFFC
30000C
300000
000000
ENDCHAR

STARTCHAR cns4_2170
ENCODING 8560
SWIDTH 960 0
DWIDTH 24 0
BBX 24 24 0 -2
BITMAP
000000
000000
001C00
001800
001800
001860
07FFF0
001800
001800
001800
00180C
7FFFFE
00C600
00C600
00C600
00C600
018600
018604
030604
030604
060606
0C070E
3803FC
000000
ENDCHAR

STARTCHAR cns4_2171
ENCODING 8561
SWIDTH 960 0
DWIDTH 24 0
BBX 24 24 0 -2
BITMAP
000000
000000
08000C
0FFFFE
0C0000
0C0E00
0C0C00
0C0C00
0C0C00
0C0C00
0C0C30
0DFFF8
0C0C00
0C0C00
0C0C00
0C0C00
0C0C00
180C00
180C00
180C00
300C0C
37FFFE
600000
000000
ENDCHAR

STARTCHAR cns4_2172
ENCODING 8562
SWIDTH 960 0
DWIDTH 24 0
BBX 24 24 0 -2
BITMAP
000000
000000
007000
006000
006000
006018
3FFFFC
00C600
00C300
018180
0180C0
030070
06003E
1C0018
7000C0
07FFE0
000000
000000
000000
000000
000000
00000C
3FFFFE
000000
ENDCHAR

STARTCHAR cns4_2173
ENCODING 8563
SWIDTH 960 0
DWIDTH 24 0
BBX 24 24 0 -2
BITMAP
000000
01C000
018000
018000
030000
03000C
07FFFE
060600
0C0600
0C0600
190660
31C630
018630
018618
030618
03060C
06060C
06060C
0C0600
000600
000600
00FE00
001C00
000000
ENDCHAR

STARTCHAR cns4_2174
ENCODING 8564
SWIDTH 960 0
DWIDTH 24 0
BBX 24 24 0 -2
BITMAP
000000
000000
080018
0FFFFC
0C0018
0C0018
0C0018
0FFFF8
0C0018
0C0000
0C0000
0C0000
0C00C0
0CFFE0
0C0000
0C0000
0C0000
180000
180000
18000C
37FFFE
300000
600000
000000
ENDCHAR

STARTCHAR cns4_2175
ENCODING 8565
SWIDTH 960 0
DWIDTH 24 0
BBX 24 24 0 -2
BITMAP
000000
000000
030070
018060
00C0C0
00C0C0
04018C
07FFFE
06000C
06000C
06000C
07FFFC
06000C
060000
060000
060000
0C0000
0C0000
0C0000
0C0000
180000
180000
300000
000000
ENDCHAR

STARTCHAR cns4_2176
ENCODING 8566
SWIDTH 960 0
DWIDTH 24 0
BBX 24 24 0 -2
BITMAP
000000
000E00
070C1C
060C18
060C18
060C18
07FFF8
000000
080018
0FFFFC
0C0000
0C0000
0C0000
0C0000
0C0000
0C0000
0C0000
0C0000
0C0000
180000
180000
300000
600000
000000
ENDCHAR

STARTCHAR cns4_2177
ENCODING 8567
SWIDTH 960 0
DWIDTH 24 0
BBX 24 24 0 -2
BITMAP
000000
070000
061060
061FF0
061860
26D860
3FF860
36D860
36D860
36D860
36D860
36D860
36D860
36D860
36D860
36D860
36D860
37D864
063064
063066
066076
06C03C
078000
000000
ENDCHAR

STARTCHAR cns4_2178
ENCODING 8568
SWIDTH 960 0
DWIDTH 24 0
BBX 24 24 0 -2
BITMAP
000000
000300
018380
00C300
00C300
00C600
000630
0FFFF8
001800
001800
001800
001800
00180C
3FFFFE
001800
001800
001800
001800
001800
001800
001800
001800
001800
000000
ENDCHAR

STARTCHAR cns4_2179
ENCODING 8569
SWIDTH 960 0
DWIDTH 24 0
BBX 24 24 0 -2
BITMAP
000000
060000
072018
063FFC
0C3018
0C3018
1BB018
733018
073018
063018
0E3018
1E3018
363030
6631F0
063060
063000
063004
063004
063004
063006
06380E
061FFC
060000
000000
ENDCHAR

STARTCHAR cns4_217A
ENCODING 8570
SWIDTH 960 0
DWIDTH 24 0
BBX 24 24 0 -2
BITMAP
000000
000000
07380E
06300C
06300C
06300C
06B00C
7FF00C
06300C
06300C
06300C
07F00C
07300C
0E300C
7E300C
26300C
06300C
06300C
06300C
06300C
063FFC
7E300C
0C300C
000000
ENDCHAR

STARTCHAR cns4_217B
ENCODING 8571
SWIDTH 960 0
DWIDTH 24 0
BBX 24 24 0 -2
BITMAP
000000
03800E
03000C
03070C
03060C
03060C
03660C
3FF60C
03060C
03060C
03060C
03360C
03E60C
07860C
3F063C
1B07EC
033F0C
03180C
03000C
03000C
03000C
1F000C
06000C
000000
ENDCHAR

STARTCHAR cns4_217C
ENCODING 8572
SWIDTH 960 0
DWIDTH 24 0
BBX 24 24 0 -2
BITMAP
000000
100018
1FFFFC
180018
180018
180018
180018
180018
1FFFF8
181818
181818
181818
181818
1FFFF8
181800
001800
001800
001800
001800
001800
001800
001800
001800
000000
ENDCHAR

STARTCHAR cns4_217D
ENCODING 8573
SWIDTH 960 0
DWIDTH 24 0
BBX 24 24 0 -2
BITMAP
000000
001C00
001800
001800
0E181C
0C1818
0C1818
0C1818
0C1818
0FFFF8
0C1818
001800
003C00
003E00
007B00
00D980
0198E0
031878
06183E
1C1818
701800
001800
001800
000000
ENDCHAR

STARTCHAR cns4_217E
ENCODING 8574
SWIDTH 960 0
DWIDTH 24 0
BBX 24 24 0 -2
BITMAP
000000
000000
0001E0
000780
001C00
001800
001800
001800
00180C
7FFFFE
003800
003C00
007E00
007B00
00D980
0198E0
031878
06183E
1C1818
701800
001800
001800
001800
000000
ENDCHAR

STARTCHAR cns4_2221
ENCODING 8737
SWIDTH 960 0
DWIDTH 24 0
BBX 24 24 0 -2
BITMAP
000000
000000
000000
20000C
3FFFFE
30C30C
30C30C
30C30C
30C30C
30C30C
30C30C
30C30C
30C30C
30C30C
30C30C
30C30C
30C30C
30C30C
30C30C
3FFFFC
30000C
000000
000000
000000
ENDCHAR

STARTCHAR cns4_2222
ENCODING 8738
SWIDTH 960 0
DWIDTH 24 0
BBX 24 24 0 -2
BITMAP
000000
000000
431060
7F9FF0
631860
631860
661860
661860
6C1860
6C1860
661860
631860
631860
631860
633060
673060
7E3064
643064
606064
606066
60C076
61803C
600000
000000
ENDCHAR

STARTCHAR cns4_2223
ENCODING 8739
SWIDTH 960 0
DWIDTH 24 0
BBX 24 24 0 -2
BITMAP
000000
430000
7F8E00
630C00
630C00
660C00
660C00
660CC0
6CFFE0
6C0CC0
660CC0
630CC0
630CC0
630CC0
6318C0
6718C0
7E18C4
6418C4
6030C4
6030C6
6060E6
60C07C
600000
000000
ENDCHAR

STARTCHAR cns4_2224
ENCODING 8740
SWIDTH 960 0
DWIDTH 24 0
BBX 24 24 0 -2
BITMAP
000000
000000
000018
7FFFFC
001800
001800
001800
201818
3FFFFC
303018
303018
303818
307C18
306618
30C318
30C318
318198
370198
300018
300018
300018
3FFFF8
300018
000000
ENDCHAR

STARTCHAR cns4_2225
ENCODING 8741
SWIDTH 960 0
DWIDTH 24 0
BBX 24 24 0 -2
BITMAP
000000
0000C0
0107E0
01FC00
018060
01FFF0
018060
018060
1DFFE0
198060
198060
19FFE0
198000
198018
3FFFFC
198018
018018
018018
030018
030018
060030
0603F0
0C0060
000000
ENDCHAR

STARTCHAR cns4_2226
ENCODING 8742
SWIDTH 960 0
DWIDTH 24 0
BBX 24 24 0 -2
BITMAP
000000
000000
0000F8
043F80
07F000
06003C
0641F0
067F00
066300
06630C
06631E
066330
066360
0663C0
066180
066180
066180
0C60C0
0C60C0
186F60
187830
31E01C
608000
000000
ENDCHAR

STARTCHAR cns4_2227
ENCODING 8743
SWIDTH 960 0
DWIDTH 24 0
BBX 24 24 0 -2
BITMAP
000000
000000
0003C0
000F00
003C00
01EC00
1F0C00
000C00
006C20
01CC78
070CE0
1C0DC0
700F00
006F80
00CCC0
018C70
030C3E
0E0C18
380C00
000C00
000C00
007C00
001800
000000
ENDCHAR

STARTCHAR cns4_2228
ENCODING 8744
SWIDTH 960 0
DWIDTH 24 0
BBX 24 24 0 -2
BITMAP
000000
000000
003000
7FF800
006000
00C000
00E030
01BFF8
01B330
033330
033330
063330
063FF0
0C3330
0C3330
183330
183330
303FF4
303034
380006
1E000E
07FFFC
000000
000000
ENDCHAR

STARTCHAR cns4_2229
ENCODING 8745
SWIDTH 960 0
DWIDTH 24 0
BBX 24 24 0 -2
BITMAP
000000
030000
038380
030300
060300
060300
06430C
0E7FFE
0E6318
1E6330
1EC380
360300
660700
060700
060700
060F00
060F04
061B04
061B04
063306
06638E
07C1FC
060000
000000
ENDCHAR

STARTCHAR cns4_222A
ENCODING 8746
SWIDTH 960 0
DWIDTH 24 0
BBX 24 24 0 -2
BITMAP
000000
038000
03400C
037FFE
036000
066000
066418
0667FC
0E6618
0E6618
1E6618
1E6618
366618
666618
0666F8
066630
066600
066604
066604
06C604
06C606
07870E
0603FC
000000
ENDCHAR

STARTCHAR cns4_222B
ENCODING 8747
SWIDTH 960 0
DWIDTH 24 0
BBX 24 24 0 -2
BITMAP
000000
030000
0398C0
031BE0
0330C0
063060
066030
0EC0D8
0FBFEE
1E0C00
1E0C00
360C00
661830
061FF8
063030
060030
060030
060030
060030
060060
0600E0
060FC0
060300
000000
ENDCHAR

STARTCHAR cns4_222C
ENCODING 8748
SWIDTH 960 0
DWIDTH 24 0
BBX 24 24 0 -2
BITMAP
000000
003800
003000
00300C
7FFFFE
003000
103030
1FFFF8
183030
183030
183030
1833F0
1830E0
000000
003800
003000
003000
003800
006C00
00C700
0383C0
0E01FE
7800E0
000000
ENDCHAR

STARTCHAR cns4_222D
ENCODING 8749
SWIDTH 960 0
DWIDTH 24 0
BBX 24 24 0 -2
BITMAP
000000
000000
060000
07000C
06FFFE
060C00
0C0C00
0C0C00
0C0C30
1C0FF8
1C1830
3C1830
6C1830
0C1830
0C3030
0C3030
0C3FE0
0C6060
0C0060
0C00C0
0C00CC
0DFFFE
0C0000
000000
ENDCHAR

STARTCHAR cns4_222E
ENCODING 8750
SWIDTH 960 0
DWIDTH 24 0
BBX 24 24 0 -2
BITMAP
000000
030000
03C00C
037FFE
036000
066018
066018
0C6030
0C6C30
1C6660
3C6360
6C61C0
0C61C0
0C61E0
0C6370
0C6638
0C6C18
0C7800
0C6000
0C6000
0C600C
0C7FFE
0C6000
000000
ENDCHAR

STARTCHAR cns4_222F
ENCODING 8751
SWIDTH 960 0
DWIDTH 24 0
BBX 24 24 0 -2
BITMAP
000000
000000
038000
03200C
033FFE
06300C
06300C
0C300C
0C300C
1C360C
1C330C
3C318C
6C31CC
0C30CC
0C30CC
0C300C
0C300C
0C300C
0C300C
0C300C
0C3FFC
0C300C
0C0000
000000
ENDCHAR

STARTCHAR cns4_2230
ENCODING 8752
SWIDTH 960 0
DWIDTH 24 0
BBX 24 24 0 -2
BITMAP
000000
030380
038300
030300
030300
060318
0603FC
060300
0E0300
0E0330
1E7FF8
361830
661830
060C60
060C60
0606C0
0606C0
060380
060380
0606C0
060C70
06383E
06E01C
000000
ENDCHAR

STARTCHAR cns4_2231
ENCODING 8753
SWIDTH 960 0
DWIDTH 24 0
BBX 24 24 0 -2
BITMAP
000000
063000
0739C0
063180
063180
0C6180
0C6180
0C6180
1CE180
1CC180
3DC180
3FC3C0
6CC3C0
0CC360
0CC360
0CC630
0CC630
0CC618
0CCC18
0CCC0C
0CD80E
0CF006
0CC006
000000
ENDCHAR

STARTCHAR cns4_2232
ENCODING 8754
SWIDTH 960 0
DWIDTH 24 0
BBX 24 24 0 -2
BITMAP
000000
00E380
00C300
00C300
00C300
10C318
1FC3FC
18C318
18C318
18C318
18C318
18C318
18C318
1FC3F8
18C318
018300
018300
030304
030304
060304
0C0306
18038E
3001FC
000000
ENDCHAR

STARTCHAR cns4_2233
ENCODING 8755
SWIDTH 960 0
DWIDTH 24 0
BBX 24 24 0 -2
BITMAP
000000
000000
020030
03FFF8
030000
030000
0300C0
03FFE0
030000
030000
03000C
3FFFFE
000000
00E1C0
00C180
00C180
00C180
00C180
018184
018184
030186
0601C6
3C00FC
000000
ENDCHAR

STARTCHAR cns4_2234
ENCODING 8756
SWIDTH 960 0
DWIDTH 24 0
BBX 24 24 0 -2
BITMAP
000000
00E0C0
00CFE0
0180C0
0180C0
030060
060038
0C001E
18006C
33FFF0
001800
001800
001800
00180C
1FFFFE
001800
001C00
003600
003300
0061C0
00C0F0
03807C
1E0030
000000
ENDCHAR

STARTCHAR cns4_2235
ENCODING 8757
SWIDTH 960 0
DWIDTH 24 0
BBX 24 24 0 -2
BITMAP
000000
030180
039FC0
030180
0600C0
061C60
0C1838
18181E
701800
101818
1FFFFC
181818
181818
181818
181818
1FFFF8
181818
001800
001800
001800
001800
001800
001800
000000
ENDCHAR

STARTCHAR cns4_2236
ENCODING 8758
SWIDTH 960 0
DWIDTH 24 0
BBX 24 24 0 -2
BITMAP
000000
000000
0200C0
03FFE0
0300C0
0320C0
033FC0
0330C0
0330C0
0330C0
1330D8
1FFFFC
180018
180018
180018
180018
180018
180018
180018
180018
180018
1801F8
180070
000000
ENDCHAR

STARTCHAR cns4_2237
ENCODING 8759
SWIDTH 960 0
DWIDTH 24 0
BBX 24 24 0 -2
BITMAP
000000
000000
10000C
1FFFFE
18000C
18000C
300308
01DF80
018300
030180
030180
0600C0
0C7070
18603E
306018
60C000
00C300
018180
0180C0
030060
063FF0
3FE030
180030
000000
ENDCHAR

STARTCHAR cns4_2238
ENCODING 8760
SWIDTH 960 0
DWIDTH 24 0
BBX 24 24 0 -2
BITMAP
000000
000000
000600
300300
180180
0C00C0
0C00C0
011C00
011800
031800
031800
069818
06980C
0C980C
0D9806
1D9806
7B1816
1B1810
181810
181818
1C1C38
1C0FF0
180000
000000
ENDCHAR

STARTCHAR cns4_2239
ENCODING 8761
SWIDTH 960 0
DWIDTH 24 0
BBX 24 24 0 -2
BITMAP
000000
000000
01C00E
01800C
0180EC
018CCC
3FFECC
0180CC
0180CC
0198CC
3FFCCC
0C18CC
0C18CC
0630CC
0630CC
0360CC
0360CC
01C00C
01C00C
03E00C
037C0C
0E30FC
380038
000000
ENDCHAR

STARTCHAR cns4_223A
ENCODING 8762
SWIDTH 960 0
DWIDTH 24 0
BBX 24 24 0 -2
BITMAP
000000
01C000
01800E
018CEC
7FFECC
0000CC
01C0CC
0180CC
218CCC
3FFECC
318CCC
318CCC
318CCC
318CCC
318CCC
318CCC
318CCC
318C0C
31FC0C
31980C
31800C
0180FC
018038
000000
ENDCHAR

STARTCHAR cns4_223B
ENCODING 8763
SWIDTH 960 0
DWIDTH 24 0
BBX 24 24 0 -2
BITMAP
000000
000000
0C300E
0EF8EC
0C30CC
0C30CC
1818CC
1818CC
300CCC
3006CC
601BCC
3FFCCC
0318CC
0318CC
0318CC
0618CC
0618CC
06180C
0C180C
0C300C
18300C
33F1FC
60E038
000000
ENDCHAR

STARTCHAR cns4_223C
ENCODING 8764
SWIDTH 960 0
DWIDTH 24 0
BBX 24 24 0 -2
BITMAP
000000
00000E
071C0C
0618EC
0618CC
0618CC
061ACC
3FFFCC
0618CC
0618CC
0618CC
0618CC
0618CC
061ACC
7FFFCC
0618CC
0618CC
0618CC
0C180C
0C180C
18180C
3018FC
601818
000000
ENDCHAR

STARTCHAR cns4_223D
ENCODING 8765
SWIDTH 960 0
DWIDTH 24 0
BBX 24 24 0 -2
BITMAP
000000
000000
00300E
0C380C
0661CC
03C18C
01C18C
03618C
0E318C
38198C
00798C
30618C
18618C
0CC18C
06C18C
03818C
01818C
03C00C
03600C
06300C
0C380C
1819FC
700038
000000
ENDCHAR

STARTCHAR cns4_223E
ENCODING 8766
SWIDTH 960 0
DWIDTH 24 0
BBX 24 24 0 -2
BITMAP
000000
00000E
01C00C
0181CC
01818C
01BD8C
3FE18C
01818C
01818C
01B98C
3FE18C
01818C
01818C
01818C
019D8C
3FF18C
03018C
03018C
06018C
06000C
0C000C
1800FC
300038
000000
ENDCHAR

STARTCHAR cns4_223F
ENCODING 8767
SWIDTH 960 0
DWIDTH 24 0
BBX 24 24 0 -2
BITMAP
000000
0381C0
030180
030180
033180
3FF980
000180
00018C
08CFFE
0FE18C
0CC18C
0CC18C
0CC18C
0CC18C
0CC18C
0CC30C
0CD30C
18D30C
18D618
18D618
307DF8
300C70
603800
000000
ENDCHAR

STARTCHAR cns4_2240
ENCODING 8768
SWIDTH 960 0
DWIDTH 24 0
BBX 24 24 0 -2
BITMAP
000000
000000
1C00E0
1800C0
1800C0
3030C0
3FF8C0
6000CC
0FF7FE
0000CC
00C0CC
3FE0CC
00C0CC
0180CC
03018C
06018C
0C018C
18118C
18130C
30131C
301BF8
183E70
0FF600
000000
ENDCHAR

STARTCHAR cns4_2241
ENCODING 8769
SWIDTH 960 0
DWIDTH 24 0
BBX 24 24 0 -2
BITMAP
000000
00C0E0
01E0C0
0780C0
3F00C0
0300C0
0300C0
0330CC
3FFFFE
03018C
03018C
03018C
03318C
7FF98C
03018C
03018C
03030C
03030C
03030C
03060C
03061C
3F0DF8
0E3870
000000
ENDCHAR

STARTCHAR cns4_2242
ENCODING 8770
SWIDTH 960 0
DWIDTH 24 0
BBX 24 24 0 -2
BITMAP
000000
000000
00F0E0
1380C0
1E00C0
1800C0
1800CC
1807FE
1830CC
1FF8CC
18C0CC
18C0CC
18C0CC
18C18C
18C18C
18C18C
18C30C
18C30C
30C618
30C618
30CC38
60DBF0
60F0E0
000000
ENDCHAR

STARTCHAR cns4_2243
ENCODING 8771
SWIDTH 960 0
DWIDTH 24 0
BBX 24 24 0 -2
BITMAP
000000
20000C
3FFFFE
300000
300180
306FC0
307180
3060C0
30C0C0
30C060
318070
331C38
36181C
303000
303180
3060C0
306060
30C7F0
33FC30
318030
30000C
3FFFFE
300000
000000
ENDCHAR

STARTCHAR cns4_2244
ENCODING 8772
SWIDTH 960 0
DWIDTH 24 0
BBX 24 24 0 -2
BITMAP
000000
000000
001C00
001800
001800
00180C
3FFFFE
001800
039870
031860
031860
035864
3FFFFE
031860
031860
031860
031860
001800
001800
001800
001800
001800
001800
000000
ENDCHAR

STARTCHAR cns4_2245
ENCODING 8773
SWIDTH 960 0
DWIDTH 24 0
BBX 24 24 0 -2
BITMAP
000000
00C018
01E03C
0F01E0
3B0760
030060
030060
030060
030060
030060
03606C
7FF7FE
030060
030060
030060
030060
030060
060060
060060
060060
0C0060
0C0060
180060
000000
ENDCHAR

STARTCHAR cns4_2246
ENCODING 8774
SWIDTH 960 0
DWIDTH 24 0
BBX 24 24 0 -2
BITMAP
000000
1CE000
18C10C
18C1FE
18C18C
18C18C
18C18C
18C18C
1AC98C
1FFD8C
18C18C
18C18C
18C18C
18C18C
18C18C
18C18C
18C58C
18C58C
1BC5BC
1EC798
1CEF80
707D80
200180
000000
ENDCHAR

STARTCHAR cns4_2247
ENCODING 8775
SWIDTH 960 0
DWIDTH 24 0
BBX 24 24 0 -2
BITMAP
000000
000000
10000C
1FFFFE
180E00
180E00
181E00
181B00
183180
1860E0
18C078
19F1FE
1B6198
186180
186180
186180
18C180
18C180
30C180
318180
318180
630180
660180
000000
ENDCHAR

STARTCHAR cns4_2248
ENCODING 8776
SWIDTH 960 0
DWIDTH 24 0
BBX 24 24 0 -2
BITMAP
000000
000000
003800
003000
003000
006000
006060
00C030
018018
3FFFFC
0C000C
00000C
0380C0
0300E0
0300C0
0600C0
060180
06C198
0C630C
0C6306
19F67E
7F3FC6
303606
000000
ENDCHAR

STARTCHAR cns4_2249
ENCODING 8777
SWIDTH 960 0
DWIDTH 24 0
BBX 24 24 0 -2
BITMAP
000000
0000C0
0000E0
078180
00F700
001E00
007F80
03C1E0
1E7060
006018
3FFFFC
00C000
00DC00
019800
019800
033000
063000
0C60C0
386060
00C030
0187F8
0FFC1C
06000C
000000
ENDCHAR

STARTCHAR cns4_224A
ENCODING 8778
SWIDTH 960 0
DWIDTH 24 0
BBX 24 24 0 -2
BITMAP
000000
000000
0380E0
0300C0
0300C0
0600C0
06C1B0
0CC198
18630C
7FEFFC
30660C
010180
01FFC0
018180
018180
018180
018180
018184
030184
030184
060186
1C01CE
7000FC
000000
ENDCHAR

STARTCHAR cns4_224B
ENCODING 8779
SWIDTH 960 0
DWIDTH 24 0
BBX 24 24 0 -2
BITMAP
000000
000030
0003F8
01FE00
3F0060
003070
0618E0
0318C0
031980
000300
0000C0
0FFFE0
0180C0
00C180
00C180
006300
003600
003C00
003E00
00E380
0380E0
0E003E
38001C
000000
ENDCHAR

STARTCHAR cns4_224C
ENCODING 8780
SWIDTH 960 0
DWIDTH 24 0
BBX 24 24 0 -2
BITMAP
000000
000000
001C00
00180C
7FFFFE
0C0000
0C0000
0C0000
0C0000
0C0000
0E0000
07FFF8
000000
020060
03FFF0
030060
030060
030060
030060
030060
030060
03FFE0
030060
000000
ENDCHAR

STARTCHAR cns4_224D
ENCODING 8781
SWIDTH 960 0
DWIDTH 24 0
BBX 24 24 0 -2
BITMAP
000000
000000
000060
3FFFF0
000060
000060
100060
1FFFE0
180068
180008
18000C
1C001C
0FFFF8
000000
080060
0FFFF0
0C0060
0C0060
0C0060
0C0060
0C0060
0FFFE0
0C0060
000000
ENDCHAR

STARTCHAR cns4_224E
ENCODING 8782
SWIDTH 960 0
DWIDTH 24 0
BBX 24 24 0 -2
BITMAP
000000
000000
00000C
7FFFFE
003000
003000
003C00
003700
0031C0
0030C0
003000
003000
003000
103030
1FFFF8
180030
180030
180030
180030
180030
180030
1FFFF0
180030
000000
ENDCHAR

STARTCHAR cns4_224F
ENCODING 8783
SWIDTH 960 0
DWIDTH 24 0
BBX 24 24 0 -2
BITMAP
000000
003800
003000
003000
003000
003030
003FF8
003000
003000
003000
003000
00300C
7FFFFE
000000
080030
0FFFF8
0C0030
0C0030
0C0030
0C0030
0C0030
0FFFF0
0C0030
000000
ENDCHAR

STARTCHAR cns4_2250
ENCODING 8784
SWIDTH 960 0
DWIDTH 24 0
BBX 24 24 0 -2
BITMAP
000000
000000
000018
433FFC
7F8000
630000
630000
630000
63000C
637FFE
630C00
630C00
631818
631FFC
633018
630018
7F0018
630018
000018
000030
000070
0007E0
0001C0
000000
ENDCHAR

STARTCHAR cns4_2251
ENCODING 8785
SWIDTH 960 0
DWIDTH 24 0
BBX 24 24 0 -2
BITMAP
000000
000000
000018
0E0070
0C01C0
0C0700
0C3E00
0D8600
7FC600
0C0600
0C061E
0C07F0
0C7E00
0C2600
0C0600
0DC600
0F0604
1C0604
700604
200606
00070E
0003FC
000000
000000
ENDCHAR

STARTCHAR cns4_2252
ENCODING 8786
SWIDTH 960 0
DWIDTH 24 0
BBX 24 24 0 -2
BITMAP
000000
000000
000060
07FFF0
000060
000060
01FFE0
000060
00006C
7FFFFE
001800
003000
006030
00FFF8
018060
03C0C0
0E6180
383300
001E00
003800
00E000
078000
7C0000
000000
ENDCHAR

STARTCHAR cns4_2253
ENCODING 8787
SWIDTH 960 0
DWIDTH 24 0
BBX 24 24 0 -2
BITMAP
000000
000000
003800
003000
003018
3FFFFC
006300
00C180
0180C0
030E70
0E0C3E
780C18
000C00
018CC0
01CC60
038C30
030C18
060C0C
0C0C0C
180C06
700C06
00FC00
001800
000000
ENDCHAR

STARTCHAR cns4_2254
ENCODING 8788
SWIDTH 960 0
DWIDTH 24 0
BBX 24 24 0 -2
BITMAP
000000
000000
003800
003300
036380
01C600
00C600
006D80
0038C0
0073F0
1FFE38
0C0018
000E00
000C00
000C0C
7FFFFE
001E00
001B00
003180
0060C0
01C070
07003E
3C001C
000000
ENDCHAR

STARTCHAR cns4_2255
ENCODING 8789
SWIDTH 960 0
DWIDTH 24 0
BBX 24 24 0 -2
BITMAP
000000
000000
0E00E0
0C00C0
0C20CC
0C3FFE
0DB000
7FF000
0DB000
19B000
19B000
1B3000
1B3000
333000
363000
3E3000
6C6000
0E6000
0F6000
1BC000
18C000
318000
618000
000000
ENDCHAR

STARTCHAR cns4_2256
ENCODING 8790
SWIDTH 960 0
DWIDTH 24 0
BBX 24 24 0 -2
BITMAP
000000
000000
070000
060018
061FFC
060180
06C180
7FE180
0CC180
0CC180
0CC18C
0CFFFE
198180
198180
398180
2F0180
038180
07C180
06C180
0C0180
180180
301F80
000700
000000
ENDCHAR

STARTCHAR cns4_2257
ENCODING 8791
SWIDTH 960 0
DWIDTH 24 0
BBX 24 24 0 -2
BITMAP
000000
000000
070180
0601C0
060180
060300
06C300
3FE660
0CC670
0CCC60
0CCCC0
1998C0
19B180
19E180
330300
3F0300
030630
078618
06CC0C
0CD8FC
183F86
301806
000000
000000
ENDCHAR

STARTCHAR cns4_2258
ENCODING 8792
SWIDTH 960 0
DWIDTH 24 0
BBX 24 24 0 -2
BITMAP
000000
000000
070000
0601C0
060180
0C3180
0FF980
0C318C
0C3FFE
186318
186318
306630
00C630
00CF60
0181E0
0180F8
03C19C
03670C
06300C
0C1C00
180E00
300786
6001FC
000000
ENDCHAR

STARTCHAR cns4_2259
ENCODING 8793
SWIDTH 960 0
DWIDTH 24 0
BBX 24 24 0 -2
BITMAP
000000
070000
06000C
067FFE
060630
06C630
3FE630
0CC630
0CC630
0CC630
0CC630
198630
198630
198630
3D8630
0F0630
038C30
07CC30
06CC30
0C1830
183030
3061F0
00C060
000000
ENDCHAR

STARTCHAR cns4_225A
ENCODING 8794
SWIDTH 960 0
DWIDTH 24 0
BBX 24 24 0 -2
BITMAP
000000
001C00
001800
10180C
1FFFFE
18000C
1800C8
33FFE0
000000
038000
030030
03FFF8
060030
060030
0C0030
180030
300030
000030
000060
000060
0000E0
000FC0
000180
000000
ENDCHAR

STARTCHAR cns4_225B
ENCODING 8795
SWIDTH 960 0
DWIDTH 24 0
BBX 24 24 0 -2
BITMAP
000000
001C00
001800
001800
10180C
1FFFFE
18000C
18700C
306008
006000
00C060
00FFF0
00C060
0180C0
0180C0
0180C0
030180
03FF80
060180
000180
000300
00030C
7FFFFE
000000
ENDCHAR

STARTCHAR cns4_225C
ENCODING 8796
SWIDTH 960 0
DWIDTH 24 0
BBX 24 24 0 -2
BITMAP
000000
000E00
000C00
000C00
000C00
000C60
000FF0
000C00
000C00
000C00
000C0C
7FFFFE
000C00
030CC0
038C60
070C30
060C18
0C0C18
180C0C
700C0C
000C00
01FC00
003800
000000
ENDCHAR

STARTCHAR cns4_225D
ENCODING 8797
SWIDTH 960 0
DWIDTH 24 0
BBX 24 24 0 -2
BITMAP
000000
070000
060018
060FFC
0600C0
0630C0
7FF8C0
06C0C0
06C0CC
06DFFE
06C0C0
06C0C0
06C0C0
06C0C0
06C0C0
0CC0C0
0CC0C0
0CC0C4
18C7C4
18C186
30E00E
607FFC
000000
000000
ENDCHAR

STARTCHAR cns4_225E
ENCODING 8798
SWIDTH 960 0
DWIDTH 24 0
BBX 24 24 0 -2
BITMAP
000000
000000
080018
0FFFFC
0C0018
0C0018
0C0018
0FFFF8
0C0018
0C0000
0C0000
0D000C
0DFFFE
0D800C
0D800C
0D800C
19800C
19800C
19800C
31800C
31FFFC
61800C
61800C
000000
ENDCHAR

STARTCHAR cns4_225F
ENCODING 8799
SWIDTH 960 0
DWIDTH 24 0
BBX 24 24 0 -2
BITMAP
000000
000060
060070
0300C0
0180C0
01818C
3FFFFE
001800
001800
0E1838
0C1830
0C1830
0C1830
0C1830
0C1830
0FFFF0
0C1830
003000
003000
006000
006000
01C000
070000
000000
ENDCHAR

STARTCHAR cns4_2260
ENCODING 8800
SWIDTH 960 0
DWIDTH 24 0
BBX 24 24 0 -2
BITMAP
000000
000000
070018
061FFC
060180
060180
767180
666180
666180
66618C
667FFE
666180
666180
666180
666180
666180
666180
666180
7FE180
606180
000180
000180
000180
000000
ENDCHAR

STARTCHAR cns4_2261
ENCODING 8801
SWIDTH 960 0
DWIDTH 24 0
BBX 24 24 0 -2
BITMAP
000000
003800
1C3070
183060
183060
183060
1FFFE0
180060
040300
07FF80
060300
060300
06C300
066300
063300
061B00
0C1B00
0C0304
0C0304
180304
180306
30038E
6001FC
000000
ENDCHAR

STARTCHAR cns4_2262
ENCODING 8802
SWIDTH 960 0
DWIDTH 24 0
BBX 24 24 0 -2
BITMAP
000000
030C30
030C30
061860
0630C0
0C30C0
0C1860
060C30
000000
080030
0FFFF8
0C0030
0C0030
0C0030
0C0030
0FFFF0
0C0030
0C0030
0C0030
0C0030
0C0030
0C03F0
0C00E0
000000
ENDCHAR

STARTCHAR cns4_2263
ENCODING 8803
SWIDTH 960 0
DWIDTH 24 0
BBX 24 24 0 -2
BITMAP
000000
000000
000030
003FF8
00C630
7FE630
060630
060630
061630
060E30
060730
0607B0
0607B0
060698
06E618
07861A
7E0C1A
300C1A
00180E
00180E
003006
006000
000000
000000
ENDCHAR

STARTCHAR cns4_2264
ENCODING 8804
SWIDTH 960 0
DWIDTH 24 0
BBX 24 24 0 -2
BITMAP
000000
070000
060018
063FFC
060180
26C180
3FE180
36C180
36C180
36C18C
36FFFE
36C180
36C180
36C180
36C180
36C180
36C180
37C180
060180
060180
060180
060180
060180
000000
ENDCHAR

STARTCHAR cns4_2265
ENCODING 8805
SWIDTH 960 0
DWIDTH 24 0
BBX 24 24 0 -2
BITMAP
000000
070000
06000C
063FFE
06030C
26C30C
3FE30C
36C30C
36DB0C
36CF0C
36C70C
36C30C
36C30C
36C60C
36C60C
36C60C
36CC0C
37CC0C
061818
061818
063038
0663F0
06C0E0
000000
ENDCHAR

STARTCHAR cns4_2266
ENCODING 8806
SWIDTH 960 0
DWIDTH 24 0
BBX 24 24 0 -2
BITMAP
000000
001C00
001800
00180C
7FFFFE
0C0000
0C0000
0C0000
0E0038
07FFF8
001C00
001800
041830
07FFF8
061830
061830
061830
061830
061830
0619F0
001860
001800
001800
000000
ENDCHAR

STARTCHAR cns4_2267
ENCODING 8807
SWIDTH 960 0
DWIDTH 24 0
BBX 24 24 0 -2
BITMAP
000000
000000
030000
030180
030180
063180
063180
063300
0C6318
0C6318
78C618
38DC30
1D8E30
0D8760
0703E0
0300C0
0600C0
06C190
0C619C
18631C
7FF7FE
1C3306
000000
000000
ENDCHAR

STARTCHAR cns4_2268
ENCODING 8808
SWIDTH 960 0
DWIDTH 24 0
BBX 24 24 0 -2
BITMAP
000000
000E00
000C00
080C0C
0FFFFE
0C0000
0C0000
0C0030
0FFFF8
0C0C00
0C0C00
0C0C00
0C0F00
0C0D80
0C0CE0
0C0C60
180C00
180C00
180C00
300C00
300C00
600C00
600C00
000000
ENDCHAR

STARTCHAR cns4_2269
ENCODING 8809
SWIDTH 960 0
DWIDTH 24 0
BBX 24 24 0 -2
BITMAP
000000
000E00
080C0C
0FFFFE
0C0000
0C0000
0C0000
0D0030
0DFFF8
0D8030
0D8030
0D8030
0D8030
0D8030
0D8030
0D8030
198030
198030
198030
31FFF0
318030
618030
600000
000000
ENDCHAR

STARTCHAR cns4_226A
ENCODING 8810
SWIDTH 960 0
DWIDTH 24 0
BBX 24 24 0 -2
BITMAP
000000
018000
7FC030
019FF8
018180
018180
218180
3F8180
318180
30018C
307FFE
318180
3FC180
618180
018180
018180
018180
018180
018180
030180
030180
3F0180
060180
000000
ENDCHAR

STARTCHAR cns4_226B
ENCODING 8811
SWIDTH 960 0
DWIDTH 24 0
BBX 24 24 0 -2
BITMAP
000000
018000
7FC018
019FFC
018180
018180
218180
3F8180
318180
300180
30018C
31BFFE
3FC180
618180
018180
018180
018180
018180
018180
030180
030180
3F1F80
060300
000000
ENDCHAR

STARTCHAR cns4_226C
ENCODING 8812
SWIDTH 960 0
DWIDTH 24 0
BBX 24 24 0 -2
BITMAP
000000
00600C
7FF7FE
00600C
00600C
00600C
20640C
3FE7FC
30660C
300600
300600
30660C
7FF7FE
606C0C
00600C
00600C
00600C
00600C
00600C
00C018
00C018
3FC7F8
038070
000000
ENDCHAR

STARTCHAR cns4_226D
ENCODING 8813
SWIDTH 960 0
DWIDTH 24 0
BBX 24 24 0 -2
BITMAP
000000
060380
070300
0E0300
0C7300
186300
366318
67637C
0663D8
0C7F18
0DF318
1C6318
3C6318
6C6318
0C6318
0C63F8
0C6334
0C6304
0C6304
0C6006
0C700E
0C3FFC
0C0000
000000
ENDCHAR

STARTCHAR cns4_226E
ENCODING 8814
SWIDTH 960 0
DWIDTH 24 0
BBX 24 24 0 -2
BITMAP
000000
060000
070380
0E0300
0C0300
180300
338300
630300
060300
060318
0C7FFC
1C0300
3C0300
6C0300
0C0300
0C0300
0C0300
0C0300
0C0300
0C0300
0C030C
0DFFFE
0C0000
000000
ENDCHAR

STARTCHAR cns4_226F
ENCODING 8815
SWIDTH 960 0
DWIDTH 24 0
BBX 24 24 0 -2
BITMAP
000000
000000
000030
1FFFF8
003030
003030
003030
003030
006030
006030
00C060
018FE0
0701C0
3C0000
00EC00
00C630
08C658
08C04C
18C04C
18C060
30E0E0
307FC0
000000
000000
ENDCHAR

STARTCHAR cns4_2270
ENCODING 8816
SWIDTH 960 0
DWIDTH 24 0
BBX 24 24 0 -2
BITMAP
000000
000000
070700
060600
060600
060C0C
170FFE
17180C
37980C
36F00C
66CC0C
66060C
06030C
06018C
06018C
06000C
06000C
06000C
060018
060018
0607F8
060070
060000
000000
ENDCHAR

STARTCHAR cns4_2271
ENCODING 8817
SWIDTH 960 0
DWIDTH 24 0
BBX 24 24 0 -2
BITMAP
000000
000000
000000
0000C0
07FFE0
000000
000000
000000
000000
000018
3FFFFC
000000
000000
039800
030C18
13060C
13060C
330046
330046
630066
6380E0
01FFC0
000000
000000
ENDCHAR

STARTCHAR cns4_2272
ENCODING 8818
SWIDTH 960 0
DWIDTH 24 0
BBX 24 24 0 -2
BITMAP
000000
00E1C0
00C180
00F1E0
00D9B0
0FFD98
00C180
00C180
00C18C
7FFFFE
000180
000198
00019C
000198
0001B0
0000F0
0000E0
0001E2
0001E2
000362
000632
001C1A
00700E
000000
ENDCHAR

STARTCHAR cns4_2273
ENCODING 8819
SWIDTH 960 0
DWIDTH 24 0
BBX 24 24 0 -2
BITMAP
000000
038000
03080C
030FFE
030C0C
034C0C
3FEC0C
030C0C
030C0C
030C0C
030C0C
03EFFC
038C0C
070C0C
3F0C0C
130C0C
030C0C
030C0C
030C0C
030C0C
030C0C
1F0C7C
060C18
000000
ENDCHAR

STARTCHAR cns4_2274
ENCODING 8820
SWIDTH 960 0
DWIDTH 24 0
BBX 24 24 0 -2
BITMAP
000000
038000
0301C0
030180
030180
03218C
3FFFFE
03318C
03318C
03318C
03318C
03318C
03F18C
07318C
3F318C
13318C
03318C
0331FC
033198
030180
030180
3F0180
0E0180
000000
ENDCHAR

STARTCHAR cns4_2275
ENCODING 8821
SWIDTH 960 0
DWIDTH 24 0
BBX 24 24 0 -2
BITMAP
000000
070018
061FFC
060018
060018
060018
06C018
7FE818
060FF8
060C18
060C00
066C0C
07CFFE
0F180C
7E000C
26000C
06000C
06000C
060018
060018
060030
7E03F0
1C00E0
000000
ENDCHAR

STARTCHAR cns4_2276
ENCODING 8822
SWIDTH 960 0
DWIDTH 24 0
BBX 24 24 0 -2
BITMAP
000000
070070
060060
060060
060060
060060
06C060
7FE06C
061FFE
060060
060060
06C060
07B060
0E1860
7E0C60
360C60
060060
060060
060060
060060
060060
7E0FE0
1C01C0
000000
ENDCHAR

STARTCHAR cns4_2277
ENCODING 8823
SWIDTH 960 0
DWIDTH 24 0
BBX 24 24 0 -2
BITMAP
000000
0001C0
1C0180
180180
180180
18018C
187FFE
180180
180180
1B0180
1F81B0
183FF8
181830
181830
180C60
180C60
1806C0
198380
1F0380
1C06C0
181C70
00703E
01C018
000000
ENDCHAR

STARTCHAR cns4_2278
ENCODING 8824
SWIDTH 960 0
DWIDTH 24 0
BBX 24 24 0 -2
BITMAP
000000
040030
07FFF8
060030
060030
060030
07FFF0
060030
060030
060030
07FFF0
060030
000000
038000
030000
030080
0301C0
03FFE0
030008
030008
03000C
03801C
01FFF8
000000
ENDCHAR

STARTCHAR cns4_2279
ENCODING 8825
SWIDTH 960 0
DWIDTH 24 0
BBX 24 24 0 -2
BITMAP
000000
000000
000380
000300
418300
7FC300
61830C
61BFFE
61830C
61830C
61830C
7F830C
61830C
61860C
61860C
61860C
618C0C
618C0C
7F9818
619818
003038
0067F0
00C0E0
000000
ENDCHAR

STARTCHAR cns4_227A
ENCODING 8826
SWIDTH 960 0
DWIDTH 24 0
BBX 24 24 0 -2
BITMAP
000000
01C01C
018018
018398
018318
018318
01B318
1FFB18
038318
038318
03C318
07E318
07B318
07B318
0D8318
0D8318
198318
318318
018018
018018
018018
0181F8
018070
000000
ENDCHAR

STARTCHAR cns4_227B
ENCODING 8827
SWIDTH 960 0
DWIDTH 24 0
BBX 24 24 0 -2
BITMAP
000000
0400C0
07FFE0
0600C0
0600C0
0600C0
0601C8
061F88
060708
06000C
03001C
01FFF8
001800
00180C
7FFFFE
003E00
007B00
00D9C0
0198F0
07187E
1C1838
701800
001800
000000
ENDCHAR

STARTCHAR cns4_227C
ENCODING 8828
SWIDTH 960 0
DWIDTH 24 0
BBX 24 24 0 -2
BITMAP
000000
000000
00C00C
3FEFFE
060300
060300
060300
0CC300
0FE600
18C60C
18CFFE
30CC0C
39800C
6D800C
07800C
03000C
030018
060018
060018
0C0030
180030
3007E0
0000C0
000000
ENDCHAR

STARTCHAR cns4_227D
ENCODING 8829
SWIDTH 960 0
DWIDTH 24 0
BBX 24 24 0 -2
BITMAP
000000
000380
00C300
3FE300
060300
060300
060300
0CC300
0FE300
0CC300
08C300
18C700
198780
3D8780
6786C0
030CC0
030C60
061860
061830
0C3038
18601C
30C01E
03800C
000000
ENDCHAR

STARTCHAR cns4_227E
ENCODING 8830
SWIDTH 960 0
DWIDTH 24 0
BBX 24 24 0 -2
BITMAP
000000
0000C0
0003E0
003E00
1FE070
007FC0
1FE000
007FE8
7FE008
00600C
00701C
003FF8
000000
00E700
00C600
00C600
00C600
00C604
018604
018604
030606
0E070E
3803FC
000000
ENDCHAR

STARTCHAR cns4_2321
ENCODING 8993
SWIDTH 960 0
DWIDTH 24 0
BBX 24 24 0 -2
BITMAP
000000
0000C0
08FFF0
0F8600
0C0600
0C0630
0FFFF8
0C0600
0C0300
0C0300
0C7988
3FC188
181CD8
001878
00180C
3FFFFE
001800
001800
001800
001800
001800
001800
001800
000000
ENDCHAR

STARTCHAR cns4_2322
ENCODING 8994
SWIDTH 960 0
DWIDTH 24 0
BBX 24 24 0 -2
BITMAP
000000
000000
18000C
0CFFFE
00060C
00060C
01060C
01060C
33360C
1B1E0C
030E0C
06060C
06060C
06060C
0C0C0C
0C0C0C
3C1818
0C1818
0C3018
0C3030
0C63F0
0DC0E0
000000
000000
ENDCHAR

STARTCHAR cns4_2323
ENCODING 8995
SWIDTH 960 0
DWIDTH 24 0
BBX 24 24 0 -2
BITMAP
000000
000000
0C0070
0600C0
030180
030300
000600
000C00
333838
1B0060
1B00C0
030180
060300
060E00
06381C
0C0030
1C0060
3C00C0
0C0180
0C0700
0E1C00
0E7000
0C0000
000000
ENDCHAR

STARTCHAR cns4_2324
ENCODING 8996
SWIDTH 960 0
DWIDTH 24 0
BBX 24 24 0 -2
BITMAP
000000
000000
000300
1FFF80
00C300
00C318
00C3FC
00C618
018018
018038
0319F0
0E1860
381800
021C70
021DC0
063700
0C3600
0C6300
00C1C0
0180F0
07007C
1C0030
000000
000000
ENDCHAR

STARTCHAR cns4_2325
ENCODING 8997
SWIDTH 960 0
DWIDTH 24 0
BBX 24 24 0 -2
BITMAP
000000
003800
003000
003800
006C00
006600
00C300
018180
0300E0
060078
1C1C3E
711818
0118C0
0318E0
031980
063F00
063C00
006600
006300
00C1C0
0380F0
0E007E
380030
000000
ENDCHAR

STARTCHAR cns4_2326
ENCODING 8998
SWIDTH 960 0
DWIDTH 24 0
BBX 24 24 0 -2
BITMAP
000000
01C01C
018018
0D8618
0F8618
0D8618
0DB618
1FFE18
198618
198618
318618
318618
01E618
038618
1F8638
0987F8
018718
019C18
018018
018018
018018
018018
018018
000000
ENDCHAR

STARTCHAR cns4_2327
ENCODING 8999
SWIDTH 960 0
DWIDTH 24 0
BBX 24 24 0 -2
BITMAP
000000
000C00
00CE00
198C00
0F0C00
061800
0E180C
3B1FFE
03300C
01E00C
03800C
038C0C
07860C
0D830C
19830C
31800C
01800C
01800C
018018
018018
030038
3F03F0
060060
000000
ENDCHAR

STARTCHAR cns4_2328
ENCODING 9000
SWIDTH 960 0
DWIDTH 24 0
BBX 24 24 0 -2
BITMAP
000000
000000
01C078
3180E0
1B0380
0E0F00
1E3B00
360300
030300
030300
070318
07BFFC
0D8300
198300
318300
018300
018304
018304
030304
030306
07038E
3E01FC
0C0000
000000
ENDCHAR

STARTCHAR cns4_2329
ENCODING 9001
SWIDTH 960 0
DWIDTH 24 0
BBX 24 24 0 -2
BITMAP
000000
00001C
000018
00CE18
3FEC18
060C18
060C18
060C18
060C18
06CC18
3FEC18
060C18
060C18
060C18
060C18
06EC78
078DD8
077F18
3C3018
100018
000018
000018
000018
000000
ENDCHAR

STARTCHAR cns4_232A
ENCODING 9002
SWIDTH 960 0
DWIDTH 24 0
BBX 24 24 0 -2
BITMAP
000000
000000
00C0C0
3FE7E0
0600C0
061CC0
0618C0
0618C0
0618C0
0698C0
3FD8C0
0618C0
061860
063060
063060
063060
063070
07E030
0E6038
78C018
30C01C
01800E
030004
000000
ENDCHAR

STARTCHAR cns4_232B
ENCODING 9003
SWIDTH 960 0
DWIDTH 24 0
BBX 24 24 0 -2
BITMAP
000000
003800
003000
006000
00C000
118018
1FFFFC
181818
181818
181818
181818
181818
181818
1FFFF8
181818
181818
181818
181818
181818
181818
1FFFF8
180018
180018
000000
ENDCHAR

STARTCHAR cns4_232C
ENCODING 9004
SWIDTH 960 0
DWIDTH 24 0
BBX 24 24 0 -2
BITMAP
000000
000000
0000E0
0180C0
00C180
00C180
000318
1FFFFC
001800
001800
001800
001800
001860
07FFF0
001800
001800
001800
001800
001800
001800
00180C
7FFFFE
000000
000000
ENDCHAR

STARTCHAR cns4_232D
ENCODING 9005
SWIDTH 960 0
DWIDTH 24 0
BBX 24 24 0 -2
BITMAP
000000
018000
01C600
018300
030180
0300C0
060070
0C0038
18001E
37FFEC
060060
06E060
063860
060E60
060060
060360
061C60
06F060
064060
060060
060060
0607E0
0600C0
000000
ENDCHAR

STARTCHAR cns4_232E
ENCODING 9006
SWIDTH 960 0
DWIDTH 24 0
BBX 24 24 0 -2
BITMAP
000000
0700E0
0600C0
0660CC
3FF7FE
0600C0
0600C0
000000
0000E0
0700C0
0600C0
0600C0
0600C0
0600C0
0600C0
07FFC0
0600C0
0600C0
0000C0
0000C0
0000C0
0000C0
0000C0
000000
ENDCHAR

STARTCHAR cns4_232F
ENCODING 9007
SWIDTH 960 0
DWIDTH 24 0
BBX 24 24 0 -2
BITMAP
000000
0700E0
0600C0
0660CC
3FF7FE
0600C0
0600C0
000000
008180
00FFC0
00C180
00C180
00C180
00C180
018180
018180
018180
018184
030184
030184
060186
0C01CE
3800FC
000000
ENDCHAR

STARTCHAR cns4_2330
ENCODING 9008
SWIDTH 960 0
DWIDTH 24 0
BBX 24 24 0 -2
BITMAP
000000
000000
380000
0E0060
067FF0
000660
000660
060660
3F0CCC
060CFE
0C0D8C
0C0C0C
1B180C
1F980C
1B180C
03300C
03301C
0661F8
06C070
7C0000
1F0000
31FFFE
000000
000000
ENDCHAR

STARTCHAR cns4_2331
ENCODING 9009
SWIDTH 960 0
DWIDTH 24 0
BBX 24 24 0 -2
BITMAP
000000
038418
0307FC
030618
030618
030630
036630
3FF660
030660
0306C0
0306C0
037660
03C630
070618
3F0618
1B060C
03060C
03061C
0306F8
030630
030600
3F0600
0E0600
000000
ENDCHAR

STARTCHAR cns4_2332
ENCODING 9010
SWIDTH 960 0
DWIDTH 24 0
BBX 24 24 0 -2
BITMAP
000000
00190C
007DFE
03C18C
3F818C
018198
018198
018198
0181B0
0181E0
0199B0
3FFD98
01818C
01818C
018186
018186
018186
01818E
0181FC
018198
018180
018180
018180
000000
ENDCHAR

STARTCHAR cns4_2333
ENCODING 9011
SWIDTH 960 0
DWIDTH 24 0
BBX 24 24 0 -2
BITMAP
000000
000418
0387FC
030618
060618
060630
0CE630
38C660
198660
0D86C0
070660
030630
067630
0C6618
7FE618
30C60C
00C60C
01861C
0187F8
030670
060600
0C0600
380600
000000
ENDCHAR

STARTCHAR cns4_2334
ENCODING 9012
SWIDTH 960 0
DWIDTH 24 0
BBX 24 24 0 -2
BITMAP
000000
230000
3F8030
333FF8
330300
360300
360300
360300
3C0300
36030C
367FFE
330300
330300
318300
318300
338300
3F0300
360300
300300
300300
300300
300300
300300
000000
ENDCHAR

STARTCHAR cns4_2335
ENCODING 9013
SWIDTH 960 0
DWIDTH 24 0
BBX 24 24 0 -2
BITMAP
000000
000000
00000C
7FFFFE
00C600
00C600
20C618
3FC7FC
30C618
30C618
30C618
30C618
30C618
3FC7F8
30C618
00C600
018600
018600
030600
030600
060600
0C0600
380600
000000
ENDCHAR

STARTCHAR cns4_2336
ENCODING 9014
SWIDTH 960 0
DWIDTH 24 0
BBX 24 24 0 -2
BITMAP
000000
01C1C0
018180
018180
018180
018D80
7FFF80
018180
018180
018180
019980
1FFD80
000180
000180
100D80
1FFF80
180D80
180D84
180D84
180D86
1FFDCE
180CFC
180000
000000
ENDCHAR

STARTCHAR cns4_2337
ENCODING 9015
SWIDTH 960 0
DWIDTH 24 0
BBX 24 24 0 -2
BITMAP
000000
001C00
001800
001818
1FFFFC
006000
006000
00C060
00C030
018FF8
3FF818
180018
039CE0
0318C0
0318C0
0318C0
0318C0
0318C4
0618C4
0618C4
0C18C6
1818E6
30187C
000000
ENDCHAR

STARTCHAR cns4_2338
ENCODING 9016
SWIDTH 960 0
DWIDTH 24 0
BBX 24 24 0 -2
BITMAP
000000
030380
038300
030300
030300
06030C
06FFFE
060300
0C0300
0C0300
1C0318
3C7FFC
6C0700
0C0F80
0C0F80
0C1BC0
0C1B60
0C3338
0C631E
0DC30C
0C0300
0C0300
0C0300
000000
ENDCHAR

STARTCHAR cns4_2339
ENCODING 9017
SWIDTH 960 0
DWIDTH 24 0
BBX 24 24 0 -2
BITMAP
000000
060000
077000
06600C
0667FE
0E618C
0C6D8C
0DFF8C
1CD98C
1CD998
3CD998
3D9998
6D98D8
0DB0F0
0DB0F0
0FE060
0C70E0
0C70F0
0CD9B0
0CD998
0D830C
0F0606
0C1C06
000000
ENDCHAR

STARTCHAR cns4_233A
ENCODING 9018
SWIDTH 960 0
DWIDTH 24 0
BBX 24 24 0 -2
BITMAP
000000
001800
003C00
006600
00C300
018180
0300E0
0E003E
7C006C
07FFF0
061860
061860
07FFE0
061860
061860
07FFE0
061860
001800
001800
001800
001800
001800
001800
000000
ENDCHAR

STARTCHAR cns4_233B
ENCODING 9019
SWIDTH 960 0
DWIDTH 24 0
BBX 24 24 0 -2
BITMAP
000000
000000
0001F8
087F00
0FE000
0C1C00
0C1800
0C1860
0C1FF0
0C1800
0C1800
0C1818
0FFFFC
183180
183180
183180
186180
306188
30C188
60C18C
6181CC
0700F8
000000
000000
ENDCHAR

STARTCHAR cns4_233C
ENCODING 9020
SWIDTH 960 0
DWIDTH 24 0
BBX 24 24 0 -2
BITMAP
000000
000000
004018
307FFC
186318
0C6318
0C6318
036318
037FF8
066318
066318
066318
0C6318
0C7FF8
0C6318
186318
780300
180300
180300
180300
1C0300
1C0300
180300
000000
ENDCHAR

STARTCHAR cns4_233D
ENCODING 9021
SWIDTH 960 0
DWIDTH 24 0
BBX 24 24 0 -2
BITMAP
000000
002018
303FFC
183018
0C3018
0C3018
003018
013FF8
033198
033180
063180
06318C
0C3FFE
0C3180
1830C0
3830C0
1830C0
183062
1833E2
1C3E32
1C301A
19E00E
188000
000000
ENDCHAR

STARTCHAR cns4_233E
ENCODING 9022
SWIDTH 960 0
DWIDTH 24 0
BBX 24 24 0 -2
BITMAP
000000
01C000
01800E
01800C
118CEC
1FFCCC
198CCC
1988CC
1980CC
1980CC
1998CC
1FFCCC
1818CC
1E18CC
1B30CC
19B0CC
30E0CC
30F0CC
31F80C
31980C
33000C
6600FC
1C0018
000000
ENDCHAR

STARTCHAR cns4_233F
ENCODING 9023
SWIDTH 960 0
DWIDTH 24 0
BBX 24 24 0 -2
BITMAP
000000
01C000
01801C
0181D8
018198
018198
019998
01FD98
018198
018198
018198
018198
218D98
3FFF98
300D98
300D98
300D98
300C18
300C18
300C18
300C18
3FFDF8
300C70
000000
ENDCHAR

STARTCHAR cns4_2340
ENCODING 9024
SWIDTH 960 0
DWIDTH 24 0
BBX 24 24 0 -2
BITMAP
000000
000000
01C00E
0180EC
03C0CC
0370CC
0618CC
0C0ECC
1830CC
37F8CC
0000CC
0000CC
0018CC
3FFCCC
0018CC
0030CC
1860CC
0CC00C
07800C
03000C
01800C
01C1FC
00C038
000000
ENDCHAR

STARTCHAR cns4_2341
ENCODING 9025
SWIDTH 960 0
DWIDTH 24 0
BBX 24 24 0 -2
BITMAP
000000
000000
0E000E
0C000C
0C00EC
0C18CC
1FFCCC
1818CC
1818CC
38D8CC
3FF8CC
6CD8CC
0CD8CC
0CD8CC
0CD8CC
0FD8CC
0CD8CC
0C18CC
00180C
00380C
00700C
03E0FC
000018
000000
ENDCHAR

STARTCHAR cns4_2342
ENCODING 9026
SWIDTH 960 0
DWIDTH 24 0
BBX 24 24 0 -2
BITMAP
000000
000000
087C0E
0FD8EC
0D98CC
0D98CC
0D98CC
0D98CC
0D98CC
0D98CC
0D98CC
0D98CC
0D98CC
0D98CC
0D8CCC
0D8CCC
0D8CCC
19E60C
19B60C
19F70C
379B8C
3219FC
000018
000000
ENDCHAR

STARTCHAR cns4_2343
ENCODING 9027
SWIDTH 960 0
DWIDTH 24 0
BBX 24 24 0 -2
BITMAP
000000
00E000
00C00E
00C00C
00C0EC
00D8CC
0FFCCC
00C0CC
00C0CC
00C0CC
00CCCC
3FFECC
00C0CC
01E0CC
03E0CC
03F0CC
06D8CC
0CCE0C
18C00C
30C00C
00C00C
00C0FC
00C038
000000
ENDCHAR

STARTCHAR cns4_2344
ENCODING 9028
SWIDTH 960 0
DWIDTH 24 0
BBX 24 24 0 -2
BITMAP
000000
06E000
06C0E0
06C0C0
06D8C0
3FFCC0
06D8CC
06DFFE
26D98C
3FF98C
36D98C
36C18C
36C18C
36D98C
7FFD8C
66D98C
06DB18
0CDB18
0CFB18
18C618
18C630
30CDF0
60D860
000000
ENDCHAR

STARTCHAR cns4_2345
ENCODING 9029
SWIDTH 960 0
DWIDTH 24 0
BBX 24 24 0 -2
BITMAP
000000
000000
0701C0
060180
060180
06018C
066FFE
3FF300
066300
066300
066600
066618
0667FC
066CC0
0C6CC0
0C6CC0
0C78C0
1860C0
1860C0
30C0C0
31C0CC
6F9FFE
630000
000000
ENDCHAR

STARTCHAR cns4_2346
ENCODING 9030
SWIDTH 960 0
DWIDTH 24 0
BBX 24 24 0 -2
BITMAP
000000
000000
0061C0
3FF180
060180
060180
060180
06018C
0C1FFE
0C630C
0FF30C
1C630C
1C630C
3C630C
6C630C
0C660C
0C660C
0C660C
0FEC0C
0C6C1C
0C19F8
0C3030
000000
000000
ENDCHAR

STARTCHAR cns4_2347
ENCODING 9031
SWIDTH 960 0
DWIDTH 24 0
BBX 24 24 0 -2
BITMAP
000000
000000
0001C0
070180
060180
060180
26C180
3FE198
30CFFC
30C318
30C318
30C318
30C318
3FC318
30C318
30C618
30C618
30C618
3FCC18
30CC38
001BF0
0030E0
006000
000000
ENDCHAR

STARTCHAR cns4_2348
ENCODING 9032
SWIDTH 960 0
DWIDTH 24 0
BBX 24 24 0 -2
BITMAP
000000
100C70
1FFE60
180060
181860
1FFC60
18006C
18E3FE
18C06C
18C06C
18CC6C
1FFE6C
18CC6C
18CC6C
18CC6C
18CCCC
198CCC
318CCC
318D8C
331D8C
337B0C
66337C
6C0618
000000
ENDCHAR

STARTCHAR cns4_2349
ENCODING 9033
SWIDTH 960 0
DWIDTH 24 0
BBX 24 24 0 -2
BITMAP
000000
0000E0
0000C0
0030C0
3FF8C0
0030C0
0E60CC
03CFFE
01C0CC
0360CC
0E30CC
79F0CC
01818C
01818C
01B18C
1FF98C
01830C
01830C
01860C
01F60C
1F0C1C
0819F8
007030
000000
ENDCHAR

STARTCHAR cns4_234A
ENCODING 9034
SWIDTH 960 0
DWIDTH 24 0
BBX 24 24 0 -2
BITMAP
000000
000000
200018
3FFFFC
300000
310060
31FFF0
318060
318060
318060
318060
318060
31FFE0
318060
303300
306180
30C0C0
318070
370030
30000C
3FFFFE
300000
000000
000000
ENDCHAR

STARTCHAR cns4_234B
ENCODING 9035
SWIDTH 960 0
DWIDTH 24 0
BBX 24 24 0 -2
BITMAP
000000
000000
200018
3FFFFC
306000
307180
30E0C0
318060
370038
3C001C
3100C0
31FFE0
3180C0
3180C0
3180C0
3180C0
3180C0
31FFC0
3180C0
30000C
3FFFFE
300000
300000
000000
ENDCHAR

STARTCHAR cns4_234C
ENCODING 9036
SWIDTH 960 0
DWIDTH 24 0
BBX 24 24 0 -2
BITMAP
000000
0001C0
001980
7FFD80
061980
061980
061980
061980
0C3180
0C3180
1861E0
33E1B8
60C18C
20318C
3FF980
303180
303180
303180
303180
303180
3FF180
303180
000180
000000
ENDCHAR

STARTCHAR cns4_234D
ENCODING 9037
SWIDTH 960 0
DWIDTH 24 0
BBX 24 24 0 -2
BITMAP
000000
003800
003000
003060
003FF0
003000
103018
1FFFFC
180018
1801D8
180198
18C318
186318
183618
181C18
181E18
183718
186398
19C1D8
1F00D8
180018
1FFFF8
180018
000000
ENDCHAR

STARTCHAR cns4_234E
ENCODING 9038
SWIDTH 960 0
DWIDTH 24 0
BBX 24 24 0 -2
BITMAP
000000
000000
01808C
00CCFE
006ECC
006CCC
0398CC
0318CC
0318CC
0330CC
0B30CC
0B60CC
1B6CCC
1BC6CC
3387CC
3303CC
0703CC
0708CC
0F08FC
1B0CD8
739CC0
01F8C0
0000C0
000000
ENDCHAR

STARTCHAR cns4_234F
ENCODING 9039
SWIDTH 960 0
DWIDTH 24 0
BBX 24 24 0 -2
BITMAP
000000
001C00
001800
00180C
7FFFFE
001800
041860
07FFF0
061860
061860
07FFE0
001800
001830
1FFFF8
00C060
0060C0
006180
003300
001E00
003F00
00E3C0
0780FE
3C0070
000000
ENDCHAR

STARTCHAR cns4_2350
ENCODING 9040
SWIDTH 960 0
DWIDTH 24 0
BBX 24 24 0 -2
BITMAP
000000
100018
1FFFFC
180018
19FF18
198318
198318
19FF18
198098
1980D8
19C1D8
18FF98
000030
0FFFF8
018060
00C0C0
006180
003300
001E00
001F00
0073C0
03C0FE
3E0038
000000
ENDCHAR

STARTCHAR cns4_2351
ENCODING 9041
SWIDTH 960 0
DWIDTH 24 0
BBX 24 24 0 -2
BITMAP
000000
0001C0
000180
000180
218180
3FD18C
319FFE
31998C
31B188
318180
3183E0
3183C0
3183C0
3183C0
3187C0
3186C0
3F86C0
318CC4
000CC4
0018C4
0030C6
0060E6
01C07C
000000
ENDCHAR

STARTCHAR cns4_2352
ENCODING 9042
SWIDTH 960 0
DWIDTH 24 0
BBX 24 24 0 -2
BITMAP
000000
000000
000018
007FFC
000180
230180
3F8180
33218C
333FFE
33318C
33318C
33318C
33318C
33318C
33318C
33318C
3F318C
33318C
00318C
0031FC
003198
000180
000180
000000
ENDCHAR

STARTCHAR cns4_2353
ENCODING 9043
SWIDTH 960 0
DWIDTH 24 0
BBX 24 24 0 -2
BITMAP
000000
000000
000060
0000F0
2183C0
3FCF00
31BB00
318330
318338
3187E0
31FF00
318300
31830C
31831E
318FF0
31FB00
3F8300
318304
000304
000304
000306
00038E
0001FC
000000
ENDCHAR

STARTCHAR cns4_2354
ENCODING 9044
SWIDTH 960 0
DWIDTH 24 0
BBX 24 24 0 -2
BITMAP
000000
000000
000038
0000E0
218380
3FDF80
318180
318180
318180
318180
31818C
31BFFE
318380
3183C0
3183C0
3F8360
318660
318660
000C30
000C30
001818
00301E
00600C
000000
ENDCHAR

STARTCHAR cns4_2355
ENCODING 9045
SWIDTH 960 0
DWIDTH 24 0
BBX 24 24 0 -2
BITMAP
000000
000000
000E00
000C00
000C00
23180C
3F9FFE
33300C
33300C
33670C
33060C
33060C
33060C
330D8C
330CCC
331BEC
3F3E6C
331018
000018
000018
000030
0003F0
0000E0
000000
ENDCHAR

STARTCHAR cns4_2356
ENCODING 9046
SWIDTH 960 0
DWIDTH 24 0
BBX 24 24 0 -2
BITMAP
000000
0018C0
001DE0
0018C0
233040
3FB060
336030
33C018
33806E
333FF0
330C00
330C00
330C00
331860
331FF0
3F3060
330060
000060
000060
000060
0000E0
003FC0
000380
000000
ENDCHAR

STARTCHAR cns4_2357
ENCODING 9047
SWIDTH 960 0
DWIDTH 24 0
BBX 24 24 0 -2
BITMAP
000000
000000
00007E
0047E0
237C00
3FE00C
337FFE
33600C
33600C
33600C
337FFC
33600C
336000
336000
336000
3F6000
336000
00C000
00C000
018000
018000
030000
060000
000000
ENDCHAR

STARTCHAR cns4_2358
ENCODING 9048
SWIDTH 960 0
DWIDTH 24 0
BBX 24 24 0 -2
BITMAP
000000
000000
00200C
003FFE
21B000
3FF000
31B000
31B000
31B018
31BFFC
31B618
31B618
31B630
31B330
3FB360
31B360
31B1C0
0031C0
0063E0
006670
00DC3C
01B018
000000
000000
ENDCHAR

STARTCHAR cns4_2359
ENCODING 9049
SWIDTH 960 0
DWIDTH 24 0
BBX 24 24 0 -2
BITMAP
000000
000000
001C60
001830
219818
3FF00C
31B006
31E03E
319830
319830
31BC60
31EC60
318660
3186C0
3183C0
3F8180
3183C0
3003C0
000660
000C30
001838
00301E
00E00C
000000
ENDCHAR

STARTCHAR cns4_235A
ENCODING 9050
SWIDTH 960 0
DWIDTH 24 0
BBX 24 24 0 -2
BITMAP
000000
0000C0
0007F0
047C00
07CC00
060C00
060618
07FFFC
060600
063B02
06E182
0780C2
3E0076
1A00DE
03FFE0
0300C0
0300C0
0300C0
0300C0
0300C0
0300C0
03FFC0
0300C0
000000
ENDCHAR

STARTCHAR cns4_235B
ENCODING 9051
SWIDTH 960 0
DWIDTH 24 0
BBX 24 24 0 -2
BITMAP
000000
000000
040060
07FFF0
060060
060060
060060
060060
07FFE0
060060
000000
000000
000030
1FFFF8
001800
001800
001860
0FFFF0
001800
001800
001800
00180C
7FFFFE
000000
ENDCHAR

STARTCHAR cns4_235C
ENCODING 9052
SWIDTH 960 0
DWIDTH 24 0
BBX 24 24 0 -2
BITMAP
000000
000000
000018
233FFC
3F8660
330660
330660
330660
330660
33066C
33FFFE
330660
330660
330660
330660
3F0C60
330C60
300C60
001860
001860
003060
006060
00C060
000000
ENDCHAR

STARTCHAR cns4_235D
ENCODING 9053
SWIDTH 960 0
DWIDTH 24 0
BBX 24 24 0 -2
BITMAP
000000
004000
00EE00
01CC00
038C00
070C30
0F0FF8
3B0C00
030C04
030C04
030C06
030E0E
0303FC
000000
020030
03FFF8
030030
030030
030030
030030
030030
03FFF0
030030
000000
ENDCHAR

STARTCHAR cns4_235E
ENCODING 9054
SWIDTH 960 0
DWIDTH 24 0
BBX 24 24 0 -2
BITMAP
000000
070E70
060C60
060C60
060C60
060C60
060C64
06BFFE
3FCC60
060C60
060C60
060C60
060C60
060C64
067FFE
07D860
071860
3C1860
183060
003060
006060
00C060
018060
000000
ENDCHAR

STARTCHAR cns4_235F
ENCODING 9055
SWIDTH 960 0
DWIDTH 24 0
BBX 24 24 0 -2
BITMAP
000000
000180
070FC0
060180
060180
060180
06218C
063FFE
3FB18C
06318C
06338C
0633CC
0633CC
06366C
06366C
063C3C
07B00C
7E300C
30300C
00300C
00300C
0030FC
003038
000000
ENDCHAR

STARTCHAR cns4_2360
ENCODING 9056
SWIDTH 960 0
DWIDTH 24 0
BBX 24 24 0 -2
BITMAP
000000
000000
0000C0
07FFE0
031800
031800
061860
07FFF0
0C3000
003700
003604
006604
00C606
01870E
0703FC
1C1C00
001800
001860
0FFFF0
001800
001800
00180C
7FFFFE
000000
ENDCHAR

STARTCHAR cns4_2361
ENCODING 9057
SWIDTH 960 0
DWIDTH 24 0
BBX 24 24 0 -2
BITMAP
000000
000000
000018
3FFFFC
000000
038E38
030C30
061860
0C30C0
186180
0C30C0
061860
030C30
030C18
000000
001C00
001830
1FFFF8
001800
001800
00180C
7FFFFE
000000
000000
ENDCHAR

STARTCHAR cns4_2362
ENCODING 9058
SWIDTH 960 0
DWIDTH 24 0
BBX 24 24 0 -2
BITMAP
000000
000000
003800
003000
00300C
3FFFFE
006300
00C180
0180E0
070070
3C003E
08003C
0FFFF0
0C1830
0C1830
0C1830
0FFFF0
0C0034
0C0004
0C0006
0E000E
07FFFC
000000
000000
ENDCHAR

STARTCHAR cns4_2363
ENCODING 9059
SWIDTH 960 0
DWIDTH 24 0
BBX 24 24 0 -2
BITMAP
000000
000000
007000
006000
006018
3FFFFC
00C300
018180
031CC0
061870
1C1BFE
701E18
0FF800
001800
071870
061860
061860
07FFE0
061864
001804
001806
001C0E
000FFC
000000
ENDCHAR

STARTCHAR cns4_2364
ENCODING 9060
SWIDTH 960 0
DWIDTH 24 0
BBX 24 24 0 -2
BITMAP
000000
000000
003800
003000
003018
3FFFFC
006300
00DD80
01B4C0
033670
0E633E
78C19C
0180E0
07E3B8
1CC300
00C300
00C300
00C300
018300
018300
030300
060300
1C0300
000000
ENDCHAR

STARTCHAR cns4_2365
ENCODING 9061
SWIDTH 960 0
DWIDTH 24 0
BBX 24 24 0 -2
BITMAP
000000
000000
001C00
001800
001800
00180C
3FFFFE
001800
0718E0
031860
0718F0
079998
0CDF0C
187C00
001E00
003600
003300
006180
00C1C0
0180F0
03007E
0E0030
380000
000000
ENDCHAR

STARTCHAR cns4_2366
ENCODING 9062
SWIDTH 960 0
DWIDTH 24 0
BBX 24 24 0 -2
BITMAP
000000
003800
003000
003000
00600C
3FFFFE
00C300
018180
0300C0
060070
1DFFBE
70601C
006000
00C180
00FFC0
018180
018180
030300
03FF00
060300
000600
000618
1FFFFC
000000
ENDCHAR

STARTCHAR cns4_2367
ENCODING 9063
SWIDTH 960 0
DWIDTH 24 0
BBX 24 24 0 -2
BITMAP
000000
0701C0
060180
060180
060180
06C180
3FE1B0
0CDFF8
0CC180
0CC180
0CC180
19818C
19BFFE
318180
3B0380
0F03C0
038360
078630
06C618
0CCC0C
180C0C
301806
007006
000000
ENDCHAR

STARTCHAR cns4_2368
ENCODING 9064
SWIDTH 960 0
DWIDTH 24 0
BBX 24 24 0 -2
BITMAP
000000
000000
0061C0
1FF180
036180
03618C
037FFE
036198
036198
066318
066318
3FFB18
066318
066630
066630
066FB0
066CE0
0C60F0
0CC0D8
0CC18C
0CD186
7FFB06
000606
000000
ENDCHAR

STARTCHAR cns4_2369
ENCODING 9065
SWIDTH 960 0
DWIDTH 24 0
BBX 24 24 0 -2
BITMAP
000000
000000
071018
061FFC
061998
06D998
3FF998
0CD998
0CD998
0CD998
18D998
199998
199FF8
199818
399800
271800
039800
039804
06D804
0CD806
181C0E
300FFC
000000
000000
ENDCHAR

STARTCHAR cns4_236A
ENCODING 9066
SWIDTH 960 0
DWIDTH 24 0
BBX 24 24 0 -2
BITMAP
000000
0E01C0
0C0180
0C0180
0C0180
0D8180
7FE18C
19BFFE
19B18C
19B18C
19B18C
33318C
33318C
33318C
7B3FFC
0E318C
070180
070180
0D8180
18C180
300180
600180
000180
000000
ENDCHAR

STARTCHAR cns4_236B
ENCODING 9067
SWIDTH 960 0
DWIDTH 24 0
BBX 24 24 0 -2
BITMAP
000000
000000
0E0460
0C07F0
0C0660
0D8660
7FC662
198C62
198C76
19983E
19B000
330000
330018
333FFC
7B0C18
0E0630
070660
0703C0
0D8180
18C3C0
300E70
60381E
00E00C
000000
ENDCHAR

STARTCHAR cns4_236C
ENCODING 9068
SWIDTH 960 0
DWIDTH 24 0
BBX 24 24 0 -2
BITMAP
000000
0000C0
0781E0
00E380
003600
003E00
01E380
1F70E0
00600C
7FFFFE
00C000
00C000
018060
03FFF0
0601C0
1C0F00
000C0C
7FFFFE
000C00
000C00
000C00
007C00
001800
000000
ENDCHAR

STARTCHAR cns4_236D
ENCODING 9069
SWIDTH 960 0
DWIDTH 24 0
BBX 24 24 0 -2
BITMAP
000000
000000
00C018
3FEFFC
00C018
018030
030360
0601C0
0600E0
06006C
061FFE
07C0CC
0F00D8
7E00F0
3600C0
0600C0
0600C0
0600C0
0600C0
0600C0
0600C0
7E0FC0
1C0380
000000
ENDCHAR

STARTCHAR cns4_236E
ENCODING 9070
SWIDTH 960 0
DWIDTH 24 0
BBX 24 24 0 -2
BITMAP
000000
001C00
001800
10180C
1FFFFE
18000C
300008
000000
1FFFF8
001800
071800
061830
061FF8
061830
061830
061830
0FFFF0
0C0030
000060
000060
0000C0
001FC0
000380
000000
ENDCHAR

STARTCHAR cns4_236F
ENCODING 9071
SWIDTH 960 0
DWIDTH 24 0
BBX 24 24 0 -2
BITMAP
000000
001C00
001800
001800
10180C
1FFFFE
18000C
301C08
001B00
0019C0
0018C0
001818
3FFFFC
003C00
003E00
006600
006300
00C380
0181C0
0300F0
06007E
1C0038
700000
000000
ENDCHAR

STARTCHAR cns4_2370
ENCODING 9072
SWIDTH 960 0
DWIDTH 24 0
BBX 24 24 0 -2
BITMAP
000000
000000
001C00
001800
10180C
1FFFFE
181C0C
183C0C
303608
006300
00C1C0
0180E0
07E3FE
1CC338
70C300
00C300
00C300
00C300
018300
018300
030300
060300
1C0300
000000
ENDCHAR

STARTCHAR cns4_2371
ENCODING 9073
SWIDTH 960 0
DWIDTH 24 0
BBX 24 24 0 -2
BITMAP
000000
000000
000000
006070
1FF060
000060
000060
00306C
7FFFFE
0CC060
0CD860
0CCC60
0CCC60
0CC660
0CC660
0CC060
0CC060
0CC060
18C0E8
18C7C8
30C18C
30E01C
607FF8
000000
ENDCHAR

STARTCHAR cns4_2372
ENCODING 9074
SWIDTH 960 0
DWIDTH 24 0
BBX 24 24 0 -2
BITMAP
000000
000E00
000C00
000C00
01CC00
018C60
030C30
030C18
060C0C
0CFC0C
383800
000000
001C00
0C1800
061870
0338E0
01BD80
006F00
006600
00C300
0181C0
0700FE
3C0078
000000
ENDCHAR

STARTCHAR cns4_2373
ENCODING 9075
SWIDTH 960 0
DWIDTH 24 0
BBX 24 24 0 -2
BITMAP
000000
0700E0
0600C0
0600C0
0600C0
0660C0
7FF0CC
06CFFE
06C0C0
06C1C0
06C1C0
06C3E0
06C3E0
06C6F0
06CCD8
0CD8CE
0CF0C0
0CC0C4
18C0C4
18C0C6
30E00E
607FFC
000000
000000
ENDCHAR

STARTCHAR cns4_2374
ENCODING 9076
SWIDTH 960 0
DWIDTH 24 0
BBX 24 24 0 -2
BITMAP
000000
000000
070000
0600E0
0600C0
0660C0
3FF0C0
06C0C8
06C3DC
06DFF0
06C3C0
06C3E0
06C6F0
06C6F0
06CCD8
06CCDC
0CD8CE
0CF0C0
0CC0C4
18C7C4
18C186
30E00E
607FFC
000000
ENDCHAR

STARTCHAR cns4_2375
ENCODING 9077
SWIDTH 960 0
DWIDTH 24 0
BBX 24 24 0 -2
BITMAP
000000
001C00
001800
0E1838
0C1830
0C1830
0C1830
0FFFF0
0C3030
00E000
039C00
001800
00180C
3FFFFE
000000
00E300
00C180
0180C0
018060
030070
060038
1C001C
000000
000000
ENDCHAR

STARTCHAR cns4_2376
ENCODING 9078
SWIDTH 960 0
DWIDTH 24 0
BBX 24 24 0 -2
BITMAP
000000
001C00
001800
0E181C
0C1818
0C1818
0C1818
0FFFF8
0C3018
00E000
038018
1FFFFC
001800
001800
001800
001860
0FFFF0
001800
001800
001800
001800
00180C
7FFFFE
000000
ENDCHAR

STARTCHAR cns4_2377
ENCODING 9079
SWIDTH 960 0
DWIDTH 24 0
BBX 24 24 0 -2
BITMAP
000000
001C00
001800
0E1838
0C1830
0C1830
0FFFF0
0C3030
00E180
001FC0
018180
01C0C0
030060
030030
0600DC
0DFFEE
3870C0
0060C0
00C0C0
00C0C0
018180
073F80
1C0700
000000
ENDCHAR

STARTCHAR cns4_2378
ENCODING 9080
SWIDTH 960 0
DWIDTH 24 0
BBX 24 24 0 -2
BITMAP
000000
000C00
000E00
0E0C00
0C0C00
0C1818
0C1FFC
6D9980
6DB180
6DE180
6D8180
6D8180
6D818C
6DBFFE
6D8180
6D8180
6D8180
6D8180
7F8180
618180
000180
000180
000180
000000
ENDCHAR

STARTCHAR cns4_2379
ENCODING 9081
SWIDTH 960 0
DWIDTH 24 0
BBX 24 24 0 -2
BITMAP
000000
001C00
001800
1C181C
181818
181818
181818
181818
1FFFF8
180018
000000
040060
07FFF0
060060
060060
060060
07FFE0
060060
060060
060060
060060
07FFE0
060060
000000
ENDCHAR

STARTCHAR cns4_237A
ENCODING 9082
SWIDTH 960 0
DWIDTH 24 0
BBX 24 24 0 -2
BITMAP
000000
001C00
0E1838
0C1830
0C1830
0FFFF0
0C0030
003800
09E40C
0F07FE
0C060C
0C060C
0C060C
0C060C
0C060C
0DC60C
0F060C
3C06FC
180638
000600
000600
000600
000600
000000
ENDCHAR

STARTCHAR cns4_237B
ENCODING 9083
SWIDTH 960 0
DWIDTH 24 0
BBX 24 24 0 -2
BITMAP
000000
000000
001C00
1C181C
181818
181818
181818
1FFFF8
180018
001C00
001800
0018C0
0FFFE0
000180
000300
000600
001C00
067000
07C000
070000
0DC000
38FFFE
181FF8
000000
ENDCHAR

STARTCHAR cns4_237C
ENCODING 9084
SWIDTH 960 0
DWIDTH 24 0
BBX 24 24 0 -2
BITMAP
000000
0001C0
000180
070180
060180
060180
06018C
36C18E
36C99C
36C998
36D9B0
36DBE0
36F3C0
36F3C0
36C360
36C360
36C630
36C630
3FCC18
30CC1C
30180E
003006
00E000
000000
ENDCHAR

STARTCHAR cns4_237D
ENCODING 9085
SWIDTH 960 0
DWIDTH 24 0
BBX 24 24 0 -2
BITMAP
000000
000E00
070C1C
060C18
060C18
060C18
07FFF8
0600D8
0007E0
04FC00
078000
060000
06000C
07FFFE
060600
060600
060600
0C0600
0C0600
0C0600
180600
180600
300600
000000
ENDCHAR

STARTCHAR cns4_237E
ENCODING 9086
SWIDTH 960 0
DWIDTH 24 0
BBX 24 24 0 -2
BITMAP
000000
020060
03FFF0
030060
030060
030060
03FFE0
030060
030060
030060
03FFE0
030060
000000
018C18
018C18
031830
0630E0
0C60C0
0C60C0
063060
061830
030C18
030C18
000000
ENDCHAR

STARTCHAR cns4_2421
ENCODING 9249
SWIDTH 960 0
DWIDTH 24 0
BBX 24 24 0 -2
BITMAP
000000
0700E0
0600C0
0600C0
0600C0
26C0C0
3FEEC0
36CCD8
36CCCC
36CCC6
36D8C0
36D8CC
36D8CC
36F7D8
36C198
36C030
36C030
37C060
0680C0
060380
060E00
063800
060000
000000
ENDCHAR

STARTCHAR cns4_2422
ENCODING 9250
SWIDTH 960 0
DWIDTH 24 0
BBX 24 24 0 -2
BITMAP
000000
070000
060060
063FF0
060C60
26CC60
3FEC60
36CCC0
36CCD8
36CFFC
36CE18
36CE18
36CF18
36CF30
36D9B0
36D9E0
37D8C0
3630E0
0631F0
066338
06661C
06DC0E
060000
000000
ENDCHAR

STARTCHAR cns4_2423
ENCODING 9251
SWIDTH 960 0
DWIDTH 24 0
BBX 24 24 0 -2
BITMAP
000000
000030
0407F8
07FC00
060018
07FFFC
060018
060018
060018
07FFF8
060018
060700
07060C
07FFFE
07860C
07860C
07860C
0D860C
0D860C
1986FC
198638
300600
600600
000000
ENDCHAR

STARTCHAR cns4_2424
ENCODING 9252
SWIDTH 960 0
DWIDTH 24 0
BBX 24 24 0 -2
BITMAP
000000
0E0380
0C0300
0C0300
0C0300
4D8300
7FC360
6DBFF0
6D8300
6D8300
6D8300
6D8318
6DFFFC
6D8300
6D8380
6D8780
6D86C0
6D8CC0
6F8C60
0C1870
0C3038
0C601E
0CC00C
000000
ENDCHAR

STARTCHAR cns4_2425
ENCODING 9253
SWIDTH 960 0
DWIDTH 24 0
BBX 24 24 0 -2
BITMAP
000000
001C00
001800
061870
031860
0198C0
00D980
101B18
1FFFFC
181818
18FC18
18DE18
199B18
199998
1B18D8
1E1878
181818
181818
181818
181818
181818
1819F8
181830
000000
ENDCHAR

STARTCHAR cns4_2426
ENCODING 9254
SWIDTH 960 0
DWIDTH 24 0
BBX 24 24 0 -2
BITMAP
000000
000000
000018
0FFFFC
000C00
000C00
000C0C
3FFFFE
000C00
040C18
07FFFC
060C18
060C18
07FFF8
060C18
060C18
07FFF8
060C18
000C00
000C00
000C00
000C00
000C00
000000
ENDCHAR

STARTCHAR cns4_2427
ENCODING 9255
SWIDTH 960 0
DWIDTH 24 0
BBX 24 24 0 -2
BITMAP
000000
000000
0380E0
0300C0
0300C0
0600C0
060EF0
0C0CD8
6CECD8
38D8CC
1CD8CC
0D98C0
07B0DC
0330D8
030FD8
06C1B0
066030
0C6060
1BE0C0
7E6180
300700
001C00
00F000
000000
ENDCHAR

STARTCHAR cns4_2428
ENCODING 9256
SWIDTH 960 0
DWIDTH 24 0
BBX 24 24 0 -2
BITMAP
000000
000700
000600
08060C
0FFFFE
0C0E00
0C0C00
0C1E00
0C1B00
0C3180
0C60E0
0CC07E
0FF1DC
0C6180
0C6180
0C6180
186180
186180
18C180
30C180
318180
670180
600180
000000
ENDCHAR

STARTCHAR cns4_2429
ENCODING 9257
SWIDTH 960 0
DWIDTH 24 0
BBX 24 24 0 -2
BITMAP
000000
000000
0180E0
3FC0C0
0180C0
0300C0
0300C0
0600C0
060EC0
0D8CCC
0FCCFE
198CC0
018CC0
018CC0
1B0CC0
1F0CC0
370CC0
660CCC
077FFE
0F8000
0CF000
181FFE
300000
000000
ENDCHAR

STARTCHAR cns4_242A
ENCODING 9258
SWIDTH 960 0
DWIDTH 24 0
BBX 24 24 0 -2
BITMAP
000000
000C00
001800
003030
007FF8
00F030
039860
1ECDC0
006700
003C00
01E000
1F0000
00E1C0
00C180
00C18C
3FFFFE
00C180
00C180
00C180
018180
018180
030180
0E0180
000000
ENDCHAR

STARTCHAR cns4_242B
ENCODING 9259
SWIDTH 960 0
DWIDTH 24 0
BBX 24 24 0 -2
BITMAP
000000
00E380
00C300
1CC360
18C330
18C330
18C300
18C30C
18C33E
1FDFE0
18C180
00C180
00C180
00C180
3FC180
0CC0C0
0CC0C0
0CC0C4
18C064
18C064
18C034
30C01C
30C00C
000000
ENDCHAR

STARTCHAR cns4_242C
ENCODING 9260
SWIDTH 960 0
DWIDTH 24 0
BBX 24 24 0 -2
BITMAP
000000
060000
070000
0E0018
0CFFFC
180300
338300
030300
070300
060300
0C0330
0C7FF8
1C0300
3C0300
6C0300
0C0300
0C0300
0C0300
0C0300
0C030C
0DFFFE
0C0000
0C0000
000000
ENDCHAR

STARTCHAR cns4_242D
ENCODING 9261
SWIDTH 960 0
DWIDTH 24 0
BBX 24 24 0 -2
BITMAP
000000
070380
060300
060300
060300
0E0330
0F3FF8
1F0300
1F8300
360300
360300
060318
06FFFC
060380
060380
0606C0
0606C0
060C60
060C70
061838
06301C
06600E
06C000
000000
ENDCHAR

STARTCHAR cns4_242E
ENCODING 9262
SWIDTH 960 0
DWIDTH 24 0
BBX 24 24 0 -2
BITMAP
000000
070380
060300
06030C
06FFFE
060000
0E0380
0F0300
1F4318
1FFFFC
366318
366318
066318
066318
066318
066318
066318
066318
0663F8
066330
066300
060300
060300
000000
ENDCHAR

STARTCHAR cns4_242F
ENCODING 9263
SWIDTH 960 0
DWIDTH 24 0
BBX 24 24 0 -2
BITMAP
000000
070000
060018
063FFC
0618C0
1718C0
1718C0
3718C0
37B0C0
6630CC
663FFE
0661C0
0603C0
0603C0
0606C0
060CC0
0618C0
0630C0
06E0C0
0780C0
0600C0
060FC0
060180
000000
ENDCHAR

STARTCHAR cns4_2430
ENCODING 9264
SWIDTH 960 0
DWIDTH 24 0
BBX 24 24 0 -2
BITMAP
000000
070000
061018
061FFC
061800
0E1800
0F9800
1ED800
1ED818
361FFC
361E18
061E18
061B18
061B30
061B30
0631F0
0630E0
0630E0
0661F0
066338
06C61E
079C0C
060000
000000
ENDCHAR

STARTCHAR cns4_2431
ENCODING 9265
SWIDTH 960 0
DWIDTH 24 0
BBX 24 24 0 -2
BITMAP
000000
003000
003800
003000
00600C
3FFFFE
00C0C0
018180
03FB00
000F00
0039C0
03E070
3E0030
03D800
098C08
098608
19860C
19804C
198046
318046
318060
01C0E0
00FFC0
000000
ENDCHAR

STARTCHAR cns4_2432
ENCODING 9266
SWIDTH 960 0
DWIDTH 24 0
BBX 24 24 0 -2
BITMAP
000000
070030
060038
063870
060CC0
160780
1707C0
370E60
37B830
660000
660C70
060C60
061C60
063660
0636C0
0603C0
060380
060380
0606C0
060C60
063838
06E01E
060000
000000
ENDCHAR

STARTCHAR cns4_2433
ENCODING 9267
SWIDTH 960 0
DWIDTH 24 0
BBX 24 24 0 -2
BITMAP
000000
070010
060038
0600E0
060380
0E3F00
0F0300
1F0300
1F8300
36030C
36FFFE
060300
060700
060780
060780
0606C0
0606C0
060C60
060C70
061838
06301E
06E00C
060000
000000
ENDCHAR

STARTCHAR cns4_2434
ENCODING 9268
SWIDTH 960 0
DWIDTH 24 0
BBX 24 24 0 -2
BITMAP
000000
0407FC
07FC00
060000
060018
07FFFC
060018
060018
07FFF8
060018
060000
070030
07FFF8
078030
078030
0DFFF0
0D8030
0D8000
0D8004
0D8004
198006
19C00E
30FFFC
000000
ENDCHAR

STARTCHAR cns4_2435
ENCODING 9269
SWIDTH 960 0
DWIDTH 24 0
BBX 24 24 0 -2
BITMAP
000000
0701C0
060180
06018C
0601B8
0681E0
3FC780
063D80
060180
060180
06019C
07BFF0
070180
0E0180
7E0180
26018C
067FFE
060180
060180
060180
060180
7E0180
0C0180
000000
ENDCHAR

STARTCHAR cns4_2436
ENCODING 9270
SWIDTH 960 0
DWIDTH 24 0
BBX 24 24 0 -2
BITMAP
000000
0701C0
060180
060180
06018C
063FFE
068180
7FC180
06118C
061FFE
06198C
06D98C
07998C
0E198C
3E198C
16198C
06198C
06198C
0619BC
061998
060180
7E0180
0C0180
000000
ENDCHAR

STARTCHAR cns4_2437
ENCODING 9271
SWIDTH 960 0
DWIDTH 24 0
BBX 24 24 0 -2
BITMAP
000000
0E0000
0C700C
0C67FE
0C60CC
0C60CC
7FE0CC
0C6ECC
0C78CC
0DE0CC
0C60CC
0DE0CC
0F64CC
7C64CC
2C758C
0C3D8C
0C0318
0C0318
0C0618
0C0C38
0C19F0
7C3060
180000
000000
ENDCHAR

STARTCHAR cns4_2438
ENCODING 9272
SWIDTH 960 0
DWIDTH 24 0
BBX 24 24 0 -2
BITMAP
000000
000000
070380
060300
060300
060318
06C3FC
3FE300
060300
060300
060330
06FFF8
078C30
0E0C30
3E0660
160660
0603C0
060180
0603C0
060660
060C38
3E381E
0DE00C
000000
ENDCHAR

STARTCHAR cns4_2439
ENCODING 9273
SWIDTH 960 0
DWIDTH 24 0
BBX 24 24 0 -2
BITMAP
000000
000000
070180
060FC0
060180
060180
06218C
3FBFFE
06318C
0631CC
0631CC
0633CC
07F36C
0F367C
3E3C3C
16380C
06300C
06300C
06300C
06300C
06300C
7E307C
0C3018
000000
ENDCHAR

STARTCHAR cns4_243A
ENCODING 9274
SWIDTH 960 0
DWIDTH 24 0
BBX 24 24 0 -2
BITMAP
000000
0E0C00
0C0E00
0C0C00
0C1818
0D9FFC
7FD800
0C3060
0C6FF0
0CC000
0C0030
0DBFF8
0F0030
7C0030
2C0030
0C0030
0C0030
0C0032
0C001A
0C001A
0C001E
7C000E
180006
000000
ENDCHAR

STARTCHAR cns4_243B
ENCODING 9275
SWIDTH 960 0
DWIDTH 24 0
BBX 24 24 0 -2
BITMAP
000000
070000
061DC0
061980
061980
061980
061980
7FD980
063190
0631F8
063180
077180
07F180
0EF180
3E3180
063180
063180
063184
063184
063184
063186
7E31CE
1C30FC
000000
ENDCHAR

STARTCHAR cns4_243C
ENCODING 9276
SWIDTH 960 0
DWIDTH 24 0
BBX 24 24 0 -2
BITMAP
000000
070000
060030
063FF8
060300
068300
7FC300
060300
060300
060318
067FFC
06C300
0783E0
0E03C0
3E06C0
0606C0
0606C0
060CC4
060CC4
0618C6
0618E6
7E307C
0CE000
000000
ENDCHAR

STARTCHAR cns4_243D
ENCODING 9277
SWIDTH 960 0
DWIDTH 24 0
BBX 24 24 0 -2
BITMAP
000000
001C00
001818
3FFFFC
001800
0018C0
0FFFE0
00C180
006300
003600
001C00
00F7C0
07987E
3C1830
07FFF8
061830
061830
061830
061830
061BF0
061860
001800
001800
000000
ENDCHAR

STARTCHAR cns4_243E
ENCODING 9278
SWIDTH 960 0
DWIDTH 24 0
BBX 24 24 0 -2
BITMAP
000000
0001C0
006180
1FF180
030180
030180
03030C
0303FE
030318
036718
7FF718
030D98
030DB0
0301B0
0301B0
0300E0
0300E0
0300E0
0300E0
0301B0
030338
03061E
031C0C
000000
ENDCHAR

STARTCHAR cns4_243F
ENCODING 9279
SWIDTH 960 0
DWIDTH 24 0
BBX 24 24 0 -2
BITMAP
000000
000300
000380
20C300
3FE300
30C600
30C618
30C7FC
30CC30
30CE30
3FDE30
30DE30
303330
300360
300360
3041E0
3041C0
3041C0
3063E0
38E370
1FC638
001C1E
00700C
000000
ENDCHAR

STARTCHAR cns4_2440
ENCODING 9280
SWIDTH 960 0
DWIDTH 24 0
BBX 24 24 0 -2
BITMAP
000000
0001C0
070180
060180
0C3180
0FFB00
18030C
1803FE
300718
60C718
1FEF18
019B18
018330
0301B0
0601F0
0601E0
0C00E0
0C10E0
1811E0
1811F0
1C3338
0FE61E
001C0C
000000
ENDCHAR

STARTCHAR cns4_2441
ENCODING 9281
SWIDTH 960 0
DWIDTH 24 0
BBX 24 24 0 -2
BITMAP
000000
070070
060060
060060
060660
066360
0FF360
0C6060
0C6060
0C7860
1E6C60
1FE660
33C660
60C06E
018078
0181E0
030F60
033860
060060
060060
0C0060
180060
000060
000000
ENDCHAR

STARTCHAR cns4_2442
ENCODING 9282
SWIDTH 960 0
DWIDTH 24 0
BBX 24 24 0 -2
BITMAP
000000
000000
0701C0
0601C0
0603C0
066360
7FF660
0C0630
0C0C38
0CD9DE
0FE188
0CC180
0CC180
0CC180
0CC180
18C180
18C180
18C180
18C180
30C180
31C180
6F8180
030180
000000
ENDCHAR

STARTCHAR cns4_2443
ENCODING 9283
SWIDTH 960 0
DWIDTH 24 0
BBX 24 24 0 -2
BITMAP
000000
040030
07FFF8
060030
060030
060030
07FFF0
060030
060030
07FFF0
060030
00E1C0
00C180
00C180
00C18C
7FFFFE
00C180
018180
018180
030180
060180
0C0180
380180
000000
ENDCHAR

STARTCHAR cns4_2444
ENCODING 9284
SWIDTH 960 0
DWIDTH 24 0
BBX 24 24 0 -2
BITMAP
000000
000000
040030
07FFF8
060030
060030
07FFF0
060030
060030
060030
07FFF0
060030
001C00
00180C
7FFFFE
0C0000
0C0000
0C0000
0C0000
0C0000
0C0000
0FFFF8
07FFE0
000000
ENDCHAR

STARTCHAR cns4_2445
ENCODING 9285
SWIDTH 960 0
DWIDTH 24 0
BBX 24 24 0 -2
BITMAP
000000
070380
060300
060300
060300
060300
060318
3F9FFC
060318
0F0318
0F8318
0EDB18
1E0F18
1E0718
1E0318
360798
6606D8
0606DA
060C1A
060C1E
06180E
06300E
066006
000000
ENDCHAR

STARTCHAR cns4_2446
ENCODING 9286
SWIDTH 960 0
DWIDTH 24 0
BBX 24 24 0 -2
BITMAP
000000
001C00
001800
001800
001830
1FFFF8
001800
061800
031830
019860
0198C0
00198C
3FFFFE
003C00
007E00
007B00
00D980
0198E0
031878
06183E
0C1818
381800
001800
000000
ENDCHAR

STARTCHAR cns4_2447
ENCODING 9287
SWIDTH 960 0
DWIDTH 24 0
BBX 24 24 0 -2
BITMAP
000000
038000
030018
031FFC
030018
030018
031C18
3FD818
071818
071818
079FF8
0F9818
0FD800
0FD800
1B1800
1B1800
331804
331804
031804
031806
031C0E
030FFC
030000
000000
ENDCHAR

STARTCHAR cns4_2448
ENCODING 9288
SWIDTH 960 0
DWIDTH 24 0
BBX 24 24 0 -2
BITMAP
000000
070000
0601C0
060180
060180
060300
060300
3FB638
061C30
070C30
0F8C60
0FC660
0EC3C0
1E01C0
1E0180
360180
360318
660318
06060C
060CFE
067F86
063006
060000
000000
ENDCHAR

STARTCHAR cns4_2449
ENCODING 9289
SWIDTH 960 0
DWIDTH 24 0
BBX 24 24 0 -2
BITMAP
000000
000030
000078
0F01C0
03E700
007C00
003F00
01E1C0
0F0078
381D9E
0018C0
001818
3FFFFC
003C00
007E00
00DB00
019980
0718E0
1C187E
701838
001800
001800
001800
000000
ENDCHAR

STARTCHAR cns4_244A
ENCODING 9290
SWIDTH 960 0
DWIDTH 24 0
BBX 24 24 0 -2
BITMAP
000000
000000
000700
00C600
3FE600
00CC18
00CFFC
00CC18
00DB98
00DB10
20F300
3FF300
30C300
300300
300300
304380
304780
3046C0
306C60
38EC38
1FD81E
00300C
006000
000000
ENDCHAR

STARTCHAR cns4_244B
ENCODING 9291
SWIDTH 960 0
DWIDTH 24 0
BBX 24 24 0 -2
BITMAP
000000
000000
103380
1FFB00
183300
183300
18360C
1837FE
183C0C
1FF1CC
183188
180180
180180
180180
180180
180180
180380
180380
3006C0
300660
300C38
60181E
60300C
000000
ENDCHAR

STARTCHAR cns4_244C
ENCODING 9292
SWIDTH 960 0
DWIDTH 24 0
BBX 24 24 0 -2
BITMAP
000000
000000
00C1C0
3FE180
060180
060180
060180
0CC18C
0FFFFE
0CC180
18C180
198380
398380
3D83C0
6783C0
030660
030660
060C30
060C30
0C1818
18301E
30600C
600000
000000
ENDCHAR

STARTCHAR cns4_244D
ENCODING 9293
SWIDTH 960 0
DWIDTH 24 0
BBX 24 24 0 -2
BITMAP
000000
000000
01C000
01800C
018FFE
01B60C
0DFE0C
0D8618
0DB318
0FFB18
183330
183330
1831B0
3C61E0
3761E0
63C0C0
00C1E0
0181E0
030330
060638
0C0C1C
18180E
703000
000000
ENDCHAR

STARTCHAR cns4_244E
ENCODING 9294
SWIDTH 960 0
DWIDTH 24 0
BBX 24 24 0 -2
BITMAP
000000
000000
018000
03C000
071018
1E1FFC
761818
061818
06D818
079818
0E1818
7E1818
061818
061818
06D818
079818
0E1818
7E1FF8
06181C
060004
060006
07000E
03FFFC
000000
ENDCHAR

STARTCHAR cns4_244F
ENCODING 9295
SWIDTH 960 0
DWIDTH 24 0
BBX 24 24 0 -2
BITMAP
000000
000000
18400C
0C7FFE
066000
0061C0
006180
006180
636180
336180
1B6180
066180
066380
066380
0663C0
0C66C0
1C6660
7C6660
1CCC30
1CCC38
0D981C
0DB01E
0C600C
000000
ENDCHAR

STARTCHAR cns4_2450
ENCODING 9296
SWIDTH 960 0
DWIDTH 24 0
BBX 24 24 0 -2
BITMAP
000000
000000
180000
0C0700
060600
000600
030600
030600
630600
360600
360618
0607FC
0CE600
0CC600
0CC600
18C600
78E600
38E600
19B600
199E00
1B0FFE
1E01FC
000000
000000
ENDCHAR

STARTCHAR cns4_2451
ENCODING 9297
SWIDTH 960 0
DWIDTH 24 0
BBX 24 24 0 -2
BITMAP
000000
000000
18000C
0CFFFE
060380
000300
010300
630600
330700
1B0E00
061E60
061E30
063618
06660C
0CC60C
0D8600
3C0600
3C0600
0C0600
0C0600
0E0600
0E0600
0C0600
000000
ENDCHAR

STARTCHAR cns4_2452
ENCODING 9298
SWIDTH 960 0
DWIDTH 24 0
BBX 24 24 0 -2
BITMAP
000000
000000
000030
0FFFF8
001800
001800
001800
001800
00180C
7FFFFE
001800
001800
001860
001870
0118E0
031980
063F00
0C3600
006300
00C1C0
0380F0
0E007E
380030
000000
ENDCHAR

STARTCHAR cns4_2453
ENCODING 9299
SWIDTH 960 0
DWIDTH 24 0
BBX 24 24 0 -2
BITMAP
000000
000000
001C00
001800
00300C
3FFFFE
006300
00C180
0180C0
031C70
061800
1E1838
031870
0198C0
019980
003B00
003C00
006600
006380
00C1C0
0380F0
0E007C
380030
000000
ENDCHAR

STARTCHAR cns4_2454
ENCODING 9300
SWIDTH 960 0
DWIDTH 24 0
BBX 24 24 0 -2
BITMAP
000000
0701C0
060180
060180
060180
060180
06C180
3FE198
06099C
0609B8
0619E0
0619C0
07B380
0F33C0
3E03C0
1606C0
060660
060C60
060C30
061838
06301C
3E600E
0CC000
000000
ENDCHAR

STARTCHAR cns4_2455
ENCODING 9301
SWIDTH 960 0
DWIDTH 24 0
BBX 24 24 0 -2
BITMAP
000000
000000
038EEE
330CCC
3B0CCC
330CCC
334CCC
3FECCC
330CCC
630CCC
630CCC
03CCCC
038CCC
0F0CCC
3B0CCC
130CCC
030CCC
0318CC
0318CC
0318CC
03300C
03300C
03600C
000000
ENDCHAR

STARTCHAR cns4_2456
ENCODING 9302
SWIDTH 960 0
DWIDTH 24 0
BBX 24 24 0 -2
BITMAP
000000
000700
318600
1B8600
0F0600
060600
0E0630
1E7FF8
330630
030630
030630
070630
070634
0F7FFE
1B0600
330600
630F00
030D80
0318C0
031860
073038
3E601E
0DC00C
000000
ENDCHAR

STARTCHAR cns4_2457
ENCODING 9303
SWIDTH 960 0
DWIDTH 24 0
BBX 24 24 0 -2
BITMAP
000000
000000
0038E0
18F0C0
0DB0C0
0F30C0
0630C0
0E30C0
3B36CC
033FFE
0330C0
07B0C0
07B0C0
0DB0C0
19B0C0
31B0C0
61B0C4
01B0C4
01B6C4
01BCC6
0370E6
1F207C
060000
000000
ENDCHAR

STARTCHAR cns4_2458
ENCODING 9304
SWIDTH 960 0
DWIDTH 24 0
BBX 24 24 0 -2
BITMAP
000000
000000
00C000
0D900C
071FFE
06180C
0F180C
1B180C
33180C
01980C
03980C
039FFC
07980C
0D980C
19980C
31980C
01980C
01980C
01980C
019FFC
03980C
1F180C
060000
000000
ENDCHAR

STARTCHAR cns4_2459
ENCODING 9305
SWIDTH 960 0
DWIDTH 24 0
BBX 24 24 0 -2
BITMAP
000000
000000
01C000
1B803C
0F21E0
0E3F80
1E3180
363180
033180
03318C
033FFE
0730C0
0730C0
0F30C0
1B30C0
3330C0
033060
033062
033762
033C32
07F03A
3E801E
0C000E
000000
ENDCHAR

STARTCHAR cns4_245A
ENCODING 9306
SWIDTH 960 0
DWIDTH 24 0
BBX 24 24 0 -2
BITMAP
000000
000380
018300
1B0300
0E0300
0C0300
1E230C
363FFE
063318
033330
076380
070380
0F0780
1B0780
330780
630D80
030D80
031984
031984
033184
066186
3EC1CE
0D80FC
000000
ENDCHAR

STARTCHAR cns4_245B
ENCODING 9307
SWIDTH 960 0
DWIDTH 24 0
BBX 24 24 0 -2
BITMAP
000000
000000
31A018
1B3FFC
0E3198
0C3198
1E3198
363198
063198
033198
033198
073FF8
073018
0F3000
1B3000
333000
033004
033004
033004
033006
07380E
3E1FFC
040000
000000
ENDCHAR

STARTCHAR cns4_245C
ENCODING 9308
SWIDTH 960 0
DWIDTH 24 0
BBX 24 24 0 -2
BITMAP
000000
000000
000030
019FF8
7FC630
060630
060630
060630
060630
060630
3F8630
063FB0
060630
060630
060630
060630
06C632
078632
0C061A
78061A
20061E
00060E
000400
000000
ENDCHAR

STARTCHAR cns4_245D
ENCODING 9309
SWIDTH 960 0
DWIDTH 24 0
BBX 24 24 0 -2
BITMAP
000000
000000
0001C0
000180
00C180
7FE180
060180
060180
060180
060180
06C198
3FEFFC
060180
060180
060180
060180
06E180
078180
0E0180
780180
30018C
007FFE
000000
000000
ENDCHAR

STARTCHAR cns4_245E
ENCODING 9310
SWIDTH 960 0
DWIDTH 24 0
BBX 24 24 0 -2
BITMAP
000000
000000
00600C
7FFFFE
030600
030600
030600
030630
0307F8
030630
030630
030630
0307B0
0306F0
0306F0
030630
030632
030C32
030C32
030DF2
033F3A
1F101E
060000
000000
ENDCHAR

STARTCHAR cns4_245F
ENCODING 9311
SWIDTH 960 0
DWIDTH 24 0
BBX 24 24 0 -2
BITMAP
000000
00018C
0001CE
40618C
7FF18C
666318
666318
666318
666630
666630
7FE630
666C60
666C60
666C60
666630
666630
666618
7FE318
606318
00030C
00018C
00018C
00018C
000000
ENDCHAR

STARTCHAR cns4_2460
ENCODING 9312
SWIDTH 960 0
DWIDTH 24 0
BBX 24 24 0 -2
BITMAP
000000
000700
000600
04060C
07FFFE
060000
060030
66FFF8
363030
1E3030
063060
061860
0618C0
1E0CC0
360D80
660780
0C0700
0C0F80
0C18C0
183070
18E03E
378018
000000
000000
ENDCHAR

STARTCHAR cns4_2461
ENCODING 9313
SWIDTH 960 0
DWIDTH 24 0
BBX 24 24 0 -2
BITMAP
000000
000700
000600
04060C
07FFFE
060000
060070
260060
367060
1E6060
0E6060
066060
066060
1E6060
366060
667FE0
0C6060
0C0060
0C0060
180060
180060
300060
000060
000000
ENDCHAR

STARTCHAR cns4_2462
ENCODING 9314
SWIDTH 960 0
DWIDTH 24 0
BBX 24 24 0 -2
BITMAP
000000
000700
000600
04060C
07FFFE
060000
060000
060018
67FFFC
363000
1E3000
063000
063030
0E7FF8
1E6030
76C030
260030
0C0030
0C0030
0C0060
1800E0
181FC0
300380
000000
ENDCHAR

STARTCHAR cns4_2463
ENCODING 9315
SWIDTH 960 0
DWIDTH 24 0
BBX 24 24 0 -2
BITMAP
000000
000000
001800
1FFC60
003CC0
0C3798
066330
03C1E0
0180C0
030060
0701B8
0DFFDE
39818C
018180
018180
019F80
018710
018010
018010
018010
018018
01C038
00FFF0
000000
ENDCHAR

STARTCHAR cns4_2464
ENCODING 9316
SWIDTH 960 0
DWIDTH 24 0
BBX 24 24 0 -2
BITMAP
000000
00001C
000018
10C718
1FE618
18C618
18C618
18C618
18C618
1FC618
18C618
18C618
18C618
18C618
1FC618
18C6F8
18CF98
18F818
18C018
1FC018
18C018
180018
000018
000000
ENDCHAR

STARTCHAR cns4_2465
ENCODING 9317
SWIDTH 960 0
DWIDTH 24 0
BBX 24 24 0 -2
BITMAP
000000
018000
01C000
018000
01800C
03FFFE
03000C
06000C
07030C
0DFF8C
19830C
31830C
01FF0C
01830C
01830C
01FF0C
01830C
01830C
01FF0C
01831C
000018
0003F8
000070
000000
ENDCHAR

STARTCHAR cns4_2466
ENCODING 9318
SWIDTH 960 0
DWIDTH 24 0
BBX 24 24 0 -2
BITMAP
000000
000000
0800C0
0FFFE0
0C00C0
0C00C0
0FFFC0
0C00C0
0FFFC0
0C00C0
0C00C0
0FFFC0
0C00C0
000000
0C0000
0C0180
0FFFC0
0C0010
0C0010
0C0018
0E0038
07FFF0
000000
000000
ENDCHAR

STARTCHAR cns4_2467
ENCODING 9319
SWIDTH 960 0
DWIDTH 24 0
BBX 24 24 0 -2
BITMAP
000000
000000
019018
3FDFFC
061818
061818
061818
061818
0C1818
0CD818
0FF818
1CD818
1CD830
3CD9F0
6CD860
0CD800
0CD804
0CD804
0CD806
0FDC0E
0CCFFC
0C0000
000000
000000
ENDCHAR

STARTCHAR cns4_2468
ENCODING 9320
SWIDTH 960 0
DWIDTH 24 0
BBX 24 24 0 -2
BITMAP
000000
000000
0001F0
003F80
07EC00
000C0C
1FFFFE
006C00
00CF00
018DC0
070C7C
1C0C18
000000
001C00
001800
001800
003800
003C00
006600
01C380
0701E0
1C00FE
700078
000000
ENDCHAR

STARTCHAR cns4_2469
ENCODING 9321
SWIDTH 960 0
DWIDTH 24 0
BBX 24 24 0 -2
BITMAP
000000
001C00
001800
10180C
1FFFFE
18660C
30C608
638700
0E03FC
000000
000018
1FFFFC
000C00
000C00
000C00
000C00
000C00
000C00
000C00
000C00
000C00
01FC00
003800
000000
ENDCHAR

STARTCHAR cns4_246A
ENCODING 9322
SWIDTH 960 0
DWIDTH 24 0
BBX 24 24 0 -2
BITMAP
000000
100018
1FFFFC
186318
186318
186318
186318
1FFFF8
000000
00000C
3FFFFE
000C00
000C00
000C00
000C00
000C00
000C00
000C00
000C00
000C00
000C00
01FC00
003800
000000
ENDCHAR

STARTCHAR cns4_246B
ENCODING 9323
SWIDTH 960 0
DWIDTH 24 0
BBX 24 24 0 -2
BITMAP
000000
000000
080018
0FFFFC
0C1818
0C3818
0C3C18
0C6618
0DC398
0C0018
001C00
001800
00180C
3FFFFE
060000
060000
060000
060000
060000
060000
070000
03FFFC
000000
000000
ENDCHAR

STARTCHAR cns4_246C
ENCODING 9324
SWIDTH 960 0
DWIDTH 24 0
BBX 24 24 0 -2
BITMAP
000000
000000
00E380
00C300
00C30C
3FC3FE
00C300
00C300
001C00
001800
001860
07FFF0
001800
001800
001800
00180C
7FFFFE
001800
001800
001800
001800
001800
001800
000000
ENDCHAR

STARTCHAR cns4_246D
ENCODING 9325
SWIDTH 960 0
DWIDTH 24 0
BBX 24 24 0 -2
BITMAP
000000
000000
003000
7FF80C
0CDFFE
0CC018
0CC030
0CC060
0FC060
0CC0C0
0CC0C0
0CC180
0FC180
0CC300
0CC300
0CC600
0FC604
1CC604
70CC04
00CC06
00CE0E
00C7FC
00C000
000000
ENDCHAR

STARTCHAR cns4_246E
ENCODING 9326
SWIDTH 960 0
DWIDTH 24 0
BBX 24 24 0 -2
BITMAP
000000
000000
10C018
1FEFFC
18C180
18C180
1CC180
1EC180
1BC180
18C18C
18FFFE
19C180
1BC180
1EC180
1CC180
18C180
18C180
18C180
18C180
30C180
30C180
67DF80
618700
000000
ENDCHAR

STARTCHAR cns4_246F
ENCODING 9327
SWIDTH 960 0
DWIDTH 24 0
BBX 24 24 0 -2
BITMAP
000000
000000
10C860
1FEFF0
18CC60
18CC60
1CCC60
1ECC60
1BCC60
19CF60
18CDE0
19CDE0
1BCC60
1ECC60
1CCC60
18CC60
18CC62
18D862
30D862
30F062
30F072
67C03E
618000
000000
ENDCHAR

STARTCHAR cns4_2470
ENCODING 9328
SWIDTH 960 0
DWIDTH 24 0
BBX 24 24 0 -2
BITMAP
000000
000000
10C00E
1FE00C
18CC0C
18CC0C
1CDD98
1EFCD8
1BE6D8
19C618
18C618
19C330
1BC330
1EC330
1CC1E0
18C1E0
18C0C0
18C1C0
30C1E0
30C330
30C61E
67CC0C
61B800
000000
ENDCHAR

STARTCHAR cns4_2471
ENCODING 9329
SWIDTH 960 0
DWIDTH 24 0
BBX 24 24 0 -2
BITMAP
000000
000000
20000C
3FFFFE
300C00
300C00
300C00
300C00
310C60
31FFF0
318060
318060
318060
318060
31FFE0
318C60
300C00
300C00
300C00
300C00
300C0C
3FFFFE
300000
000000
ENDCHAR

STARTCHAR cns4_2472
ENCODING 9330
SWIDTH 960 0
DWIDTH 24 0
BBX 24 24 0 -2
BITMAP
000000
000000
00000C
7FFFFE
001800
001800
003000
043030
07FFF8
060030
060030
060030
07FFF0
060030
060030
060030
07FFF0
060030
060030
060030
07FFF0
060030
000000
000000
ENDCHAR

STARTCHAR cns4_2473
ENCODING 9331
SWIDTH 960 0
DWIDTH 24 0
BBX 24 24 0 -2
BITMAP
000000
000000
070380
060300
263300
3FFB00
303300
303300
303300
303300
3FF300
303300
303300
303300
3FF300
303300
303304
303304
303304
303306
3FF38E
3031FC
000000
000000
ENDCHAR

STARTCHAR cns4_2474
ENCODING 9332
SWIDTH 960 0
DWIDTH 24 0
BBX 24 24 0 -2
BITMAP
000000
000000
000000
007000
09C018
0F07FC
0C0018
0C0018
0C0018
0C0018
0C0018
0C6018
0FF7F8
0C0018
0C0018
0C0018
0C0018
0C0018
0C0018
0FF7F8
0C0018
0C0018
000000
000000
ENDCHAR

STARTCHAR cns4_2475
ENCODING 9333
SWIDTH 960 0
DWIDTH 24 0
BBX 24 24 0 -2
BITMAP
000000
0700E0
0600C0
0660CC
3FF7FE
0600C0
0600C0
000060
0FFFF0
001800
001800
001800
00180C
3FFFFE
001800
001800
001800
001800
001800
001800
001800
001800
001800
000000
ENDCHAR

STARTCHAR cns4_2476
ENCODING 9334
SWIDTH 960 0
DWIDTH 24 0
BBX 24 24 0 -2
BITMAP
000000
0700E0
0600C0
06C0CC
3FEFFE
0600C0
0600C0
000060
1FFFF0
006060
006060
006060
006060
006060
00C660
0FFF60
00C062
018032
018032
030032
06001A
0C001E
38000E
000000
ENDCHAR

STARTCHAR cns4_2477
ENCODING 9335
SWIDTH 960 0
DWIDTH 24 0
BBX 24 24 0 -2
BITMAP
000000
0700E0
0600C0
0660CC
3FF7FE
0600C0
060EC0
000C00
000C00
000C0C
3FFFFE
000CC0
000D80
000F00
000E00
001C00
007C00
01CC00
070C00
1C0C00
000C00
00FC00
003800
000000
ENDCHAR

STARTCHAR cns4_2478
ENCODING 9336
SWIDTH 960 0
DWIDTH 24 0
BBX 24 24 0 -2
BITMAP
000000
0700E0
0600C0
0660CC
3FF7FE
0600C0
0600C0
0600C0
00000C
3FFFFE
006300
006300
006300
006300
00C300
00C300
00C300
018304
018304
030304
060306
0C038E
3801FC
000000
ENDCHAR

STARTCHAR cns4_2479
ENCODING 9337
SWIDTH 960 0
DWIDTH 24 0
BBX 24 24 0 -2
BITMAP
000000
0700E0
0600C0
0660CC
3FF7FE
0600C0
0600C0
061CC0
001800
001800
00180C
3FFFFE
001800
001800
003800
003C00
006600
006300
00C1C0
0180F0
03007C
0E0030
380000
000000
ENDCHAR

STARTCHAR cns4_247A
ENCODING 9338
SWIDTH 960 0
DWIDTH 24 0
BBX 24 24 0 -2
BITMAP
000000
0700E0
0600C0
0660CC
3FF7FE
0600C0
0600C0
0600C0
000000
080030
0FFFF8
0C0030
0C0030
0C0030
0C0030
0C0030
0C0030
0C0030
0C0030
0C0030
0FFFF0
0C0030
0C0030
000000
ENDCHAR

STARTCHAR cns4_247B
ENCODING 9339
SWIDTH 960 0
DWIDTH 24 0
BBX 24 24 0 -2
BITMAP
000000
0700E0
0600C0
0660CC
3FF7FE
0600C0
0600C0
061CC0
001800
081830
0FFFF8
0C1830
0C1830
0C1830
0C1830
0C1830
0C1830
0C1830
0C19F0
0C1860
001800
001800
001800
000000
ENDCHAR

STARTCHAR cns4_247C
ENCODING 9340
SWIDTH 960 0
DWIDTH 24 0
BBX 24 24 0 -2
BITMAP
000000
0700E0
0600C0
0660CC
3FF7FE
0600C0
0600C0
0600C0
000060
0003F0
007E00
3FF000
003000
003000
003018
007FFC
7FF000
003000
003004
003004
003006
00380E
001FFC
000000
ENDCHAR

STARTCHAR cns4_247D
ENCODING 9341
SWIDTH 960 0
DWIDTH 24 0
BBX 24 24 0 -2
BITMAP
000000
0700E0
0600C0
0660CC
7FF7FE
0600C0
0600C0
0780C0
030030
07FFF8
060000
0C0180
1BFFC0
300700
001C00
003000
006000
00C004
018004
030004
030006
03800E
01FFFC
000000
ENDCHAR

STARTCHAR cns4_247E
ENCODING 9342
SWIDTH 960 0
DWIDTH 24 0
BBX 24 24 0 -2
BITMAP
000000
000000
300380
180300
0C0300
00230C
003FFE
033000
7FB000
063000
063000
0C3000
0C3000
1B3000
1FB000
333000
033800
061FFE
060000
0C0000
1F0000
71FFFE
000000
000000
ENDCHAR

STARTCHAR cns4_2521
ENCODING 9505
SWIDTH 960 0
DWIDTH 24 0
BBX 24 24 0 -2
BITMAP
000000
000000
300018
1800FC
0C3F80
000300
000300
060300
7F030C
06FFFE
0C0300
0C0300
180300
1B0300
1F8300
330300
030300
060300
060300
0C0300
1F0000
71FFFE
000000
000000
ENDCHAR

STARTCHAR cns4_2522
ENCODING 9506
SWIDTH 960 0
DWIDTH 24 0
BBX 24 24 0 -2
BITMAP
000000
000000
300000
18000C
0C7FFE
000630
000630
030630
7F8630
060630
060630
0C0630
0C0630
1B0630
1F8630
330C30
030C30
061830
063030
0C6030
1F0000
31FFFE
000000
000000
ENDCHAR

STARTCHAR cns4_2523
ENCODING 9507
SWIDTH 960 0
DWIDTH 24 0
BBX 24 24 0 -2
BITMAP
000000
000000
300000
180018
0C1FFC
000000
000000
06000C
7F7FFE
060C00
0C0C18
0C1FFC
181818
1B0018
3F8018
030018
030030
060030
0603F0
0C00E0
1F0000
71FFFE
000000
000000
ENDCHAR

STARTCHAR cns4_2524
ENCODING 9508
SWIDTH 960 0
DWIDTH 24 0
BBX 24 24 0 -2
BITMAP
000000
000000
300000
1C4018
0E7FFC
006018
006018
066018
7F6018
066018
067FF8
0C6018
0C6000
1B6004
1FE004
336004
036006
06700E
063FFC
0C0000
1F0000
71FFFE
000000
000000
ENDCHAR

STARTCHAR cns4_2525
ENCODING 9509
SWIDTH 960 0
DWIDTH 24 0
BBX 24 24 0 -2
BITMAP
000000
00610C
1FF1FE
06618C
06618C
06618C
066198
066198
066198
0661B0
0661B0
7FF998
066198
06618C
06618C
066186
066186
06618E
0661FC
066198
066D80
7FFF80
000180
000000
ENDCHAR

STARTCHAR cns4_2526
ENCODING 9510
SWIDTH 960 0
DWIDTH 24 0
BBX 24 24 0 -2
BITMAP
000000
01C20C
0183FE
01830C
01830C
01B318
3FFB18
018330
018330
01B360
3FFB30
0C3318
0C3318
06630C
06630C
03C30C
03C30C
01831C
03C3F8
06E330
0C7B00
183300
700300
000000
ENDCHAR

STARTCHAR cns4_2527
ENCODING 9511
SWIDTH 960 0
DWIDTH 24 0
BBX 24 24 0 -2
BITMAP
000000
01C10C
0181FE
01818C
018D8C
7FFF8C
018198
018198
218DB0
3FFFB0
318DB0
318D98
318D98
318D98
318D8C
318D8C
318D8C
318D9C
31BDF8
3199B0
018180
018180
018180
000000
ENDCHAR

STARTCHAR cns4_2528
ENCODING 9512
SWIDTH 960 0
DWIDTH 24 0
BBX 24 24 0 -2
BITMAP
000000
01C10C
0181FE
01818C
01818C
018198
018198
0DE1B0
0DB1B0
19B198
199998
31998C
31818E
619986
019D86
1FB986
033186
00618E
00C1FC
018198
030180
0E0180
380180
000000
ENDCHAR

STARTCHAR cns4_2529
ENCODING 9513
SWIDTH 960 0
DWIDTH 24 0
BBX 24 24 0 -2
BITMAP
000000
000000
00010C
0019FE
7FFD8C
030198
060198
0631B0
0C39B0
3C71B0
186198
0CC198
06C18C
07818C
038186
033186
061986
0C198E
19FDFC
7F8D98
300D80
000D80
000000
000000
ENDCHAR

STARTCHAR cns4_252A
ENCODING 9514
SWIDTH 960 0
DWIDTH 24 0
BBX 24 24 0 -2
BITMAP
000000
000000
001D0C
00F1FE
3F818C
018198
018198
018198
0181B0
0181B0
0199B0
3FFD98
018198
01818C
01818C
018186
018186
018D8E
01F9FC
03C198
3F0180
180180
000180
000000
ENDCHAR

STARTCHAR cns4_252B
ENCODING 9515
SWIDTH 960 0
DWIDTH 24 0
BBX 24 24 0 -2
BITMAP
000000
000000
010060
01FFF0
018000
018060
01FFF0
018000
018000
018060
01FFF0
018000
018000
018018
3FFFFC
00C000
00C000
018060
018030
030030
063FF8
1FE018
0C0018
000000
ENDCHAR

STARTCHAR cns4_252C
ENCODING 9516
SWIDTH 960 0
DWIDTH 24 0
BBX 24 24 0 -2
BITMAP
000000
218E00
3FCC00
318C0C
319FFE
331800
333030
366FF8
360000
330060
331FF0
318060
3180C0
30C180
30C300
31C300
3F8600
330604
300C04
300C06
300E0E
3007FC
300000
000000
ENDCHAR

STARTCHAR cns4_252D
ENCODING 9517
SWIDTH 960 0
DWIDTH 24 0
BBX 24 24 0 -2
BITMAP
000000
000000
218430
3FC7F8
318630
318630
330632
330C32
360C32
36183A
33301E
330000
318030
319FF8
318C30
338660
3F0660
3603C0
300180
3003C0
300670
301C3E
30F01C
000000
ENDCHAR

STARTCHAR cns4_252E
ENCODING 9518
SWIDTH 960 0
DWIDTH 24 0
BBX 24 24 0 -2
BITMAP
000000
218000
3FC1C0
318180
318180
330180
33018C
360D8E
367F98
330DB0
330DE0
318DC0
318DE0
30CDE0
30D9B0
31D9B0
3F9998
33319C
30318E
30618C
300180
300F80
300300
000000
ENDCHAR

STARTCHAR cns4_252F
ENCODING 9519
SWIDTH 960 0
DWIDTH 24 0
BBX 24 24 0 -2
BITMAP
000000
000000
0E3B8E
0C330C
0C330C
0C330C
0C330C
0FF3FC
0C330C
0C000C
0C000C
0FFFFC
0C000C
0C000C
0C620C
0FF3FC
18630C
18630C
18630C
18630C
18630C
30630C
30630C
000000
ENDCHAR

STARTCHAR cns4_2530
ENCODING 9520
SWIDTH 960 0
DWIDTH 24 0
BBX 24 24 0 -2
BITMAP
000000
01C000
0181C0
018180
019980
1FFD80
0C3180
0C3180
066180
066180
00D980
7FFD80
018180
018180
018180
019980
3FFD80
018184
018184
018184
018186
0181CE
0180FC
000000
ENDCHAR

STARTCHAR cns4_2531
ENCODING 9521
SWIDTH 960 0
DWIDTH 24 0
BBX 24 24 0 -2
BITMAP
000000
038000
0308F8
036F80
7FFC00
030C0C
036FFE
03D860
7F1860
331860
033060
1F6060
060300
03FF80
000E00
003800
006000
00C004
018004
030004
070006
07000E
03FFFC
000000
ENDCHAR

STARTCHAR cns4_2532
ENCODING 9522
SWIDTH 960 0
DWIDTH 24 0
BBX 24 24 0 -2
BITMAP
000000
000000
000018
3FFFFC
0180E0
0180C0
0300C0
030180
066198
0C7B18
386730
0CC330
07C1E0
0380C0
0380C0
0301B0
06C318
0C667C
3FFFCC
106400
00000C
7FFFFE
000000
000000
ENDCHAR

STARTCHAR cns4_2533
ENCODING 9523
SWIDTH 960 0
DWIDTH 24 0
BBX 24 24 0 -2
BITMAP
000000
001C00
001800
00180C
7FFFFE
001800
1FFFF8
181818
181818
183DF8
187E30
18DB80
0199C0
0318F0
0E187E
381830
0000C0
07FFE0
000000
000000
000000
00000C
3FFFFE
000000
ENDCHAR

STARTCHAR cns4_2534
ENCODING 9524
SWIDTH 960 0
DWIDTH 24 0
BBX 24 24 0 -2
BITMAP
000000
001C00
001800
00180C
7FFFFE
000000
000000
200018
3FFFFC
300018
300018
310318
31FF98
318318
318318
318318
318318
31FF18
318318
300018
300018
3FFFF8
300018
000000
ENDCHAR

STARTCHAR cns4_2535
ENCODING 9525
SWIDTH 960 0
DWIDTH 24 0
BBX 24 24 0 -2
BITMAP
000000
000000
0380E0
0300C0
0300C0
0300C0
0701C0
0701E0
0D8330
0CC318
186618
300C00
0399C0
030180
030180
030180
070180
078380
0EC3C0
0C6660
186638
300C1E
60380C
000000
ENDCHAR

STARTCHAR cns4_2536
ENCODING 9526
SWIDTH 960 0
DWIDTH 24 0
BBX 24 24 0 -2
BITMAP
000000
0301C0
038180
0301E0
0301B0
06018C
06FFFE
0600C0
0E00C0
0E00C0
1E06C0
36FFC0
6618C0
0618C0
0618C0
061860
061860
061F62
061C32
06F032
06401A
06001E
06000E
000000
ENDCHAR

STARTCHAR cns4_2537
ENCODING 9527
SWIDTH 960 0
DWIDTH 24 0
BBX 24 24 0 -2
BITMAP
000000
0300C0
0380C0
0300D8
0300CC
0600C0
06FFFE
0E00C0
0E00C0
1E38C0
1E30DC
3630D8
6630D8
063CF8
067070
07F070
06B060
0630E2
0660F2
0661B2
06C31A
07861E
061C0E
000000
ENDCHAR

STARTCHAR cns4_2538
ENCODING 9528
SWIDTH 960 0
DWIDTH 24 0
BBX 24 24 0 -2
BITMAP
000000
030380
038300
030300
060300
060330
0603F8
0C0300
0C0300
1C030C
1DFFFE
3C0300
6C0300
0C3B00
0C3330
0C6318
0C6318
0CC30C
0CC30C
0D830C
0C0300
0C3F00
0C0E00
000000
ENDCHAR

STARTCHAR cns4_2539
ENCODING 9529
SWIDTH 960 0
DWIDTH 24 0
BBX 24 24 0 -2
BITMAP
000000
060CC0
070CC0
060CC0
0C0CC0
0C0CC0
0C8CCC
1CFFFE
1CCCCC
3CCCCC
3CCCCC
6CCCCC
0CCCCC
0CFFFC
0CCCCC
0CCCCC
0CCCCC
0CCCCC
0CCCCC
0CCCCC
0CCCCC
0CFFFC
0CC00C
000000
ENDCHAR

STARTCHAR cns4_253A
ENCODING 9530
SWIDTH 960 0
DWIDTH 24 0
BBX 24 24 0 -2
BITMAP
000000
000E00
070CE0
06ECC0
06CCC0
0CCCC0
0CCCCC
18CDFE
18CD8C
38CD8C
38CD8C
78CFD8
18CED8
18CC78
18CC70
18FC30
1BCC70
198C70
180C70
180CD8
180D8C
180F06
180C00
000000
ENDCHAR

STARTCHAR cns4_253B
ENCODING 9531
SWIDTH 960 0
DWIDTH 24 0
BBX 24 24 0 -2
BITMAP
000000
030000
0381C0
030180
06218C
063FFE
06600C
0E6008
0CC070
1C0060
1C006C
3CFFFE
6C0060
0C0060
0C1860
0C0C60
0C0660
0C0060
0C0060
0C0060
0C0060
0C07E0
0C01C0
000000
ENDCHAR

STARTCHAR cns4_253C
ENCODING 9532
SWIDTH 960 0
DWIDTH 24 0
BBX 24 24 0 -2
BITMAP
000000
03400C
03FFFE
036000
036000
066000
066FFC
0E60C0
0C60C0
1C60C0
1C60C0
3C67F8
6C60C0
0C60C0
0C60C0
0C60C0
0C60C0
0C6FFC
0C6000
0C6000
0C600C
0C7FFE
0C6000
000000
ENDCHAR

STARTCHAR cns4_253D
ENCODING 9533
SWIDTH 960 0
DWIDTH 24 0
BBX 24 24 0 -2
BITMAP
000000
063800
073000
063000
06600C
0C7FFE
0CC000
0DC018
1F7FFC
1C6330
3C6330
3C6330
6C6334
0FFFFE
0C6630
0C6630
0CC630
0CC630
0CC634
0CFFFE
0CC070
0C07E0
0C00C0
000000
ENDCHAR

STARTCHAR cns4_253E
ENCODING 9534
SWIDTH 960 0
DWIDTH 24 0
BBX 24 24 0 -2
BITMAP
000000
001C00
001C00
003600
006300
00C180
0180E0
03037E
0EFFB8
380000
000030
0FFFF8
000C00
038C00
030C00
030C30
030FF8
030C00
030C00
030C00
030C00
030C0C
7FFFFE
000000
ENDCHAR

STARTCHAR cns4_253F
ENCODING 9535
SWIDTH 960 0
DWIDTH 24 0
BBX 24 24 0 -2
BITMAP
000000
01C070
018060
018060
01B06C
1FFBFE
018060
018060
1D8760
198660
198660
19B66C
1FFFFE
33C660
03CCF0
03C0F0
06C0F0
06C1B0
0CD9B4
0CF334
18E336
31C636
608C1C
000000
ENDCHAR

STARTCHAR cns4_2540
ENCODING 9536
SWIDTH 960 0
DWIDTH 24 0
BBX 24 24 0 -2
BITMAP
000000
000380
000300
300330
187FF8
0C0330
0C0334
00FFFE
030330
030330
060330
067FF0
0C0300
0C0318
0C7FFC
780300
18030C
18FFFE
1C0300
1C0300
180300
000300
000300
000000
ENDCHAR

STARTCHAR cns4_2541
ENCODING 9537
SWIDTH 960 0
DWIDTH 24 0
BBX 24 24 0 -2
BITMAP
000000
000000
001C00
001800
301830
1C1FF8
0C3860
003860
006CC0
03C6C0
038380
0603C0
0606F0
0C0C7E
0C3838
18FFF0
783030
183030
183030
1C3030
1C3030
0C3FF0
003030
000000
ENDCHAR

STARTCHAR cns4_2542
ENCODING 9538
SWIDTH 960 0
DWIDTH 24 0
BBX 24 24 0 -2
BITMAP
000000
000000
00400C
007FFE
30600C
18638C
0C630C
0D630C
03636C
037FFC
06630C
06630C
0C630C
0C630C
0C678C
7866CC
386C6C
186C3C
18780C
1C600C
1C600C
187FFC
00600C
000000
ENDCHAR

STARTCHAR cns4_2543
ENCODING 9539
SWIDTH 960 0
DWIDTH 24 0
BBX 24 24 0 -2
BITMAP
000000
000E00
000C00
300C60
181FF0
0C1860
0D30C0
016198
033FFC
030318
060318
060318
0CFFFE
0C0318
1C0318
780318
187FF8
180300
1C0300
1C0300
180300
003F00
000600
000000
ENDCHAR

STARTCHAR cns4_2544
ENCODING 9540
SWIDTH 960 0
DWIDTH 24 0
BBX 24 24 0 -2
BITMAP
000000
080030
0FFFF8
0C0030
0C7030
0C6030
0C6330
0C7FB0
0CD830
0D9830
0C1B30
0FFFB0
0C1830
0C1830
0DD9F0
0D99B0
0D99B2
19999A
19FF9A
19819A
31818E
30000E
600006
000000
ENDCHAR

STARTCHAR cns4_2545
ENCODING 9541
SWIDTH 960 0
DWIDTH 24 0
BBX 24 24 0 -2
BITMAP
000000
080030
0FFFF8
0C0030
0C0030
0C01B0
0FFFF0
0C1830
0C1830
0D3030
0DFFF0
0D81B0
0D81B0
0D81B0
0D81B0
0DFFB0
0D8198
0D819A
19819A
19FF9A
19818E
30000E
600006
000000
ENDCHAR

STARTCHAR cns4_2546
ENCODING 9542
SWIDTH 960 0
DWIDTH 24 0
BBX 24 24 0 -2
BITMAP
000000
000000
003230
0C63F8
06C330
038330
07C330
1C6330
73B330
030330
031B30
3FFF30
060330
06C330
0CC330
0CC330
0D8330
198634
1B4634
366634
3FEC36
666C36
00181C
000000
ENDCHAR

STARTCHAR cns4_2547
ENCODING 9543
SWIDTH 960 0
DWIDTH 24 0
BBX 24 24 0 -2
BITMAP
000000
01C00E
01800C
0180EC
0180CC
018CCC
7FFECC
0180CC
0180CC
0180CC
0198CC
3FFCCC
0000CC
0000CC
1018CC
1FFCCC
1818CC
18180C
18180C
18180C
18180C
1FF9FC
181838
000000
ENDCHAR

STARTCHAR cns4_2548
ENCODING 9544
SWIDTH 960 0
DWIDTH 24 0
BBX 24 24 0 -2
BITMAP
000000
038000
03000E
0300EC
0780CC
06C0CC
0C60CC
0C38CC
181ECC
306CCC
6FF0CC
0000CC
0000CC
1018CC
1FFCCC
1818CC
1818CC
18180C
18180C
18180C
18180C
1FF8FC
181838
000000
ENDCHAR

STARTCHAR cns4_2549
ENCODING 9545
SWIDTH 960 0
DWIDTH 24 0
BBX 24 24 0 -2
BITMAP
000000
03B80E
03300C
0330EC
0330CC
0334CC
1B3ECC
0F38CC
0730CC
0330CC
0330CC
03F0CC
03B8CC
0F3CCC
1B36CC
0330CC
06300C
06340C
06340C
0C340C
0C36FC
183638
701C00
000000
ENDCHAR

STARTCHAR cns4_254A
ENCODING 9546
SWIDTH 960 0
DWIDTH 24 0
BBX 24 24 0 -2
BITMAP
000000
00000E
0E000C
0C00EC
0C00CC
1818CC
1FFCCC
3180CC
6180CC
0180CC
018CCC
3FFECC
0180CC
0180CC
1D9CCC
1998CC
1998CC
1998CC
19980C
19980C
1FF80C
1818FC
000018
000000
ENDCHAR

STARTCHAR cns4_254B
ENCODING 9547
SWIDTH 960 0
DWIDTH 24 0
BBX 24 24 0 -2
BITMAP
000000
00000E
07000C
0600EC
0618CC
0FFCCC
0C30CC
1E60CC
77C0CC
0380CC
0300CC
06E0CC
1CCCCC
71FECC
0318CC
0618CC
0F30CC
19E0CC
00C00C
01800C
03000C
0E00FC
380038
000000
ENDCHAR

STARTCHAR cns4_254C
ENCODING 9548
SWIDTH 960 0
DWIDTH 24 0
BBX 24 24 0 -2
BITMAP
000000
03800E
03000C
03180C
07FCEC
0618CC
0E18CC
1B30CC
31E0CC
00C0CC
01E0CC
0378CC
063FCC
0C1CCC
380CCC
0FFECC
0C0CCC
0C0CCC
0C0C0C
0C0C0C
0FFC0C
0C0CFC
0C0C38
000000
ENDCHAR

STARTCHAR cns4_254D
ENCODING 9549
SWIDTH 960 0
DWIDTH 24 0
BBX 24 24 0 -2
BITMAP
000000
000000
01C00E
01800C
03C0EC
0360CC
0638CC
0C1ECC
180FCC
3018CC
6FFCCC
00C0CC
00C0CC
00C0CC
00D8CC
0FFCCC
00C0CC
00C00C
00C00C
00CF0C
01F80C
1F00FC
0C0038
000000
ENDCHAR

STARTCHAR cns4_254E
ENCODING 9550
SWIDTH 960 0
DWIDTH 24 0
BBX 24 24 0 -2
BITMAP
000000
00000E
00C00C
00C00C
01E0EC
01E0CC
0330CC
0618CC
0C0ECC
1807CC
3018CC
07FCCC
0000CC
000CCC
3FFECC
0180CC
0180CC
01800C
03180C
060C0C
1FFE0C
0C067C
000018
000000
ENDCHAR

STARTCHAR cns4_254F
ENCODING 9551
SWIDTH 960 0
DWIDTH 24 0
BBX 24 24 0 -2
BITMAP
000000
000000
1870E0
1860C0
0CC0C0
0CD0C0
7FF8C0
0CC0CC
0CCFFE
0CC18C
0CC18C
0CD98C
7FFD8C
0CC18C
0CC18C
0CC30C
0CC30C
18C30C
18C60C
18C60C
30CC1C
30CDF8
60D870
000000
ENDCHAR

STARTCHAR cns4_2550
ENCODING 9552
SWIDTH 960 0
DWIDTH 24 0
BBX 24 24 0 -2
BITMAP
000000
00000E
0019CC
3FFD8C
03018C
06318C
0FF98C
18318C
3E618C
63C18C
01818C
03007C
0E3818
383000
003030
0FFFF8
003030
006030
006030
00C030
018070
070FE0
1C01C0
000000
ENDCHAR

STARTCHAR cns4_2551
ENCODING 9553
SWIDTH 960 0
DWIDTH 24 0
BBX 24 24 0 -2
BITMAP
000000
018000
01C000
018000
03000C
03FFFE
06300C
0C380C
186C0C
70C70C
0183CC
03FDEC
0E000C
02018C
03FFCC
03018C
03018C
03018C
03FF8C
030198
000018
0001F8
000070
000000
ENDCHAR

STARTCHAR cns4_2552
ENCODING 9554
SWIDTH 960 0
DWIDTH 24 0
BBX 24 24 0 -2
BITMAP
000000
018000
01C000
018000
03000C
03FFFE
06000C
0C380C
19330C
71FF8C
01830C
01B30C
019B0C
0183EC
07FF0C
1DB30C
01B30C
01B30C
03330C
030318
063F18
0C06F8
000030
000000
ENDCHAR

STARTCHAR cns4_2553
ENCODING 9555
SWIDTH 960 0
DWIDTH 24 0
BBX 24 24 0 -2
BITMAP
000000
040030
07FFF8
060C30
060C30
060C30
07FFF0
060C30
060C30
061830
07FFF0
063030
006300
00C300
00030C
3FFFFE
000300
000300
000300
000300
000300
000300
000300
000000
ENDCHAR

STARTCHAR cns4_2554
ENCODING 9556
SWIDTH 960 0
DWIDTH 24 0
BBX 24 24 0 -2
BITMAP
000000
001C00
001800
001860
001FF0
381800
341830
37FFF8
360030
36C1B0
3661B0
363330
361B30
360E30
361F30
3673B0
37C1B0
360030
37FFF0
360030
30000C
3FFFFE
300000
000000
ENDCHAR

STARTCHAR cns4_2555
ENCODING 9557
SWIDTH 960 0
DWIDTH 24 0
BBX 24 24 0 -2
BITMAP
000000
0370E0
0360C0
0360C0
0360C0
3364C0
1B66C0
0F6CC0
0F78C0
0770E0
0360F0
0360DC
0770CE
0778C6
0F6CC0
1B66C0
3660C0
0660C0
0662C0
0C62C0
0C76C0
183EC0
7000C0
000000
ENDCHAR

STARTCHAR cns4_2556
ENCODING 9558
SWIDTH 960 0
DWIDTH 24 0
BBX 24 24 0 -2
BITMAP
000000
00010C
0031FE
0C618C
06C18C
03C18C
07E18C
1C718C
73B18C
03018C
03198C
1FFD8C
03018C
06E18C
06C18C
06C1BC
0CC198
0DB180
199980
1B3D80
37ED80
630D80
000180
000000
ENDCHAR

STARTCHAR cns4_2557
ENCODING 9559
SWIDTH 960 0
DWIDTH 24 0
BBX 24 24 0 -2
BITMAP
000000
1C020C
1803FE
18030C
30630C
3FF30C
33030C
63030C
03030C
03030C
03330C
7FFB0C
03030C
03030C
3B3B7C
333318
333300
333300
333300
333300
3FF300
303300
000300
000000
ENDCHAR

STARTCHAR cns4_2558
ENCODING 9560
SWIDTH 960 0
DWIDTH 24 0
BBX 24 24 0 -2
BITMAP
000000
000000
08000C
0FFFFE
0C0000
0C0700
0C0600
0C0660
0C07F0
0C0600
0C0600
0C060C
0DFFFE
0C0600
0C36C0
0C6660
0C6630
18C630
18C618
198618
318600
303E00
600C00
000000
ENDCHAR

STARTCHAR cns4_2559
ENCODING 9561
SWIDTH 960 0
DWIDTH 24 0
BBX 24 24 0 -2
BITMAP
000000
001C00
00180C
3FFFFE
001800
041830
07FFF8
061830
061830
07FFF0
061830
061830
07FFF0
060030
003000
003800
003000
006180
0060C0
00C060
0187F0
1FFC18
0C0018
000000
ENDCHAR

STARTCHAR cns4_255A
ENCODING 9562
SWIDTH 960 0
DWIDTH 24 0
BBX 24 24 0 -2
BITMAP
000000
000000
101800
1FFC0C
181BFE
181B0C
181B0C
181B0C
1FFB18
199998
198198
199998
1FFDB0
1D99B0
1D98F0
3D98E0
3D98E0
3D98E0
3D99E0
6DF9B0
6DB338
61861E
018C0C
000000
ENDCHAR

STARTCHAR cns4_255B
ENCODING 9563
SWIDTH 960 0
DWIDTH 24 0
BBX 24 24 0 -2
BITMAP
000000
000000
000C00
000600
000300
230300
3F800C
337FFE
330180
330180
330180
330180
3301B0
331FF8
330180
330180
3F0180
330180
000180
000180
00018C
00FFFE
000000
000000
ENDCHAR

STARTCHAR cns4_255C
ENCODING 9564
SWIDTH 960 0
DWIDTH 24 0
BBX 24 24 0 -2
BITMAP
000000
000C38
01FE30
000C30
460C30
7F0C30
660C30
668C30
66FC30
66CC30
66C030
66CC60
66FE60
678C60
660C60
660C68
7E0CCC
660CCC
600CC6
001986
001BFE
01F986
007000
000000
ENDCHAR

STARTCHAR cns4_255D
ENCODING 9565
SWIDTH 960 0
DWIDTH 24 0
BBX 24 24 0 -2
BITMAP
000000
000EC0
000C60
000C30
418C30
7FCC00
618C0C
61FFFE
618C00
618C70
618C60
618C60
619C60
619CC0
7F9EC0
61B6C0
61B380
003380
0063C0
0066E0
00CC78
01983E
033018
000000
ENDCHAR

STARTCHAR cns4_255E
ENCODING 9566
SWIDTH 960 0
DWIDTH 24 0
BBX 24 24 0 -2
BITMAP
000000
00000C
007FFE
41830C
7FC30C
61830C
61860C
61860C
618C0C
6198FC
61B038
61E000
61900C
619FFE
61980C
7F980C
61980C
60180C
00180C
00180C
00180C
001FFC
00180C
000000
ENDCHAR

STARTCHAR cns4_255F
ENCODING 9567
SWIDTH 960 0
DWIDTH 24 0
BBX 24 24 0 -2
BITMAP
000000
000000
00200C
41BFFE
7FF00C
61B00C
61B00C
61B00C
61B00C
61B00C
61B00C
61B00C
61B00C
61BFFC
61B00C
7F8CC0
618E60
000C30
001818
00180C
00300C
006006
01C006
000000
ENDCHAR

STARTCHAR cns4_2560
ENCODING 9568
SWIDTH 960 0
DWIDTH 24 0
BBX 24 24 0 -2
BITMAP
000000
003800
0030E0
0030C0
4C6EC0
7E6CC0
6C6CD8
6CCCFC
6DCCD8
6FCFD8
6CFCD8
6CCCD8
6CCCD8
6CCCD8
6CCCD8
6CCCD8
7CCCC4
6CCCC4
00CCC4
00CC06
00CE0E
00C7FC
00C000
000000
ENDCHAR

STARTCHAR cns4_2561
ENCODING 9569
SWIDTH 960 0
DWIDTH 24 0
BBX 24 24 0 -2
BITMAP
000000
000000
000700
230600
3F8700
330D80
330CC0
331870
33303E
336398
33C300
330300
333300
333B30
3F3318
336318
30630C
00C30C
018300
000300
000300
001F00
000600
000000
ENDCHAR

STARTCHAR cns4_2562
ENCODING 9570
SWIDTH 960 0
DWIDTH 24 0
BBX 24 24 0 -2
BITMAP
000000
000380
000300
000300
430300
7F830C
637FFE
630300
630300
631B70
631B60
631860
631860
63186C
63FFFE
631860
7F1860
631860
601860
003060
003060
006060
01C060
000000
ENDCHAR

STARTCHAR cns4_2563
ENCODING 9571
SWIDTH 960 0
DWIDTH 24 0
BBX 24 24 0 -2
BITMAP
000000
000000
00000C
437FFE
7F800C
63000C
6300CC
637FEC
63000C
63000C
63218C
633FCC
63318C
63318C
63318C
7F318C
633F8C
60318C
00000C
00000C
00000C
0000FC
000018
000000
ENDCHAR

STARTCHAR cns4_2564
ENCODING 9572
SWIDTH 960 0
DWIDTH 24 0
BBX 24 24 0 -2
BITMAP
000000
000018
0020FC
433F80
7FB000
63300C
633FFE
63300C
63300C
633FFC
63300C
633030
633FF8
633070
6330C0
7F3180
633300
603604
006604
006C04
006C06
00CE0E
00C7FC
000000
ENDCHAR

STARTCHAR cns4_2565
ENCODING 9573
SWIDTH 960 0
DWIDTH 24 0
BBX 24 24 0 -2
BITMAP
000000
0001C0
0E0180
0C0180
0C218C
0C3FFE
0C300C
0C300C
7F6008
0C0000
0C000C
0C3FFE
0C0180
0C0180
0C0180
0C0180
0F8180
7C0180
300180
000180
000180
000F80
000300
000000
ENDCHAR

STARTCHAR cns4_2566
ENCODING 9574
SWIDTH 960 0
DWIDTH 24 0
BBX 24 24 0 -2
BITMAP
000000
000000
000380
0E0300
0C430C
0C7FFE
0C600C
0C600C
0C6CC8
7FCFE0
0C0CC0
0C0CC0
0C0CC0
0C1860
0C1860
0C1860
0DB060
0F3030
1C3030
706038
20601C
00C01E
01800C
000000
ENDCHAR

STARTCHAR cns4_2567
ENCODING 9575
SWIDTH 960 0
DWIDTH 24 0
BBX 24 24 0 -2
BITMAP
000000
000380
0E0300
0C0300
0C0300
0C0300
0C0318
0C7FFC
0D8300
7FC300
0C0300
0C0330
0C3FF8
0C0700
0C0F80
0D8FC0
0F1B60
7C3338
30631E
01C30C
000300
000300
000300
000000
ENDCHAR

STARTCHAR cns4_2568
ENCODING 9576
SWIDTH 960 0
DWIDTH 24 0
BBX 24 24 0 -2
BITMAP
000000
000700
0E0660
0C0630
0C0630
0C0600
0C060C
0D3FFE
7F8600
0C0630
0C0E30
0C0E30
0C0E60
0C0E60
0C1F60
0F9BC0
0E1BC0
7831C0
3033C0
006360
00C638
019C1E
00700C
000000
ENDCHAR

STARTCHAR cns4_2569
ENCODING 9577
SWIDTH 960 0
DWIDTH 24 0
BBX 24 24 0 -2
BITMAP
000000
0E0060
0C41F0
0C7F60
0C6660
0C6660
0C6660
0C6660
0D6660
7FE660
0C6660
0C6660
0C6660
0C6660
0C6660
0C6660
0F6630
1CC630
70C7B0
20C6D8
0187DC
01BCCE
031804
000000
ENDCHAR

STARTCHAR cns4_256A
ENCODING 9578
SWIDTH 960 0
DWIDTH 24 0
BBX 24 24 0 -2
BITMAP
000000
003800
003000
003000
006000
0060C0
00C070
1FFFF8
073018
003800
003000
00600C
7FFFFE
0181C0
030070
061C1E
1C1800
7FFFFC
001800
001800
001800
00180C
3FFFFE
000000
ENDCHAR

STARTCHAR cns4_256B
ENCODING 9579
SWIDTH 960 0
DWIDTH 24 0
BBX 24 24 0 -2
BITMAP
000000
000060
0FFFF0
019800
0198C0
031860
061830
1C1830
00180C
3FFFFE
001800
001800
001800
000000
001C00
001830
1FFFF8
001800
001800
001800
00180C
7FFFFE
000000
000000
ENDCHAR

STARTCHAR cns4_256C
ENCODING 9580
SWIDTH 960 0
DWIDTH 24 0
BBX 24 24 0 -2
BITMAP
000000
000000
038000
030018
036FFC
3FF618
030618
030618
030618
033318
7FFB30
000330
038330
0331E0
3FF9E0
0300C0
0301C0
0301E0
03F360
070670
7C1C38
30701E
01C00C
000000
ENDCHAR

STARTCHAR cns4_256D
ENCODING 9581
SWIDTH 960 0
DWIDTH 24 0
BBX 24 24 0 -2
BITMAP
000000
0E0000
0C400C
0C7FFE
0C600C
0C600C
0C600C
0D7FFC
7FE00C
0C6380
0C6300
0C6300
0C6330
0C7FF8
0DE330
0F6330
0E6330
1C6332
38C632
10C632
018C32
01983A
07701E
000000
ENDCHAR

STARTCHAR cns4_256E
ENCODING 9582
SWIDTH 960 0
DWIDTH 24 0
BBX 24 24 0 -2
BITMAP
000000
1C8C8C
18FEFE
18CCCC
18CCCC
18CCCC
18CCCC
1ACCCC
7FCCCC
18CCCC
18CCCC
18CFCC
18CCCC
18CCCC
18C00C
1BC00C
1EC00C
78C00C
20C00C
00C00C
00C00C
00FFFC
00C00C
000000
ENDCHAR

STARTCHAR cns4_256F
ENCODING 9583
SWIDTH 960 0
DWIDTH 24 0
BBX 24 24 0 -2
BITMAP
000000
000000
00000C
3FFFFE
000000
0C1C10
06183C
0398E0
01BB80
006C00
00C700
0381E0
0E003C
78E000
06C030
03FFFC
038180
0EC300
386600
003C00
007780
01C1FC
3F0038
000000
ENDCHAR

STARTCHAR cns4_2570
ENCODING 9584
SWIDTH 960 0
DWIDTH 24 0
BBX 24 24 0 -2
BITMAP
000000
0000E0
0700C0
0600C0
060EC0
0C0CC0
0CCCC0
0FECCC
18CFFE
18D8C0
18D8C0
3DB0C0
3780C0
6380D8
030FFC
0300C0
0300C0
0600C0
0600C0
0C00C0
1800CC
301FFE
000000
000000
ENDCHAR

STARTCHAR cns4_2571
ENCODING 9585
SWIDTH 960 0
DWIDTH 24 0
BBX 24 24 0 -2
BITMAP
000000
000000
007000
006000
00600C
3FFFFE
006300
00C180
0180C0
0700F0
1D81BE
70C318
0066C0
07FFE0
001800
001800
001818
1FFFFC
001800
001800
001800
001800
001800
000000
ENDCHAR

STARTCHAR cns4_2572
ENCODING 9586
SWIDTH 960 0
DWIDTH 24 0
BBX 24 24 0 -2
BITMAP
000000
001800
001C00
001800
003018
3FFFFC
00C300
018180
0300C0
060070
0C003E
3FFFFC
060000
060000
07FFC0
0600C0
0600C0
0600C0
07FFC0
060000
060030
07FFF8
060000
000000
ENDCHAR

STARTCHAR cns4_2573
ENCODING 9587
SWIDTH 960 0
DWIDTH 24 0
BBX 24 24 0 -2
BITMAP
000000
000000
003800
003000
00300C
3FFFFE
006300
00C180
0180C0
030070
07FFFC
1D80D8
7180C0
0180C0
01FFC0
0180C0
0180C0
0180C0
01FFC0
0180C0
0180C0
0180CC
7FFFFE
000000
ENDCHAR

STARTCHAR cns4_2574
ENCODING 9588
SWIDTH 960 0
DWIDTH 24 0
BBX 24 24 0 -2
BITMAP
000000
003000
003800
00300C
3FFFFE
006300
00C180
01B8C0
033370
0661BE
1CC7D8
77FCC0
030000
00E1C0
00C180
00C198
1FFFFC
00C180
00C180
018180
018180
070180
1C0180
000000
ENDCHAR

STARTCHAR cns4_2575
ENCODING 9589
SWIDTH 960 0
DWIDTH 24 0
BBX 24 24 0 -2
BITMAP
000000
003000
003800
003000
00300C
3FFFFE
006300
00C180
0180C0
030670
07FF3E
1E0C18
760C00
060C60
07FFF0
060600
060600
060300
067B08
07C188
3E00C8
180678
03FF38
000000
ENDCHAR

STARTCHAR cns4_2576
ENCODING 9590
SWIDTH 960 0
DWIDTH 24 0
BBX 24 24 0 -2
BITMAP
000000
000000
003800
003000
00600C
3FFFFE
00C300
018180
0300C0
060FF0
1FF9BE
73199C
0318C0
0318C0
0318C0
061860
061860
061B60
0C19B0
0C1BF8
0C3EDE
1BE0CC
318000
000000
ENDCHAR

STARTCHAR cns4_2577
ENCODING 9591
SWIDTH 960 0
DWIDTH 24 0
BBX 24 24 0 -2
BITMAP
000000
003800
003000
043060
07FFF0
060060
060060
060060
07FFE0
060060
060060
060060
07FFE0
063860
00300C
3FFFFE
003000
007800
006C00
00C700
0183C0
0701FE
3C00F0
000000
ENDCHAR

STARTCHAR cns4_2578
ENCODING 9592
SWIDTH 960 0
DWIDTH 24 0
BBX 24 24 0 -2
BITMAP
000000
0701C0
060180
060180
060180
060180
06C198
3FEFFC
060180
060180
060180
06C18C
7FEFFE
060180
0701C0
0701C0
078360
0D8360
0CC630
18C630
180C18
30181E
60700C
000000
ENDCHAR

STARTCHAR cns4_2579
ENCODING 9593
SWIDTH 960 0
DWIDTH 24 0
BBX 24 24 0 -2
BITMAP
000000
001800
001C00
00380C
7FFFFE
006300
0CC19C
0780D8
060370
1DFFBE
700018
000000
000018
3FFFFC
018000
0180C0
01FFE0
0300C0
0001C0
000180
000380
003F00
000E00
000000
ENDCHAR

STARTCHAR cns4_257A
ENCODING 9594
SWIDTH 960 0
DWIDTH 24 0
BBX 24 24 0 -2
BITMAP
000000
0381C0
030180
030180
036180
03F180
03018C
1B1FFE
1B630C
1FF30C
18630C
38660C
3C6618
66C618
63CC18
01CF30
0199F0
0300E0
0300F0
0601BC
0C019E
18030C
700E00
000000
ENDCHAR

STARTCHAR cns4_257B
ENCODING 9595
SWIDTH 960 0
DWIDTH 24 0
BBX 24 24 0 -2
BITMAP
000000
0701C0
060180
060180
060180
060180
06618C
3FF1FE
0C6180
0C6180
0C6180
0CC180
18D18C
18DFFE
19980C
3D980C
67180C
03980C
06D80C
06D80C
0C1FFC
18180C
70180C
000000
ENDCHAR

STARTCHAR cns4_257C
ENCODING 9596
SWIDTH 960 0
DWIDTH 24 0
BBX 24 24 0 -2
BITMAP
000000
0E1870
0C1C60
0C1860
0C1860
0DB060
7FF06C
19B1FE
19E66C
19E66C
1B666C
1B3C6C
331C6C
3318CC
3618CC
3E3CCC
663ECC
0F66CC
0FDF8C
18F78C
18618C
30037C
600618
000000
ENDCHAR

STARTCHAR cns4_257D
ENCODING 9597
SWIDTH 960 0
DWIDTH 24 0
BBX 24 24 0 -2
BITMAP
000000
0000C0
0E00F0
0C00D8
0C00C0
0C10CC
0CDFFE
3FF8C0
0CD8C0
0CD8CC
18D8CE
18D8CC
18D8CC
18D8D8
3998D8
399870
2F1870
079872
07DB72
0CDE7A
1838DA
30119E
60030E
000000
ENDCHAR

STARTCHAR cns4_257E
ENCODING 9598
SWIDTH 960 0
DWIDTH 24 0
BBX 24 24 0 -2
BITMAP
000000
0C01C0
0E398E
0C318C
0C318C
0C318C
0DBFFC
7FF00C
198000
19A00C
19BFFE
19B000
19B000
333000
333000
3B3000
2E3000
073000
0DB000
0DE000
186000
30C000
618000
000000
ENDCHAR

STARTCHAR cns4_2621
ENCODING 9761
SWIDTH 960 0
DWIDTH 24 0
BBX 24 24 0 -2
BITMAP
000000
0E0000
0C0700
0C2C8C
0C38FE
0DB0CC
7FF7CC
19B6CC
19B6CC
19B6CC
19B6CC
19B6CC
1B36CC
3336CC
3E36CC
267ECC
0726CC
0F06FC
0D8CD8
198CC0
3018C0
6030C0
0060C0
000000
ENDCHAR

STARTCHAR cns4_2622
ENCODING 9762
SWIDTH 960 0
DWIDTH 24 0
BBX 24 24 0 -2
BITMAP
000000
0061C0
7FF180
00C180
00C300
018300
070630
060618
060C0C
06187E
067FC6
07B000
0E080C
7E0FFE
260C0C
060C0C
060C0C
060C0C
060C0C
060C0C
060C0C
7E0FFC
0C0C0C
000000
ENDCHAR

STARTCHAR cns4_2623
ENCODING 9763
SWIDTH 960 0
DWIDTH 24 0
BBX 24 24 0 -2
BITMAP
000000
001C00
0618E0
0318C0
019980
11998C
1FFFFE
18000C
18018C
37FFC8
000300
000600
001C00
001800
00180C
7FFFFE
001800
001800
001800
001800
001800
01F800
007000
000000
ENDCHAR

STARTCHAR cns4_2624
ENCODING 9764
SWIDTH 960 0
DWIDTH 24 0
BBX 24 24 0 -2
BITMAP
000000
01C1C0
018180
018180
018D80
7FFF80
018180
218D80
3FFF80
300D80
306980
6FF180
006180
01C180
01BD80
01E180
7F8180
318184
018184
018184
018186
0F81CE
0300FC
000000
ENDCHAR

STARTCHAR cns4_2625
ENCODING 9765
SWIDTH 960 0
DWIDTH 24 0
BBX 24 24 0 -2
BITMAP
000000
001C00
001800
20180C
3FFFFE
30000C
600008
000030
1FFFF8
006000
0060C0
007FE0
00C0C0
00C0C0
00E0C0
01B980
019D80
030F80
000300
000300
000600
00060C
7FFFFE
000000
ENDCHAR

STARTCHAR cns4_2626
ENCODING 9766
SWIDTH 960 0
DWIDTH 24 0
BBX 24 24 0 -2
BITMAP
000000
020060
03FFF0
030060
030060
03FFE0
030060
030060
03FFE0
030060
000030
0FFFF8
000300
00030C
3FFFFE
000300
018300
00C300
00C300
000300
000300
003F00
000600
000000
ENDCHAR

STARTCHAR cns4_2627
ENCODING 9767
SWIDTH 960 0
DWIDTH 24 0
BBX 24 24 0 -2
BITMAP
000000
1C01C0
180180
180180
18218C
183FFE
1B318C
7FB188
1B3180
1B3198
1B3FFC
1B6C30
1B6630
1B6660
1B6360
1B61C0
1BC1C0
1BC3E0
338E34
33381C
330006
63800E
61FFFC
C00000
ENDCHAR

STARTCHAR cns4_2628
ENCODING 9768
SWIDTH 960 0
DWIDTH 24 0
BBX 24 24 0 -2
BITMAP
000000
0E0000
0C0380
0C0300
0C0300
0CC30C
7FEFFE
0D8600
0D8600
0D8600
0D8C30
0D8FF8
0D98C0
0D98C0
0DB0C0
0DE0C0
1980C0
1980CC
19BFFE
318002
318002
61C006
60FFFE
C00000
ENDCHAR

STARTCHAR cns4_2629
ENCODING 9769
SWIDTH 960 0
DWIDTH 24 0
BBX 24 24 0 -2
BITMAP
000000
000000
0EC000
0CC000
186018
183FFC
301980
300180
6EE180
0CC180
0CC180
0CC1B0
0CDFF8
0CC180
0CC180
0CC180
0CC180
0CC198
18FFFC
18C004
18C006
30E00E
607FFC
000000
ENDCHAR

STARTCHAR cns4_262A
ENCODING 9770
SWIDTH 960 0
DWIDTH 24 0
BBX 24 24 0 -2
BITMAP
000000
080018
0FFFFC
0C0018
0C0018
0C0018
0C0018
0FFFF8
0C0798
0C7C00
0FD800
0C1800
0C18C0
0FFFE0
0C0180
0C0300
0C0E00
19B800
19E000
1B6000
333800
360FFE
660078
000000
ENDCHAR

STARTCHAR cns4_262B
ENCODING 9771
SWIDTH 960 0
DWIDTH 24 0
BBX 24 24 0 -2
BITMAP
000000
080018
0FFFFC
0C0018
0C0018
0C0018
0FFFF8
0CE018
0CC0C0
0CC0C0
0D8060
0F7038
0C619C
0CFFC0
0DE180
0F6180
0C3300
181E00
180E00
181B80
3071FC
31C0F0
6F0000
000000
ENDCHAR

STARTCHAR cns4_262C
ENCODING 9772
SWIDTH 960 0
DWIDTH 24 0
BBX 24 24 0 -2
BITMAP
000000
080018
0FFFFC
0C0018
0C0018
0C0018
0FFFF8
0C0C18
0C0CE0
0C0F80
0D3E00
0DEC00
0D8C00
0D8C30
0DFFF8
0D9C30
0C3C30
186C30
18CC30
198FF0
370CE0
300C00
600C00
000000
ENDCHAR

STARTCHAR cns4_262D
ENCODING 9773
SWIDTH 960 0
DWIDTH 24 0
BBX 24 24 0 -2
BITMAP
000000
001C00
0E1838
0C1830
0C1830
0C1830
0FFFF0
0C3030
006000
0200C0
03FFE0
0330C0
0318C0
030CCC
7FFFFE
0630C0
0618C0
060CC0
0C0CD8
0FFFFC
0C0180
001F80
000700
000000
ENDCHAR

STARTCHAR cns4_262E
ENCODING 9774
SWIDTH 960 0
DWIDTH 24 0
BBX 24 24 0 -2
BITMAP
000000
0E01C0
0C01B0
0C0198
0C0180
0C218C
6DBFFE
6DB1E0
6DB180
6DB198
6DB19C
6DB198
6DB198
6DB1B0
6DB1B0
6DB0F0
6DB0E0
7FB0E2
61B6E2
61BCE2
01F1B2
00331E
000E0E
000000
ENDCHAR

STARTCHAR cns4_262F
ENCODING 9775
SWIDTH 960 0
DWIDTH 24 0
BBX 24 24 0 -2
BITMAP
000000
0E0000
0C2018
0C3FFC
0C3018
0C3018
6DB018
6DB018
6DB018
6DB018
6DB018
6DBFF8
6DB6D8
6D86C0
6D86C0
6D86C0
6D8CC0
6D8CC4
7F98C4
6198C4
0030C6
0060E6
00C07C
000000
ENDCHAR

STARTCHAR cns4_2630
ENCODING 9776
SWIDTH 960 0
DWIDTH 24 0
BBX 24 24 0 -2
BITMAP
000000
0E0018
0C20FC
0C3F80
0C3000
0C300C
6DBFFE
6DB00C
6DB00C
6DBFFC
6DB00C
6DB030
6DBFF8
6DB060
6DB0C0
6DB180
6DB300
6DF604
7FE604
61EC04
006C06
00C60E
00C3FC
000000
ENDCHAR

STARTCHAR cns4_2631
ENCODING 9777
SWIDTH 960 0
DWIDTH 24 0
BBX 24 24 0 -2
BITMAP
000000
001C00
0E1838
0C1830
0C1830
0C1830
0FFFF0
020060
03FFF0
030060
030060
03FFE0
030060
00000C
3FFFFE
018000
018060
03FFF0
030060
000060
0000E0
000FC0
000380
000000
ENDCHAR

STARTCHAR cns4_2632
ENCODING 9778
SWIDTH 960 0
DWIDTH 24 0
BBX 24 24 0 -2
BITMAP
000000
000300
07FF80
000300
000600
00DC18
1FFA3C
00DB70
019FC0
019980
0318C0
061870
0CF83E
183018
700000
001C00
0E1838
0C1830
0C1830
0C1830
0C1830
0FFFF0
0C0030
000000
ENDCHAR

STARTCHAR cns4_2633
ENCODING 9779
SWIDTH 960 0
DWIDTH 24 0
BBX 24 24 0 -2
BITMAP
000000
003800
003038
1C3030
183030
183030
1FFFF0
180030
000000
1FFFFC
180000
1A0060
1BFFF0
1B0060
1B0060
1B0060
1B0060
1BFFE0
1B0060
1B0000
180018
1FFFFC
180000
000000
ENDCHAR

STARTCHAR cns4_2634
ENCODING 9780
SWIDTH 960 0
DWIDTH 24 0
BBX 24 24 0 -2
BITMAP
000000
001C00
001800
1C1838
181830
181830
181830
1FFFF0
180030
000000
080030
0FFFF8
0C1830
0C1830
0C1830
0C1830
0FFFF0
0C1830
0C1830
0C1830
0FFFF0
0C0030
0C0030
000000
ENDCHAR

STARTCHAR cns4_2635
ENCODING 9781
SWIDTH 960 0
DWIDTH 24 0
BBX 24 24 0 -2
BITMAP
000000
0E00E0
0C00C0
0C00C0
0C10CC
4D9FFE
7FD80C
6D980C
6DB008
6D8000
6D800C
6DBFFE
6D80C0
6D80C0
6D80C0
6D80C0
6F80C0
6D00C0
0C00C0
0C00C0
0C00C0
0C0FC0
0C0180
000000
ENDCHAR

STARTCHAR cns4_2636
ENCODING 9782
SWIDTH 960 0
DWIDTH 24 0
BBX 24 24 0 -2
BITMAP
000000
0E0600
0C0700
0C0618
0C07FC
0C0E30
4D8E30
7FDB60
6DB1E0
6D81C0
6D83E0
6D8370
6D863E
6D9C18
6DF000
6D8300
6D8180
6F80C0
6D0000
0C0300
0C01C0
0C00E0
0C0060
000000
ENDCHAR

STARTCHAR cns4_2637
ENCODING 9783
SWIDTH 960 0
DWIDTH 24 0
BBX 24 24 0 -2
BITMAP
000000
030000
038418
0337FC
07FE18
063618
0E3618
1F66F8
336634
01C604
018606
03070E
061BFC
1C1800
77FFF0
061830
061830
061830
061830
061BF0
061860
001800
001800
000000
ENDCHAR

STARTCHAR cns4_2638
ENCODING 9784
SWIDTH 960 0
DWIDTH 24 0
BBX 24 24 0 -2
BITMAP
000000
000E00
000C00
080C0C
0FFFFE
0C0000
0C0000
0C0700
0C0600
0C0630
0DFFF8
0C0000
0C6060
0C6070
0C6060
0C30C0
1830C0
1830C0
183180
303180
30030C
67FFFE
600000
000000
ENDCHAR

STARTCHAR cns4_2639
ENCODING 9785
SWIDTH 960 0
DWIDTH 24 0
BBX 24 24 0 -2
BITMAP
000000
000E00
000C00
080C0C
0FFFFE
0C0000
0C1C00
0C1980
0C18C0
0C1818
0FFFFC
0C3800
0C38C0
0C3CE0
186CC0
186780
186780
18C300
318780
330CC0
361870
6C703E
61C018
000000
ENDCHAR

STARTCHAR cns4_263A
ENCODING 9786
SWIDTH 960 0
DWIDTH 24 0
BBX 24 24 0 -2
BITMAP
000000
000000
000E00
000C00
080C0C
0FFFFE
0C0000
0D0060
0DFFF0
0D8060
0D8060
0D8060
0DFFE0
0D8060
198060
198060
19FFE0
198060
318060
300000
300018
67FFFC
600000
000000
ENDCHAR

STARTCHAR cns4_263B
ENCODING 9787
SWIDTH 960 0
DWIDTH 24 0
BBX 24 24 0 -2
BITMAP
000000
000E00
000C00
080C0C
0FFFFE
0C0000
0C0000
0D0030
0DFFF8
0D8030
0D8030
0D8030
0D8030
0D8030
19FFF0
198030
180000
187180
1860C0
30C060
318038
63001C
660000
000000
ENDCHAR

STARTCHAR cns4_263C
ENCODING 9788
SWIDTH 960 0
DWIDTH 24 0
BBX 24 24 0 -2
BITMAP
000000
000E00
000C00
080C0C
0FFFFE
0C0000
0C3800
0C3000
0C300C
0C7FFE
0C6C00
0CCC00
0D8C18
0C0FFC
0C0C00
0C0C00
0C0C18
180FFC
180C00
180C00
300C00
300C00
600C00
000000
ENDCHAR

STARTCHAR cns4_263D
ENCODING 9789
SWIDTH 960 0
DWIDTH 24 0
BBX 24 24 0 -2
BITMAP
000000
000E00
000C00
080C0C
0FFFFE
0C0C00
0C1E00
0C1E00
0C3300
0C6180
0CC0E0
0DBFF8
0C0000
0C0060
1BFFF0
180060
1800C0
180180
18E700
303C00
300E00
600780
6003C0
0001C0
ENDCHAR

STARTCHAR cns4_263E
ENCODING 9790
SWIDTH 960 0
DWIDTH 24 0
BBX 24 24 0 -2
BITMAP
000000
000E00
000C00
000C00
040C0C
07FFFE
060000
063000
063030
067FF8
066600
06C600
060600
0C060C
0FFFFE
0C0700
0C0F00
0C0D80
1818C0
1830E0
306078
31C03E
670018
000000
ENDCHAR

STARTCHAR cns4_263F
ENCODING 9791
SWIDTH 960 0
DWIDTH 24 0
BBX 24 24 0 -2
BITMAP
000000
000E00
000C00
000C30
0FFFF8
000C00
000C0C
1FFFFE
00C304
00C306
01838E
0701FC
1DC180
718180
01818C
3FFFFE
018180
018180
030180
030180
060180
0C0180
180180
000000
ENDCHAR

STARTCHAR cns4_2640
ENCODING 9792
SWIDTH 960 0
DWIDTH 24 0
BBX 24 24 0 -2
BITMAP
000000
01A018
3FFFFC
01B018
01B018
01B018
01B018
11BFF8
1FB198
183180
183180
18318C
19BFFE
3FF180
31B0C0
01B0C0
01B0C0
01B060
01B062
033732
033C1A
3FE01E
0E600E
000000
ENDCHAR

STARTCHAR cns4_2641
ENCODING 9793
SWIDTH 960 0
DWIDTH 24 0
BBX 24 24 0 -2
BITMAP
000000
0181C0
3FC180
018180
01A18C
01BFFE
01B18C
21B18C
3FB188
31B180
303198
303FFC
333418
3FB630
733630
033360
033360
0331C0
0331E0
036370
07663E
7EDC18
0CC000
000000
ENDCHAR

STARTCHAR cns4_2642
ENCODING 9794
SWIDTH 960 0
DWIDTH 24 0
BBX 24 24 0 -2
BITMAP
000000
00E000
00C0C0
00FFE0
00C0C0
0180C0
01FF80
01818C
3FFFFE
033000
066700
066600
0CC618
19FFFC
338618
678618
0D8618
398618
018618
0186F8
018630
000600
000600
000000
ENDCHAR

STARTCHAR cns4_2643
ENCODING 9795
SWIDTH 960 0
DWIDTH 24 0
BBX 24 24 0 -2
BITMAP
000000
070000
060018
060030
060060
0600C0
063380
07F800
060000
06000C
060018
060030
4630E0
7FFB80
603000
603006
60300C
603018
603030
6030E0
7FF380
603E00
603000
000000
ENDCHAR

STARTCHAR cns4_2644
ENCODING 9796
SWIDTH 960 0
DWIDTH 24 0
BBX 24 24 0 -2
BITMAP
000000
000000
0001E0
043F00
07E000
060000
060018
07FFFC
060600
060600
060600
0C0600
0C0600
180600
180600
303000
09D810
098C18
198C8C
198086
3180C6
31C1C0
00FF80
000000
ENDCHAR

STARTCHAR cns4_2645
ENCODING 9797
SWIDTH 960 0
DWIDTH 24 0
BBX 24 24 0 -2
BITMAP
000000
000000
003000
007C00
00CF00
0183E0
07007E
1DC1D8
718180
018180
018180
018180
030180
030180
060180
001180
09D830
098C98
198C98
31808C
6180CC
01C1CC
00FF80
000000
ENDCHAR

STARTCHAR cns4_2646
ENCODING 9798
SWIDTH 960 0
DWIDTH 24 0
BBX 24 24 0 -2
BITMAP
000000
0E01C0
0C0180
0C0180
0C218C
1E3FFE
1EB00C
3FB00C
3C6008
6C0000
6C000C
0C7FFE
0C0180
0C0180
0C0180
0C0180
0C0180
0C0180
0C0180
0C0180
0C0180
0C1F80
0C0700
000000
ENDCHAR

STARTCHAR cns4_2647
ENCODING 9799
SWIDTH 960 0
DWIDTH 24 0
BBX 24 24 0 -2
BITMAP
000000
0E0380
0C0300
0C0300
0C0300
0C0300
1E0318
1F7FFC
3D0300
3C0300
6C0300
6C0330
0C3FF8
0C0700
0C0780
0C0FC0
0C1B60
0C3338
0CE31E
0F830C
0C0300
0C0300
0C0300
000000
ENDCHAR

STARTCHAR cns4_2648
ENCODING 9800
SWIDTH 960 0
DWIDTH 24 0
BBX 24 24 0 -2
BITMAP
000000
0E0000
0C0700
0C0600
0C0600
0C0600
0C0618
1E7FFC
1F8CC0
3D8CC0
3C1BC0
6C1B60
0C3360
0C6330
0CC338
0DBFFE
0C030C
0C0300
0C0300
0C0300
0C0300
0C0300
0C0300
000000
ENDCHAR

STARTCHAR cns4_2649
ENCODING 9801
SWIDTH 960 0
DWIDTH 24 0
BBX 24 24 0 -2
BITMAP
000000
070000
060380
060300
06030C
167FFE
178700
36C600
36C660
660C30
661818
067FFC
062CCC
060CC0
060CC0
060CC0
060CC0
060CC4
0618C4
0618C4
0630C6
0660E6
06C07C
000000
ENDCHAR

STARTCHAR cns4_264A
ENCODING 9802
SWIDTH 960 0
DWIDTH 24 0
BBX 24 24 0 -2
BITMAP
000000
070000
06200C
063FFE
06318C
06318C
17318C
17B18C
36F18C
36FFFC
66318C
06318C
06318C
06318C
06318C
063FFC
06318C
060180
060180
060180
060180
060180
060180
000000
ENDCHAR

STARTCHAR cns4_264B
ENCODING 9803
SWIDTH 960 0
DWIDTH 24 0
BBX 24 24 0 -2
BITMAP
000000
0E0000
0C2030
0C3FF8
0C3030
1F3630
1DB330
3DB330
3C31B0
6C31B0
6C3034
0DFFFE
0C6030
0C6630
0C6630
0C6330
0C6330
0CC034
0CFFFE
0CC060
0CC060
0C07E0
0C01C0
000000
ENDCHAR

STARTCHAR cns4_264C
ENCODING 9804
SWIDTH 960 0
DWIDTH 24 0
BBX 24 24 0 -2
BITMAP
000000
0701C0
060180
060180
06399C
163198
173198
37B198
37B198
66F198
663FF8
063198
060180
06718E
06618C
06618C
06618C
06618C
06618C
06618C
067FFC
06600C
060000
000000
ENDCHAR

STARTCHAR cns4_264D
ENCODING 9805
SWIDTH 960 0
DWIDTH 24 0
BBX 24 24 0 -2
BITMAP
000000
0E0000
0C0E00
0C0C30
0C0FF8
1E1830
1F1C60
3DB660
3C63C0
6CC180
6C03C0
0C0670
0C0C3E
0C380C
0CE300
0C01C0
0C00C0
0C0000
0C0600
0C0380
0C00C0
0C00E0
0C0040
000000
ENDCHAR

STARTCHAR cns4_264E
ENCODING 9806
SWIDTH 960 0
DWIDTH 24 0
BBX 24 24 0 -2
BITMAP
000000
0E1C38
0C1830
0C1830
0C1830
1C3030
1C3034
3E37FE
3F7030
6C7030
6CF030
0DB630
0C3330
0C3330
0C31B0
0C31B0
0C3030
0C3030
0C3030
0C3030
0C3030
0C33F0
0C30E0
000000
ENDCHAR

STARTCHAR cns4_264F
ENCODING 9807
SWIDTH 960 0
DWIDTH 24 0
BBX 24 24 0 -2
BITMAP
000000
0E0000
0C0018
0C21FC
0C3F80
1C3180
1F3180
3DB180
3DB180
6C318C
6C3FFE
0C30C0
0C30C0
0C30C0
0C30C0
0C30C0
0C3062
0C3E72
0C7836
0DC01E
0C006E
0CFFF8
0C0000
000000
ENDCHAR

STARTCHAR cns4_2650
ENCODING 9808
SWIDTH 960 0
DWIDTH 24 0
BBX 24 24 0 -2
BITMAP
000000
000018
3FFFFC
003000
003000
0030C0
1FFFE0
0060C0
0060C0
0060C0
0060C0
0060CC
7FFFFE
001800
01CC18
19860C
19860C
318046
318046
618046
018060
01C0E0
00FFC0
000000
ENDCHAR

STARTCHAR cns4_2651
ENCODING 9809
SWIDTH 960 0
DWIDTH 24 0
BBX 24 24 0 -2
BITMAP
000000
070000
060300
063F00
060780
060780
170CC0
170C60
379838
36301E
66600C
06C060
063FF0
060300
060300
060300
060300
060300
060300
060300
06030C
06FFFE
060000
000000
ENDCHAR

STARTCHAR cns4_2652
ENCODING 9810
SWIDTH 960 0
DWIDTH 24 0
BBX 24 24 0 -2
BITMAP
000000
0E0030
0C1FF8
0F0330
0D8330
0CC330
0C0330
0D8330
7FDFF0
0C0330
0C8330
0CE330
0CC330
0D8330
0D9FF0
070318
07031A
0E431A
0F461A
1B461A
33CC0E
61D80E
00B006
000000
ENDCHAR

STARTCHAR cns4_2653
ENCODING 9811
SWIDTH 960 0
DWIDTH 24 0
BBX 24 24 0 -2
BITMAP
000000
000700
0006C0
000660
00060C
7FFFFE
030600
030600
038630
06C638
0C7B30
183330
3FC370
003360
1FFBC0
0061C0
006182
00C3C2
00C6C2
018C62
003836
00E01E
03800E
000000
ENDCHAR

STARTCHAR cns4_2654
ENCODING 9812
SWIDTH 960 0
DWIDTH 24 0
BBX 24 24 0 -2
BITMAP
000000
0001C0
071D80
061980
0E39E0
0F3DB0
1B6F98
30C780
61818C
3FFFFE
000180
000198
0000DC
0000D8
0000F0
0000F0
000060
0000E2
0001F2
000332
00061A
001C0E
007006
000000
ENDCHAR

STARTCHAR cns4_2655
ENCODING 9813
SWIDTH 960 0
DWIDTH 24 0
BBX 24 24 0 -2
BITMAP
000000
000000
0403F8
07FE00
060000
060018
07FFFC
060018
060018
07FFF8
060C18
060C00
060C18
07FFFC
0C1E00
0C1F00
0C3D80
0C3CC0
0C6C60
18CC78
198C3C
300C00
600C00
000000
ENDCHAR

STARTCHAR cns4_2656
ENCODING 9814
SWIDTH 960 0
DWIDTH 24 0
BBX 24 24 0 -2
BITMAP
000000
000030
040FF8
07F800
060018
07FFFC
060018
060018
07FFF8
060198
07FFC0
063180
063330
0C3FF8
0C7830
0C6C60
0C6660
1867C0
18C380
18C3E0
318E7E
333838
66E000
000000
ENDCHAR

STARTCHAR cns4_2657
ENCODING 9815
SWIDTH 960 0
DWIDTH 24 0
BBX 24 24 0 -2
BITMAP
000000
00E018
1CC07C
18C3C0
18DEC0
18C0C0
18C0C0
18C0D8
18DFFC
1FC0C0
18C0C0
00C0C0
00C0C0
7FC0CC
0CFFFE
0CC0C0
0CC0C0
18C0C0
18C0C0
18C0C0
30C0C0
30CFC0
60C380
000000
ENDCHAR

STARTCHAR cns4_2658
ENCODING 9816
SWIDTH 960 0
DWIDTH 24 0
BBX 24 24 0 -2
BITMAP
000000
0701C0
060180
060180
06218C
063FFE
06300C
7FE00C
0668C8
060FE0
060CC0
060CC0
078C60
0E0C60
3E1860
161860
061830
063030
063030
063018
06601C
3E600E
0CC000
000000
ENDCHAR

STARTCHAR cns4_2659
ENCODING 9817
SWIDTH 960 0
DWIDTH 24 0
BBX 24 24 0 -2
BITMAP
000000
070000
060600
060318
06019C
060198
068030
7FC730
060630
060660
060660
07C6D0
0706D8
0E378C
3E678C
166706
06CE06
06CE10
061E10
063610
06E618
7E0738
1C03F0
000000
ENDCHAR

STARTCHAR cns4_265A
ENCODING 9818
SWIDTH 960 0
DWIDTH 24 0
BBX 24 24 0 -2
BITMAP
000000
0700E0
0600C0
0600C0
0660C0
7FF0CC
060FFE
0600C0
0600C0
4660CC
7FF7FE
66660C
66630C
666318
666318
6661B0
6661E0
6660C0
6661E0
66E370
060638
061C1E
06700C
000000
ENDCHAR

STARTCHAR cns4_265B
ENCODING 9819
SWIDTH 960 0
DWIDTH 24 0
BBX 24 24 0 -2
BITMAP
000000
00E070
1CC060
18C060
18C06C
18C7FE
18C060
18C060
18C060
1FF86C
18C7FE
18C30C
18C30C
18C18C
18C18C
18C198
18C8D8
18C8F0
18C870
1BCC70
1EECD8
78798E
200F06
000000
ENDCHAR

STARTCHAR cns4_265C
ENCODING 9820
SWIDTH 960 0
DWIDTH 24 0
BBX 24 24 0 -2
BITMAP
000000
0000E0
0380C0
0300C0
0300C0
2330CC
3FFFFE
3330C0
3330C0
6320C0
0780D8
078FFC
078618
078618
078630
0D8330
0D8360
0D81E0
19F1C0
19C1E0
378378
63061E
001C0C
000000
ENDCHAR

STARTCHAR cns4_265D
ENCODING 9821
SWIDTH 960 0
DWIDTH 24 0
BBX 24 24 0 -2
BITMAP
000000
1DC180
1981C0
198180
198180
198180
19818C
1983FE
19A318
1FF318
198718
198D18
198198
1981B0
1981F0
1980F0
1980E0
1990E0
1990F0
1F91B8
3D9B1C
71DE0E
20F004
000000
ENDCHAR

STARTCHAR cns4_265E
ENCODING 9822
SWIDTH 960 0
DWIDTH 24 0
BBX 24 24 0 -2
BITMAP
000000
018000
0180E0
0380C0
03C0C0
06C180
06618C
0C31FE
0C1F18
1FFF18
300618
600718
0031B0
3FF9B0
0031B0
0060F0
0060E0
00C060
00C0E0
00C1B0
01831C
01860E
019C04
000000
ENDCHAR

STARTCHAR cns4_265F
ENCODING 9823
SWIDTH 960 0
DWIDTH 24 0
BBX 24 24 0 -2
BITMAP
000000
0000E0
0E00C0
0C00C0
0C30C0
1FF8CC
1800FE
30C0C0
3FE0C0
6000D8
00CFFC
3FE20C
018318
030318
060130
0C01B0
0C01E0
1820C0
1820E0
3021F0
303338
1C761E
0FEC0C
000000
ENDCHAR

STARTCHAR cns4_2660
ENCODING 9824
SWIDTH 960 0
DWIDTH 24 0
BBX 24 24 0 -2
BITMAP
000000
0380E0
0300C0
0360C0
03F0D8
0F00FC
3B00C0
0300C0
3B38C0
3330D8
33377C
333618
333618
333618
333330
3FF330
3331F0
3331E0
0300E0
0330F0
03E1B8
0F871E
061C0C
000000
ENDCHAR

STARTCHAR cns4_2661
ENCODING 9825
SWIDTH 960 0
DWIDTH 24 0
BBX 24 24 0 -2
BITMAP
000000
000000
0000C0
2303E0
3F9860
331C60
331860
331830
333038
33301C
3F671E
33670C
33C600
330600
330C00
330CC0
330C60
3F1830
331818
3033FC
00FE0C
00600C
000000
000000
ENDCHAR

STARTCHAR cns4_2662
ENCODING 9826
SWIDTH 960 0
DWIDTH 24 0
BBX 24 24 0 -2
BITMAP
000000
001C00
001800
0E1838
0C1830
0C1830
0FFFF0
0C1830
001800
00180C
7FFFFE
000000
100018
1FFFFC
180018
180018
180018
1FFFF8
180018
180018
180018
1FFFF8
180018
000000
ENDCHAR

STARTCHAR cns4_2663
ENCODING 9827
SWIDTH 960 0
DWIDTH 24 0
BBX 24 24 0 -2
BITMAP
000000
01C000
018000
018018
03FFFC
033198
063198
0C6318
38C618
018C30
071830
1C3070
00E7E0
0380C0
100018
1FFFFC
180018
180018
1FFFF8
180018
180018
1FFFF8
180018
000000
ENDCHAR

STARTCHAR cns4_2664
ENCODING 9828
SWIDTH 960 0
DWIDTH 24 0
BBX 24 24 0 -2
BITMAP
000000
118000
1FC018
19BFFC
198300
198300
198300
198300
1F8300
198330
19BFF8
198630
198630
198630
1F8630
318630
318630
318630
318C30
318C30
318C34
37BFFE
630000
000000
ENDCHAR

STARTCHAR cns4_2665
ENCODING 9829
SWIDTH 960 0
DWIDTH 24 0
BBX 24 24 0 -2
BITMAP
000000
070700
060600
060600
063630
07FFF8
060600
060604
060606
06F70E
3F83FC
181C00
001800
00180C
3FFFFE
007E00
00DB00
019980
0718E0
1C187E
701830
001800
001800
000000
ENDCHAR

STARTCHAR cns4_2666
ENCODING 9830
SWIDTH 960 0
DWIDTH 24 0
BBX 24 24 0 -2
BITMAP
000000
070000
0600CE
063FEC
0600CC
06C0CC
7FE0CC
0610CC
061FCC
0F18CC
0F980C
0ED80C
1ED8CC
1E3FEC
3630CC
3600CC
6600CC
0600CC
0600CC
0600CC
0601CC
061F8C
06030C
000000
ENDCHAR

STARTCHAR cns4_2667
ENCODING 9831
SWIDTH 960 0
DWIDTH 24 0
BBX 24 24 0 -2
BITMAP
000000
070000
06007C
0643E0
067E60
066660
066660
7FE660
0E6660
0E6660
1F6660
1F6660
1FE630
366630
366630
666630
066638
066618
06C61C
06C60C
07860E
078606
060000
000000
ENDCHAR

STARTCHAR cns4_2668
ENCODING 9832
SWIDTH 960 0
DWIDTH 24 0
BBX 24 24 0 -2
BITMAP
000000
00E380
00C300
00C30C
3FC3FE
00C300
00C300
001C00
001800
001800
00180C
3FFFFE
003C00
007E00
007B00
00D980
0198E0
031878
06183E
1C1818
701800
001800
001800
000000
ENDCHAR

STARTCHAR cns4_2669
ENCODING 9833
SWIDTH 960 0
DWIDTH 24 0
BBX 24 24 0 -2
BITMAP
000000
0701C0
060180
060180
06018C
06DFFE
7FE180
060180
0E0180
0E1198
0F1FFC
0F1998
1F9998
1E1998
361998
361998
661998
061998
0619F8
0619B0
060180
060180
060180
000000
ENDCHAR

STARTCHAR cns4_266A
ENCODING 9834
SWIDTH 960 0
DWIDTH 24 0
BBX 24 24 0 -2
BITMAP
000000
070E70
060C60
060C60
060C60
060C60
06CC60
7FEC60
060C60
060C60
0F1C60
0F9C60
1EDC60
1E1EF0
363EF0
3637D8
663198
066198
06630C
06C30C
06C606
078C06
061806
000000
ENDCHAR

STARTCHAR cns4_266B
ENCODING 9835
SWIDTH 960 0
DWIDTH 24 0
BBX 24 24 0 -2
BITMAP
000000
001C00
001800
001800
001800
039860
031FF0
031800
03180C
7FFFFE
000000
001C00
00180C
7FFFFE
003E00
007B00
00D980
0198E0
031878
0E181E
381800
001800
001800
000000
ENDCHAR

STARTCHAR cns4_266C
ENCODING 9836
SWIDTH 960 0
DWIDTH 24 0
BBX 24 24 0 -2
BITMAP
000000
000180
0019C0
3FFD80
0C6180
0C618C
0C63FE
0C630C
0C66E8
0C6CC0
0C60C0
7FFCC0
0C60C0
0C60C0
0C61E0
0C61E0
0C61B0
0C6330
186338
186618
186C1C
30780E
607004
000000
ENDCHAR

STARTCHAR cns4_266D
ENCODING 9837
SWIDTH 960 0
DWIDTH 24 0
BBX 24 24 0 -2
BITMAP
000000
0E0380
0C0300
0C0300
181300
1FFB0C
3007FE
30C618
6FEDD8
001990
00C180
3FE180
018180
030180
060180
0C0380
0C0380
182380
1823C0
302660
303638
1C7C1E
0FEC0C
000000
ENDCHAR

STARTCHAR cns4_266E
ENCODING 9838
SWIDTH 960 0
DWIDTH 24 0
BBX 24 24 0 -2
BITMAP
000000
060000
0701C0
060180
060180
0C330C
0FFBFE
0C330C
1BB6EC
332CC8
0300C0
0300C0
0300C0
0301C0
0701C0
0701C0
0781E0
078360
0CC330
0CC638
18661C
303C0E
601806
000000
ENDCHAR

STARTCHAR cns4_266F
ENCODING 9839
SWIDTH 960 0
DWIDTH 24 0
BBX 24 24 0 -2
BITMAP
000000
08C1C0
0FE180
0CC180
0C6180
18630C
1833FE
30360C
6067CC
1FFD88
060180
060180
063180
0FF980
0C3180
183180
0031C0
0033C0
006360
006630
00E61C
0FCC0E
019804
000000
ENDCHAR

STARTCHAR cns4_2670
ENCODING 9840
SWIDTH 960 0
DWIDTH 24 0
BBX 24 24 0 -2
BITMAP
000000
038180
0301C0
030180
038180
07818C
06C1FE
0C630C
0C336C
181E68
3E7C60
6C6060
0C6060
0C60E0
0C60E0
0C60F0
0C6198
186198
18630C
18630C
306606
306C06
607806
000000
ENDCHAR

STARTCHAR cns4_2671
ENCODING 9841
SWIDTH 960 0
DWIDTH 24 0
BBX 24 24 0 -2
BITMAP
000000
070180
0601C0
060180
066180
07F30C
0603FE
06060C
0636EC
7FFCC8
0030C0
0030C0
01B0C0
0331C0
0E31E0
3831E0
1031E0
003330
003330
007618
00E61C
0FCC0E
039804
000000
ENDCHAR

STARTCHAR cns4_2672
ENCODING 9842
SWIDTH 960 0
DWIDTH 24 0
BBX 24 24 0 -2
BITMAP
000000
0000E0
0700C0
0600C0
0600C0
0600C0
0600C0
0606C0
06E6C0
7EC6D8
06C6FC
06C6C0
06C6C0
06C6C0
06C6C0
06C6C0
06C6C0
06F6C0
06C6C0
0786C0
1C06C0
7806CC
207FFE
000000
ENDCHAR

STARTCHAR cns4_2673
ENCODING 9843
SWIDTH 960 0
DWIDTH 24 0
BBX 24 24 0 -2
BITMAP
000000
000380
00C300
7FE300
060300
060330
063FF8
0CC330
0FE330
0CC330
18C330
18C334
39FFFE
6D8700
078700
030780
030D80
060CC0
061860
0C1838
0C301E
18600C
30C000
000000
ENDCHAR

STARTCHAR cns4_2674
ENCODING 9844
SWIDTH 960 0
DWIDTH 24 0
BBX 24 24 0 -2
BITMAP
000000
0001C0
006180
3FF180
0C0180
0C018C
0C01FE
0CC180
0FE180
18C198
18FFFC
18D818
398C18
3D8C30
678660
0306C0
0303C0
060380
0603C0
0C06E0
181C78
30703E
01C018
000000
ENDCHAR

STARTCHAR cns4_2675
ENCODING 9845
SWIDTH 960 0
DWIDTH 24 0
BBX 24 24 0 -2
BITMAP
000000
0001C0
006180
3FF180
060180
060180
060180
0C6180
0FF180
0C618C
1861FE
18DD80
3CD980
66D980
079980
039980
031980
031D80
063780
0C3380
1861C0
30607E
60C000
000000
ENDCHAR

STARTCHAR cns4_2676
ENCODING 9846
SWIDTH 960 0
DWIDTH 24 0
BBX 24 24 0 -2
BITMAP
000000
000018
00607C
3FFBE0
060E00
060C00
060C00
0C6C00
0FFC0C
0C6FFE
186C60
18CC60
3CCC60
66CC60
078C60
038C60
030C60
031860
061860
0C1860
183060
303060
606060
000000
ENDCHAR

STARTCHAR cns4_2677
ENCODING 9847
SWIDTH 960 0
DWIDTH 24 0
BBX 24 24 0 -2
BITMAP
000000
000000
00C038
3FE030
063036
063036
063C66
0C7666
0FF666
0C7366
1873C6
18F1C6
3CF1C6
66F1E6
07B366
03B336
033636
03361E
063C1E
0C3006
183006
303FFE
603006
000000
ENDCHAR

STARTCHAR cns4_2678
ENCODING 9848
SWIDTH 960 0
DWIDTH 24 0
BBX 24 24 0 -2
BITMAP
000000
038000
030430
0307F8
030630
133630
1FFE32
1B3632
332632
33061E
67CC00
079800
078018
078FFC
078618
0D8630
0D8330
0D83E0
19B1C0
19E1C0
378760
631C3E
007018
000000
ENDCHAR

STARTCHAR cns4_2679
ENCODING 9849
SWIDTH 960 0
DWIDTH 24 0
BBX 24 24 0 -2
BITMAP
000000
070000
060018
060070
0641C0
7FE780
061D80
06019C
0601F0
06C380
3FEF98
18C19C
18C1F0
0CDF80
0D8D84
058184
070186
0301CE
0780FC
07C000
0C7800
181FFC
700000
000000
ENDCHAR

STARTCHAR cns4_267A
ENCODING 9850
SWIDTH 960 0
DWIDTH 24 0
BBX 24 24 0 -2
BITMAP
000000
030000
1B0038
1B0060
1B01C0
1B0F80
1B0180
1B619C
1FF1F0
1807C0
181D80
180180
18C19C
1FE1F0
18C780
18DD80
18C180
18C184
30C184
30C184
30C186
60C1CE
60C0FC
000000
ENDCHAR

STARTCHAR cns4_267B
ENCODING 9851
SWIDTH 960 0
DWIDTH 24 0
BBX 24 24 0 -2
BITMAP
000000
00800C
18FFFE
0CC00C
06C00C
00C00C
00FFFC
60C30C
33C300
1BC300
06C330
06DFF8
06C330
0CC330
0CC330
0CC330
7CC630
18C630
198632
198C32
1D8C32
1D983A
1B301E
000000
ENDCHAR

STARTCHAR cns4_267C
ENCODING 9852
SWIDTH 960 0
DWIDTH 24 0
BBX 24 24 0 -2
BITMAP
000000
003800
183000
0C3000
063000
003040
003FE0
603008
333008
1B300C
06381C
061FF8
060000
0C0380
0C0300
0C0330
7C3FF8
180300
180300
180300
1C030C
1CFFFE
180000
000000
ENDCHAR

STARTCHAR cns4_267D
ENCODING 9853
SWIDTH 960 0
DWIDTH 24 0
BBX 24 24 0 -2
BITMAP
000000
000380
180300
0C0300
06030C
00FFFE
000300
600300
333B70
1B3360
063360
063060
06306C
0CFFFE
0C3060
0C3060
7C3060
183060
186060
186060
1CC060
1CC060
198060
000000
ENDCHAR

STARTCHAR cns4_267E
ENCODING 9854
SWIDTH 960 0
DWIDTH 24 0
BBX 24 24 0 -2
BITMAP
000000
0039C0
183180
0C3180
063180
003580
01FF80
603180
337180
1B7980
067D80
06FD80
06F780
0DB180
0DB180
0F3180
7C3184
183184
183184
183184
1C3186
1C31CE
1830FC
000000
ENDCHAR

STARTCHAR cns4_2721
ENCODING 10017
SWIDTH 960 0
DWIDTH 24 0
BBX 24 24 0 -2
BITMAP
000000
000000
18400C
0C7FFE
06600C
00606C
007FFC
61E66C
33666C
1B666C
06636C
0663CC
0661CC
0C61CC
0C61CC
0C63CC
7C666C
187C3C
18600C
18600C
1C7FFC
1C600C
180000
000000
ENDCHAR

STARTCHAR cns4_2722
ENCODING 10018
SWIDTH 960 0
DWIDTH 24 0
BBX 24 24 0 -2
BITMAP
000000
0001C0
180180
0C0180
06018C
00FFFE
000600
600600
330C30
1B0C18
0619FC
06FF6C
066C60
0C0C60
0C0C60
0C0C60
7C1C60
181860
181864
183064
1C3066
1C6066
18C03C
000000
ENDCHAR

STARTCHAR cns4_2723
ENCODING 10019
SWIDTH 960 0
DWIDTH 24 0
BBX 24 24 0 -2
BITMAP
000000
000000
1800F8
0C0780
067F00
000300
010300
610300
33030C
1BFFFE
060780
060780
060FC0
0C0FC0
0C0F60
0C1B60
7C1B30
183318
18330E
18E300
1C0300
1C0300
180300
000000
ENDCHAR

STARTCHAR cns4_2724
ENCODING 10020
SWIDTH 960 0
DWIDTH 24 0
BBX 24 24 0 -2
BITMAP
000000
00800C
18FFFE
0CC00C
06C00C
00C00C
00FFFC
60C00C
33C860
1BCFF0
06CC60
06CC60
06CC60
0CCC60
0CCC60
0CCC60
7CCC60
198C60
199864
199864
1D9866
1DB066
1B303C
000000
ENDCHAR

STARTCHAR cns4_2725
ENCODING 10021
SWIDTH 960 0
DWIDTH 24 0
BBX 24 24 0 -2
BITMAP
000000
000380
180300
0C0300
064318
007FFC
016318
616318
336318
1B7FF8
066318
066318
066318
0C6318
0DFFFE
0C6018
7C6018
186018
186018
186018
1C6018
1C63F8
180070
000000
ENDCHAR

STARTCHAR cns4_2726
ENCODING 10022
SWIDTH 960 0
DWIDTH 24 0
BBX 24 24 0 -2
BITMAP
000000
000000
180E00
0C0C00
060C00
00180C
011FFE
61318C
33618C
1B0198
060180
060180
061DB0
0C1998
0C1998
0C318C
7C318C
186186
186186
18C186
1C0180
1C1F80
180700
000000
ENDCHAR

STARTCHAR cns4_2727
ENCODING 10023
SWIDTH 960 0
DWIDTH 24 0
BBX 24 24 0 -2
BITMAP
000000
070180
060FC0
060180
060180
060180
06F18C
07FFFE
17B18C
37318C
3631CC
6633CC
66336C
06366C
0C363C
0C3C3C
0E300C
1B300C
19B00C
19B00C
30300C
3030FC
603038
000000
ENDCHAR

STARTCHAR cns4_2728
ENCODING 10024
SWIDTH 960 0
DWIDTH 24 0
BBX 24 24 0 -2
BITMAP
000000
070E00
060C00
060C00
060C00
060C0C
061FFE
06DF6C
179B6C
371B6C
36336C
66366C
6666CC
0606CC
0C0CCC
0C0D8C
0E198C
1B198C
19B30C
19830C
30061C
3006F8
600C30
000000
ENDCHAR

STARTCHAR cns4_2729
ENCODING 10025
SWIDTH 960 0
DWIDTH 24 0
BBX 24 24 0 -2
BITMAP
000000
00E1C0
00C180
00C180
00C18C
3FFFFE
00C180
00C180
00FF80
00D980
001800
001800
001800
0C1870
061CC0
03B780
01B600
006300
006180
01C0E0
07007E
1C001C
700000
000000
ENDCHAR

STARTCHAR cns4_272A
ENCODING 10026
SWIDTH 960 0
DWIDTH 24 0
BBX 24 24 0 -2
BITMAP
000000
001C00
001830
00D878
1FFCE0
00DF80
00DB00
019980
0318E0
06F87E
3C3038
000000
001C00
001800
061860
0318F0
01BF80
01B600
006300
00C1C0
0380E0
0E007E
380038
000000
ENDCHAR

STARTCHAR cns4_272B
ENCODING 10027
SWIDTH 960 0
DWIDTH 24 0
BBX 24 24 0 -2
BITMAP
000000
001C00
001800
0C1830
0638F8
033B80
007C00
00E700
01C1C0
0700FC
3DE760
01C600
038600
038600
078600
0D87F8
198600
318600
018604
018604
018606
01870E
0183FC
000000
ENDCHAR

STARTCHAR cns4_272C
ENCODING 10028
SWIDTH 960 0
DWIDTH 24 0
BBX 24 24 0 -2
BITMAP
000000
000000
000030
0007F8
1FFC00
000040
0C6070
0630E0
031980
031900
000000
07FFE0
001800
001800
001800
001818
3FFFFC
001800
001800
001800
001860
0FFFF0
000000
000000
ENDCHAR

STARTCHAR cns4_272D
ENCODING 10029
SWIDTH 960 0
DWIDTH 24 0
BBX 24 24 0 -2
BITMAP
000000
00E0E0
1CC0C0
18C0C0
18C0C0
18C0CC
18C0CE
18C6D8
1FFFF0
18C6E0
18C6E0
00C6E0
00C6E0
7FC6F0
0CCCF0
0CCCD8
0CCCD8
0CD8CC
18D8CC
18F0C6
18C0C6
30C7C6
60C180
000000
ENDCHAR

STARTCHAR cns4_272E
ENCODING 10030
SWIDTH 960 0
DWIDTH 24 0
BBX 24 24 0 -2
BITMAP
000000
01C000
1D8430
1987F8
198630
198630
198634
19B636
1FFE36
180C1C
181800
180018
18DFFC
1FEC18
18CC30
18C630
18C360
18C1C0
30C1C0
30C3E0
30C638
60DC1E
60C00C
000000
ENDCHAR

STARTCHAR cns4_272F
ENCODING 10031
SWIDTH 960 0
DWIDTH 24 0
BBX 24 24 0 -2
BITMAP
000000
038038
030030
1F0C30
1B0630
1B0330
1B4330
3FE030
330030
330C30
630630
030330
03C330
03803E
0F0070
3B07F0
137E30
030030
030030
030030
030030
030030
030030
000000
ENDCHAR

STARTCHAR cns4_2730
ENCODING 10032
SWIDTH 960 0
DWIDTH 24 0
BBX 24 24 0 -2
BITMAP
000000
0701C0
060180
3E0180
360180
36118C
369FFE
3FD98C
36318C
666188
6603C0
0603C0
0783C0
0703C0
1E03C0
7606C0
2606C4
0606C4
060CC4
060CC4
0618C6
0630EE
06607C
000000
ENDCHAR

STARTCHAR cns4_2731
ENCODING 10033
SWIDTH 960 0
DWIDTH 24 0
BBX 24 24 0 -2
BITMAP
000000
0381C0
030180
1F01E0
1B01B0
1B0198
1B4180
1FE198
331FFC
330180
630198
03019C
03C1B0
0701B0
0F01E0
3B00E0
1300C0
0301E4
030364
030634
030C34
03381C
03E00C
000000
ENDCHAR

STARTCHAR cns4_2732
ENCODING 10034
SWIDTH 960 0
DWIDTH 24 0
BBX 24 24 0 -2
BITMAP
000000
038000
030430
1F0778
1B0630
1B0630
1B4C30
1FEC18
331818
33180C
63300E
03601C
039FF8
070618
0F0618
7B0618
330618
030C18
030C30
031830
031870
0333E0
03E0C0
000000
ENDCHAR

STARTCHAR cns4_2733
ENCODING 10035
SWIDTH 960 0
DWIDTH 24 0
BBX 24 24 0 -2
BITMAP
000000
0381C0
030180
030180
1F018C
1B7FFE
1B0180
1FC180
33218C
333FFE
63318C
03318C
03B18C
07318C
1F318C
73318C
23318C
03318C
0331BC
033198
030180
030180
030180
000000
ENDCHAR

STARTCHAR cns4_2734
ENCODING 10036
SWIDTH 960 0
DWIDTH 24 0
BBX 24 24 0 -2
BITMAP
000000
0001C0
070180
060180
060180
06C1B0
066198
060180
06C18C
7FEFFE
060180
0601C0
0601C0
0601C0
070340
070360
0F8360
0CC630
0CC638
186C18
18781C
30300E
606000
000000
ENDCHAR

STARTCHAR cns4_2735
ENCODING 10037
SWIDTH 960 0
DWIDTH 24 0
BBX 24 24 0 -2
BITMAP
000000
000000
31803C
1B13E0
0E1EC0
0C18C0
1E18C0
3618C0
0618D8
031FFC
0318C0
0718C0
0718C0
0F18C0
1B1860
331862
031B62
031E32
031832
03701A
0700CE
3E7FE6
0C0000
000000
ENDCHAR

STARTCHAR cns4_2736
ENCODING 10038
SWIDTH 960 0
DWIDTH 24 0
BBX 24 24 0 -2
BITMAP
000000
001C70
31D860
1B1860
0E1860
0E3060
1E306C
366DFE
03EE6C
03CC6C
076C6C
07386C
0F186C
1B186C
33306C
63306C
033CCC
0366CC
037ECC
07E78C
3EC18C
0C037C
000618
000000
ENDCHAR

STARTCHAR cns4_2737
ENCODING 10039
SWIDTH 960 0
DWIDTH 24 0
BBX 24 24 0 -2
BITMAP
000000
0380E0
0300C0
0300D8
0318CC
7FFCCC
0300C0
0300CC
0307FE
2330C0
3FF8C0
3330C0
3331C0
3331C0
3331C0
3331E0
333360
333360
33F330
336630
030618
030C1E
03180C
000000
ENDCHAR

STARTCHAR cns4_2738
ENCODING 10040
SWIDTH 960 0
DWIDTH 24 0
BBX 24 24 0 -2
BITMAP
000000
0001C0
01C180
1B81B0
0F0198
060180
0E018C
1B7FFE
330180
031DB8
0719B0
0719B0
0F19B0
0F19B0
1B19B0
3319B0
0319B0
0319B0
0331B2
0331B2
0761B2
3EC1BE
0D819C
000000
ENDCHAR

STARTCHAR cns4_2739
ENCODING 10041
SWIDTH 960 0
DWIDTH 24 0
BBX 24 24 0 -2
BITMAP
000000
001C00
039800
331800
1E1800
0E184C
0E1B7E
1E7FEC
761B6C
031B6C
031B6C
071B6C
0F1B6C
0F1B6C
1B336C
33336C
63336C
03336C
03636C
03676C
077E7C
3ECC6C
0CC000
000000
ENDCHAR

STARTCHAR cns4_273A
ENCODING 10042
SWIDTH 960 0
DWIDTH 24 0
BBX 24 24 0 -2
BITMAP
000000
000380
018300
1B0300
0E0300
0C2330
1E3FF8
363330
063330
033330
073330
073330
0F3334
1BFFFE
338700
630780
030780
030CC0
030CC0
031860
071838
3E301E
0CE00C
000000
ENDCHAR

STARTCHAR cns4_273B
ENCODING 10043
SWIDTH 960 0
DWIDTH 24 0
BBX 24 24 0 -2
BITMAP
000000
000380
000300
000300
018360
7FC330
060330
060300
06030C
067FFE
068300
7FC300
060380
060780
060780
0606C0
06CCC0
078C60
0E1860
781830
303038
00E01E
03800C
000000
ENDCHAR

STARTCHAR cns4_273C
ENCODING 10044
SWIDTH 960 0
DWIDTH 24 0
BBX 24 24 0 -2
BITMAP
000000
000700
00060C
00C7FE
3FE60C
06060C
060C0C
06181C
0631F8
068070
3FC000
060018
063FFC
060C18
060C30
06E630
078660
0603C0
7C0380
3007C0
001CF0
00707E
01C030
000000
ENDCHAR

STARTCHAR cns4_273D
ENCODING 10045
SWIDTH 960 0
DWIDTH 24 0
BBX 24 24 0 -2
BITMAP
000000
007000
006600
006300
00607C
003FC8
3FF808
001C0C
00071C
0003F8
000000
00000C
7FFFFE
00C000
00C180
00FFC0
018180
01B180
019984
030184
033F86
3FE1CE
1800FC
000000
ENDCHAR

STARTCHAR cns4_273E
ENCODING 10046
SWIDTH 960 0
DWIDTH 24 0
BBX 24 24 0 -2
BITMAP
000000
1CE000
18C00C
18CFFE
18C0C0
18C0C0
18C0C0
18D0C0
7FF8C0
18C0C0
18C0CC
18DFFE
18C0C0
18C0C0
1FC0C0
18C0C0
18C0C0
18C0C0
18C0C0
18C0C0
1FC0C0
18C0C0
18C0C0
000000
ENDCHAR

STARTCHAR cns4_273F
ENCODING 10047
SWIDTH 960 0
DWIDTH 24 0
BBX 24 24 0 -2
BITMAP
000000
000000
418030
7FDFF8
6D8180
6D8180
6D8180
6D8180
6D8180
6D8180
7F818C
6DFFFE
6D8180
6D8180
6D8180
6D8180
6D8180
7F8180
618180
618180
000180
001F80
000700
000000
ENDCHAR

STARTCHAR cns4_2740
ENCODING 10048
SWIDTH 960 0
DWIDTH 24 0
BBX 24 24 0 -2
BITMAP
000000
070380
060300
060300
466300
7FF60C
6667FE
666C0C
666C0C
66780C
7FE30C
66618C
6660CC
6660CC
7FE00C
66600C
66000C
06000C
06000C
06000C
06001C
0601F8
060070
000000
ENDCHAR

STARTCHAR cns4_2741
ENCODING 10049
SWIDTH 960 0
DWIDTH 24 0
BBX 24 24 0 -2
BITMAP
000000
001C00
001800
081818
0FFFFC
0C1818
0C1818
0FFFF8
0C1818
0C1818
0FFFF8
0C0018
00E1C0
00C180
00C180
00C18C
7FFFFE
00C180
00C180
00C180
018180
070180
1C0180
000000
ENDCHAR

STARTCHAR cns4_2742
ENCODING 10050
SWIDTH 960 0
DWIDTH 24 0
BBX 24 24 0 -2
BITMAP
000000
000000
000666
418666
7FC666
6D8C66
6D8CCC
6D8CCC
6D98CC
6D9998
6D9998
7FB330
6DB330
6D9998
6D9998
6D9998
6D8CCC
7F8CCC
618CCC
000666
000666
000666
000666
000000
ENDCHAR

STARTCHAR cns4_2743
ENCODING 10051
SWIDTH 960 0
DWIDTH 24 0
BBX 24 24 0 -2
BITMAP
000000
000E00
000C00
040C0C
07FFFE
060000
660000
360018
1FFFFC
1E0600
0E0600
060600
060700
0E0780
1E06E0
760670
260630
0C0600
0C0600
0C0600
180600
180600
300600
000000
ENDCHAR

STARTCHAR cns4_2744
ENCODING 10052
SWIDTH 960 0
DWIDTH 24 0
BBX 24 24 0 -2
BITMAP
000000
000E00
000C00
040C0C
07FFFE
060000
6600F0
360780
1E7C00
0E0C00
060C00
060C00
060C18
0FFFFC
1E0C00
760C00
260C00
0C0C08
0C0C08
0C0C08
180C0C
180E1C
3007F8
000000
ENDCHAR

STARTCHAR cns4_2745
ENCODING 10053
SWIDTH 960 0
DWIDTH 24 0
BBX 24 24 0 -2
BITMAP
000000
000E00
000C00
040C0C
07FFFE
060000
661C00
361800
3E1800
1E1860
1FFFF0
061860
061860
0E1860
3E1860
763860
2C3E60
0C6662
0C6362
18C362
198072
33003E
300000
000000
ENDCHAR

STARTCHAR cns4_2746
ENCODING 10054
SWIDTH 960 0
DWIDTH 24 0
BBX 24 24 0 -2
BITMAP
000000
01C1C0
018180
018180
018180
11B180
1FF998
19B7FC
19A198
198198
19B198
1EF998
183798
183398
1E61D8
1B63F8
19C378
19C61A
31E61A
336C0E
360C0E
6C1806
603000
000000
ENDCHAR

STARTCHAR cns4_2747
ENCODING 10055
SWIDTH 960 0
DWIDTH 24 0
BBX 24 24 0 -2
BITMAP
000000
001C00
001800
001800
00180C
3FFFFE
060000
060000
060000
060000
060000
070070
03FFF0
000000
080030
0FFFF8
0C6630
0C6630
0C6630
0C6630
0C6630
0C6634
7FFFFE
000000
ENDCHAR

STARTCHAR cns4_2748
ENCODING 10056
SWIDTH 960 0
DWIDTH 24 0
BBX 24 24 0 -2
BITMAP
000000
000060
0FFFF0
001800
001800
001800
001818
3FFFFC
001800
001800
001800
001800
001800
001800
080030
0FFFF0
0C6630
0C6630
0C6630
0C6630
0C6630
0C6634
7FFFFE
000000
ENDCHAR

STARTCHAR cns4_2749
ENCODING 10057
SWIDTH 960 0
DWIDTH 24 0
BBX 24 24 0 -2
BITMAP
000000
000000
000030
0FFFF8
001800
001800
001800
001800
001800
001800
001800
00180C
3FFFFE
000000
040060
07FFF0
066660
066660
066660
066660
066660
06666C
7FFFFE
000000
ENDCHAR

STARTCHAR cns4_274A
ENCODING 10058
SWIDTH 960 0
DWIDTH 24 0
BBX 24 24 0 -2
BITMAP
000000
000000
41800C
7FFFFE
61830C
61830C
61830C
61830C
61B30C
7F9B0C
618F0C
61860C
61860C
61860C
7F860C
618C0C
618C18
618C18
619818
7F9838
61B3F0
006060
000000
000000
ENDCHAR

STARTCHAR cns4_274B
ENCODING 10059
SWIDTH 960 0
DWIDTH 24 0
BBX 24 24 0 -2
BITMAP
000000
001060
231FF0
3F9860
331860
331860
331860
331860
3F1860
331E60
331B60
3319E0
3319E0
3F1860
331860
333060
333064
333064
336064
3F6064
33C066
018066
03003C
000000
ENDCHAR

STARTCHAR cns4_274C
ENCODING 10060
SWIDTH 960 0
DWIDTH 24 0
BBX 24 24 0 -2
BITMAP
000000
000700
000600
218600
3FC600
318600
318630
31BFF8
318630
3F8630
318630
318630
319E30
318630
3F8730
318FB0
318DB0
318C32
319832
31981A
3FB01A
31E00E
00C00E
000000
ENDCHAR

STARTCHAR cns4_274D
ENCODING 10061
SWIDTH 960 0
DWIDTH 24 0
BBX 24 24 0 -2
BITMAP
000000
000000
21803C
3FC1E0
318780
31BD80
318180
318180
318180
3F818C
31BFFE
318180
318180
318180
3F8180
318180
318180
318180
318180
3F8180
318180
300180
000180
000000
ENDCHAR

STARTCHAR cns4_274E
ENCODING 10062
SWIDTH 960 0
DWIDTH 24 0
BBX 24 24 0 -2
BITMAP
000000
000000
203030
3FF860
3030C0
303180
303300
303600
3FFC0C
303018
303030
303060
3030C0
303380
3FFE06
30300C
303018
303030
303060
3FF0C0
303180
303700
000000
000000
ENDCHAR

STARTCHAR cns4_274F
ENCODING 10063
SWIDTH 960 0
DWIDTH 24 0
BBX 24 24 0 -2
BITMAP
000000
000000
418018
7FFFFC
619818
619B18
619998
618CD8
7F8C30
618C30
618630
618630
618660
7F8360
6183C0
6181C0
6181C0
6183E0
7F8670
618C38
61B81E
00E00C
038000
000000
ENDCHAR

STARTCHAR cns4_2750
ENCODING 10064
SWIDTH 960 0
DWIDTH 24 0
BBX 24 24 0 -2
BITMAP
000000
040030
07FFF8
060030
060030
07FFF0
060030
07FFF0
060030
07FFF0
060030
000000
00E1C0
00C180
00C180
00C18C
7FFFFE
00C180
018180
018180
030180
060180
1C0180
000000
ENDCHAR

STARTCHAR cns4_2751
ENCODING 10065
SWIDTH 960 0
DWIDTH 24 0
BBX 24 24 0 -2
BITMAP
000000
000300
006380
1FF300
006300
0CC30C
0783FE
03060C
01860C
003C0C
3FF80C
03B30C
03E18C
0780CC
0780CC
0D800C
0D800C
19800C
31800C
01800C
03801C
1F01F8
060030
000000
ENDCHAR

STARTCHAR cns4_2752
ENCODING 10066
SWIDTH 960 0
DWIDTH 24 0
BBX 24 24 0 -2
BITMAP
000000
030000
7F9800
031C00
031800
031830
033FF8
233300
3F3300
336300
306300
30030C
337FFE
7F8380
630780
0306C0
0306C0
030C60
030C60
031830
073018
3E600C
0DC006
000000
ENDCHAR

STARTCHAR cns4_2753
ENCODING 10067
SWIDTH 960 0
DWIDTH 24 0
BBX 24 24 0 -2
BITMAP
000000
01800C
7FDFFE
060018
060018
061998
0C38D8
0C6CD8
0C2C30
18C630
1FE630
1CC630
3CC360
3CC360
6CC1E0
0CC1C0
0CC1C0
0CC3C0
0CC360
0FC630
0CCC38
0CF81E
0C000C
000000
ENDCHAR

STARTCHAR cns4_2754
ENCODING 10068
SWIDTH 960 0
DWIDTH 24 0
BBX 24 24 0 -2
BITMAP
000000
000000
00C1C0
3FE180
060180
06118C
061FFE
0C1800
0C1800
0CD800
1FF800
1CD800
3CD800
3CD800
6CD800
0CD800
0CD800
0CD800
0CD800
0FD800
0CDC0E
0C0FFC
000000
000000
ENDCHAR

STARTCHAR cns4_2755
ENCODING 10069
SWIDTH 960 0
DWIDTH 24 0
BBX 24 24 0 -2
BITMAP
000000
006000
01F00C
078FFE
3F0018
030030
0300E0
0360C0
3FF0C0
0300C0
0700C0
0780F8
0FC1E0
0F67C0
0F1CC0
1B08C0
1B00C0
3300C0
0300C0
0300C0
0300C0
030FC0
030180
000000
ENDCHAR

STARTCHAR cns4_2756
ENCODING 10070
SWIDTH 960 0
DWIDTH 24 0
BBX 24 24 0 -2
BITMAP
000000
000600
01C700
070600
3E0600
060C00
060C0C
06DFFE
7FF80C
06300C
0E6C0C
0F060C
0F860C
1EC30C
1E030C
36000C
36000C
66000C
060018
060018
060038
0607F0
0600E0
000000
ENDCHAR

STARTCHAR cns4_2757
ENCODING 10071
SWIDTH 960 0
DWIDTH 24 0
BBX 24 24 0 -2
BITMAP
000000
000000
01E700
070600
3E0600
060C0C
060FFE
06D800
3FE000
060030
071FF8
0F0060
0F80C0
0EC180
1E0300
1E0600
360C00
660C04
061804
061804
061806
060E0E
0603FC
000000
ENDCHAR

STARTCHAR cns4_2758
ENCODING 10072
SWIDTH 960 0
DWIDTH 24 0
BBX 24 24 0 -2
BITMAP
000000
001C00
10180C
1FFFFE
18E60C
18C608
30C604
318604
018606
07070E
1C39FC
703000
00300C
3FFFFE
060000
060000
060000
060000
060000
060000
060000
07003C
03FFFC
000000
ENDCHAR

STARTCHAR cns4_2759
ENCODING 10073
SWIDTH 960 0
DWIDTH 24 0
BBX 24 24 0 -2
BITMAP
000000
001C00
001800
001800
101818
1FFFFC
18C618
30C634
618604
018606
03070E
0603FC
1C1C00
301800
001800
001860
0FFFF0
001800
001800
001800
00180C
7FFFFE
000000
000000
ENDCHAR

STARTCHAR cns4_275A
ENCODING 10074
SWIDTH 960 0
DWIDTH 24 0
BBX 24 24 0 -2
BITMAP
000000
001C00
001800
001800
101818
1FFFFC
18C618
30C618
318614
018604
03070E
063BFC
1C3000
00600C
3FFFFE
00C180
018180
030300
07FE00
001F00
0039C0
01E070
3F001C
000000
ENDCHAR

STARTCHAR cns4_275B
ENCODING 10075
SWIDTH 960 0
DWIDTH 24 0
BBX 24 24 0 -2
BITMAP
000000
001C00
001800
001800
001818
1FFFFC
0181C0
00C180
00C180
00C30C
7FFFFE
000000
00E1C0
00C180
00C18C
3FFFFE
00C180
00C180
018180
018180
030180
060180
1C0180
000000
ENDCHAR

STARTCHAR cns4_275C
ENCODING 10076
SWIDTH 960 0
DWIDTH 24 0
BBX 24 24 0 -2
BITMAP
000000
070380
060300
060300
0CE300
38C300
318330
199FF8
0F0330
06C330
0C6330
1FE330
3C3330
003330
044630
166630
166632
373C1A
333C1A
33181E
60300E
606006
000000
000000
ENDCHAR

STARTCHAR cns4_275D
ENCODING 10077
SWIDTH 960 0
DWIDTH 24 0
BBX 24 24 0 -2
BITMAP
000000
10000C
1FFFFE
18630C
18630C
18630C
1FFFFC
19800C
018000
03000C
03FFFE
06000C
0C000C
18000C
70600C
00300C
00180C
001818
000018
000018
000038
0003F0
0000E0
000000
ENDCHAR

STARTCHAR cns4_275E
ENCODING 10078
SWIDTH 960 0
DWIDTH 24 0
BBX 24 24 0 -2
BITMAP
000000
100018
1FFFFC
186318
186318
186318
186318
186318
1FFFF8
180018
001C00
001800
00180C
7FFFFE
0C0000
0C0000
0C0000
0C0000
0C0000
0C0000
0C0000
0E001C
07FFFC
000000
ENDCHAR

STARTCHAR cns4_275F
ENCODING 10079
SWIDTH 960 0
DWIDTH 24 0
BBX 24 24 0 -2
BITMAP
000000
003800
003030
003038
003630
0FFF60
0030C0
003180
00330C
7FFFFE
001C00
00700C
00FFFE
03E6CC
0EC6CC
398CCC
030D8C
00198C
00330C
006318
00C618
018DF8
001870
000000
ENDCHAR

STARTCHAR cns4_2760
ENCODING 10080
SWIDTH 960 0
DWIDTH 24 0
BBX 24 24 0 -2
BITMAP
000000
003800
003000
003038
003030
003660
0FFFC0
0030C0
003180
00330C
7FFFFE
001800
0071C0
01CF80
077C00
3C1878
00FFC0
0F981C
001BF4
1FFF04
001806
001C0E
000FFC
000000
ENDCHAR

STARTCHAR cns4_2761
ENCODING 10081
SWIDTH 960 0
DWIDTH 24 0
BBX 24 24 0 -2
BITMAP
000000
038000
03000C
0367FE
03F060
3F0060
030060
036060
3FF060
030060
030060
033060
7FF860
078060
07C060
0F6060
0F3060
1F0060
1B0060
330060
630060
0307E0
0301C0
000000
ENDCHAR

STARTCHAR cns4_2762
ENCODING 10082
SWIDTH 960 0
DWIDTH 24 0
BBX 24 24 0 -2
BITMAP
000000
11800E
1FC0CC
19BFEC
1980CC
1980CC
1D80CC
1F90CC
1B9FCC
1998CC
19980C
1B980C
1FB0CC
1DBFEC
19E0CC
1980CC
1980CC
1980CC
3180CC
3180CC
3181CC
6FBF8C
63030C
000000
ENDCHAR

STARTCHAR cns4_2763
ENCODING 10083
SWIDTH 960 0
DWIDTH 24 0
BBX 24 24 0 -2
BITMAP
000000
118000
1FC000
19A00C
19BFFE
19B360
1DB360
1FB360
1BB360
19B360
19B364
1BB364
1FB364
1DB666
19B676
19B63C
19BC00
19B000
31B000
31B000
31B80E
6F9FFE
630000
000000
ENDCHAR

STARTCHAR cns4_2764
ENCODING 10084
SWIDTH 960 0
DWIDTH 24 0
BBX 24 24 0 -2
BITMAP
000000
118700
1FC600
198600
19860C
1987FE
1D860C
1F8DCC
1B8D98
199980
199980
1BB180
1F8180
1D8380
198380
198380
1983C0
1986C0
318660
318C70
318C38
6F981E
63300C
000000
ENDCHAR

STARTCHAR cns4_2765
ENCODING 10085
SWIDTH 960 0
DWIDTH 24 0
BBX 24 24 0 -2
BITMAP
000000
1181C0
1FC180
198180
19918C
199FFE
1D998C
1F998C
1BB198
198180
1981C0
1B81C0
1F83C0
1D83C0
1983C0
1983C0
1987C4
1986C4
3186C4
318CC4
318CC6
6F98E6
63307C
000000
ENDCHAR

STARTCHAR cns4_2766
ENCODING 10086
SWIDTH 960 0
DWIDTH 24 0
BBX 24 24 0 -2
BITMAP
000000
118000
1FC030
199FF8
198630
198630
1D8630
1F8630
1B8630
198630
198634
1B9FFE
1F8630
1D8630
198630
198630
198630
198630
318630
318630
318634
6FBFFE
630000
000000
ENDCHAR

STARTCHAR cns4_2767
ENCODING 10087
SWIDTH 960 0
DWIDTH 24 0
BBX 24 24 0 -2
BITMAP
000000
118000
1FCE00
198C00
198C0C
199FFE
1D9800
1FB018
1B8FFC
198000
198030
1D9FF8
1F8060
1B80C0
198180
198300
198600
318C04
318C04
319804
319806
6F8C0E
6307FC
000000
ENDCHAR

STARTCHAR cns4_2768
ENCODING 10088
SWIDTH 960 0
DWIDTH 24 0
BBX 24 24 0 -2
BITMAP
000000
118000
1FC038
1980FC
198780
19BD80
1D8180
1F8180
1B8180
198180
198180
1B8198
1F9FFC
1D8180
198180
198180
198180
198180
318180
318180
31818C
6FBFFE
630000
000000
ENDCHAR

STARTCHAR cns4_2769
ENCODING 10089
SWIDTH 960 0
DWIDTH 24 0
BBX 24 24 0 -2
BITMAP
000000
118000
1FCC60
198EF0
198C60
199830
1DB018
1FE00C
1BBFFE
198600
198600
1B8600
1F8C30
1D9FF8
199830
198030
198030
198030
318030
318030
318070
6F8FE0
6303C0
000000
ENDCHAR

STARTCHAR cns4_276A
ENCODING 10090
SWIDTH 960 0
DWIDTH 24 0
BBX 24 24 0 -2
BITMAP
000000
003800
003000
0030C0
003FE0
003000
20300C
3FFFFE
30000C
6400CC
67FFE8
0600C0
06F0C0
063CC0
0600C0
060FC0
0678C0
07C0C0
0600C0
0600C0
0600C0
061FC0
060380
000000
ENDCHAR

STARTCHAR cns4_276B
ENCODING 10091
SWIDTH 960 0
DWIDTH 24 0
BBX 24 24 0 -2
BITMAP
000000
0E0000
0C0E00
0C0C00
0CD980
0C7180
0C3B00
0C1E40
0C0C60
0C3FF0
0FE030
0D4060
0C7FF0
0C6060
0C6E60
0C6360
0C61E0
0C6E60
0C7C60
186060
186060
3067E0
6061C0
000000
ENDCHAR

STARTCHAR cns4_276C
ENCODING 10092
SWIDTH 960 0
DWIDTH 24 0
BBX 24 24 0 -2
BITMAP
000000
406000
7FF018
630FFC
630618
630618
630618
630618
633618
7FFB30
603330
603330
603360
6031E0
7FF1E0
6330C0
6301E0
6301E0
6301B0
630338
63631C
7FF61E
600C0C
000000
ENDCHAR

STARTCHAR cns4_276D
ENCODING 10093
SWIDTH 960 0
DWIDTH 24 0
BBX 24 24 0 -2
BITMAP
000000
00C000
00E000
00C030
00FFF8
018030
018030
030030
030060
060060
0C0FC0
00C180
09E030
0F07F8
0C0030
0C0030
0CC030
0FE3F0
0C0030
0C0030
0C0030
0FFFF0
0C0030
000000
ENDCHAR

STARTCHAR cns4_276E
ENCODING 10094
SWIDTH 960 0
DWIDTH 24 0
BBX 24 24 0 -2
BITMAP
000000
00180E
007C0C
01C1CC
1F818C
01818C
01818C
01998C
3FFD8C
01818C
01818C
01818C
01818C
11998C
1FFDBC
1819EC
181F8C
181A0C
18180C
18180C
1FF80C
18180C
18180C
000000
ENDCHAR

STARTCHAR cns4_276F
ENCODING 10095
SWIDTH 960 0
DWIDTH 24 0
BBX 24 24 0 -2
BITMAP
000000
018000
01800C
030FFE
13600C
1FF018
186018
1E6030
1B60E0
1860C0
1878C0
19E0C0
7F60C0
3B60C0
1B60C0
1B60C0
1B60C0
1B60C0
3360C0
3060C0
3060C0
67EFC0
60C380
000000
ENDCHAR

STARTCHAR cns4_2770
ENCODING 10096
SWIDTH 960 0
DWIDTH 24 0
BBX 24 24 0 -2
BITMAP
000000
00E000
00C00E
01800C
0998EC
0FFCCC
0C18CC
0D98CC
0CD8CC
0C78CC
0C38CC
0C18CC
7FFECC
0CD8CC
0CD8CC
0CD8CC
0CD8CC
0CD80C
0CD80C
18D80C
18180C
30F8FC
603038
000000
ENDCHAR

STARTCHAR cns4_2771
ENCODING 10097
SWIDTH 960 0
DWIDTH 24 0
BBX 24 24 0 -2
BITMAP
000000
0180E0
0180C0
0300C0
1360C0
1FF0C0
1860C0
1E60C0
1B60C0
1861C0
1871C0
19E1C0
7F61C0
3B61C0
1B61E0
1B6360
1B6360
1B6330
336630
306618
306C1C
67EC0E
60D804
000000
ENDCHAR

STARTCHAR cns4_2772
ENCODING 10098
SWIDTH 960 0
DWIDTH 24 0
BBX 24 24 0 -2
BITMAP
000000
0700E0
0600C0
0660CC
7FF7FE
0600C0
061CC0
001800
081818
0FFFFC
0C1818
181818
301810
003E00
003C00
003C00
007C00
006C08
00CC08
00CC08
018C0C
070E1C
1C07F8
000000
ENDCHAR

STARTCHAR cns4_2773
ENCODING 10099
SWIDTH 960 0
DWIDTH 24 0
BBX 24 24 0 -2
BITMAP
000000
0700E0
0600C0
0660CC
7FF7FE
0600C0
0600C0
001838
1FFC30
001830
001830
081830
0FF830
0C0030
181830
1FFC30
181830
001830
001830
003030
007030
0FE030
01C030
000000
ENDCHAR

STARTCHAR cns4_2774
ENCODING 10100
SWIDTH 960 0
DWIDTH 24 0
BBX 24 24 0 -2
BITMAP
000000
0700E0
0600C0
0660CC
7FF7FE
0600C0
0600C0
000000
000060
0FFFF0
001800
001800
001800
00180C
3FFFFE
003C00
003600
006300
00C180
0180E0
030078
0E003E
380018
000000
ENDCHAR

STARTCHAR cns4_2775
ENCODING 10101
SWIDTH 960 0
DWIDTH 24 0
BBX 24 24 0 -2
BITMAP
000000
0700E0
0600C0
0660CC
7FF7FE
0600C0
0600C0
000018
1FFFFC
006000
006000
006060
00FFF0
00C060
018060
0180C0
0300C0
03FF80
060180
060180
000300
00030C
7FFFFE
000000
ENDCHAR

STARTCHAR cns4_2776
ENCODING 10102
SWIDTH 960 0
DWIDTH 24 0
BBX 24 24 0 -2
BITMAP
000000
0700E0
0600C0
0660CC
7FF7FE
0600C0
1600D8
1FFFFC
180018
180198
19FFD8
186198
186198
186198
183318
183318
181E18
180C18
183E18
18E318
1B81D8
1803F8
180070
000000
ENDCHAR

STARTCHAR cns4_2777
ENCODING 10103
SWIDTH 960 0
DWIDTH 24 0
BBX 24 24 0 -2
BITMAP
000000
0700E0
0600C0
0660CC
7FF7FE
0600C0
061CC0
001800
101818
1FFFFC
181818
181818
181818
181818
1FFFF8
181818
001800
001800
001800
001800
001800
001800
001800
000000
ENDCHAR

STARTCHAR cns4_2778
ENCODING 10104
SWIDTH 960 0
DWIDTH 24 0
BBX 24 24 0 -2
BITMAP
000000
0700E0
0600C0
0660CC
7FF7FE
0600C0
0600C0
01C1C0
018180
018180
030180
030180
070180
070180
0F01E0
1B01B8
33019C
030180
030180
030180
030180
030180
030180
000000
ENDCHAR

STARTCHAR cns4_2779
ENCODING 10105
SWIDTH 960 0
DWIDTH 24 0
BBX 24 24 0 -2
BITMAP
000000
0700E0
0600C0
0660CC
7FF7FE
0600C0
0600C0
038E00
030C00
030C00
060C00
060C60
0FFFF0
1E0C60
360C60
660C60
061860
061860
061864
063064
063066
066076
06C03C
000000
ENDCHAR

STARTCHAR cns4_277A
ENCODING 10106
SWIDTH 960 0
DWIDTH 24 0
BBX 24 24 0 -2
BITMAP
000000
0700E0
0600C0
0660CC
7FF7FE
0600C0
0600C0
000000
070060
067FF0
061860
0C1860
0C18CC
1C18FE
3C18CC
6C180C
0C300C
0C3018
0C3018
0C6018
0C6030
0CC7F0
0D81C0
000000
ENDCHAR

STARTCHAR cns4_277B
ENCODING 10107
SWIDTH 960 0
DWIDTH 24 0
BBX 24 24 0 -2
BITMAP
000000
0700E0
0600C0
0660CC
7FF7FE
0600C0
0600C0
08000C
0FFFFE
0C0000
0C8060
0CFFF0
0CC060
0CC060
0CC060
0CC0E0
0CC7C0
18C180
18C004
18C004
30C006
30E00E
607FFC
000000
ENDCHAR

STARTCHAR cns4_277C
ENCODING 10108
SWIDTH 960 0
DWIDTH 24 0
BBX 24 24 0 -2
BITMAP
000000
0700E0
0600C0
0660CC
7FF7FE
0600C0
0600C0
0207F8
03FD80
031980
031980
031980
031980
0318C0
0618C0
0618C0
061860
061860
0C1830
0C1838
18181C
30181E
60180C
000000
ENDCHAR

STARTCHAR cns4_277D
ENCODING 10109
SWIDTH 960 0
DWIDTH 24 0
BBX 24 24 0 -2
BITMAP
000000
0700E0
0600C0
0660CC
7FF7FE
0600C0
0600C0
000180
039FC0
030180
030180
0600C0
0600C0
0C7060
0C6038
18E01E
30C18C
0180C0
018060
030030
061FF8
3FF018
1C0018
000000
ENDCHAR

STARTCHAR cns4_277E
ENCODING 10110
SWIDTH 960 0
DWIDTH 24 0
BBX 24 24 0 -2
BITMAP
000000
0700E0
0600C0
0660CC
7FF7FE
0600C0
0600C0
01C380
018300
018300
018300
018300
018300
018300
01C300
03E700
037700
033F80
061CC0
061860
0C3038
18601E
30C00C
000000
ENDCHAR

STARTCHAR cns4_2821
ENCODING 10273
SWIDTH 960 0
DWIDTH 24 0
BBX 24 24 0 -2
BITMAP
000000
0700E0
0600C0
0660CC
7FF7FE
0600C0
0600C0
001860
0019F0
001F00
01F800
1F1800
001800
0018C0
07FFE0
001800
001818
3FFFFC
001800
001800
001800
001800
001800
000000
ENDCHAR

STARTCHAR cns4_2822
ENCODING 10274
SWIDTH 960 0
DWIDTH 24 0
BBX 24 24 0 -2
BITMAP
000000
000000
200018
3FFFFC
301C00
301800
301800
341860
37FFF0
361860
361860
361860
361860
37FFE0
361860
301800
301980
3018E0
3FFFF0
300030
30000C
3FFFFE
300000
000000
ENDCHAR

STARTCHAR cns4_2823
ENCODING 10275
SWIDTH 960 0
DWIDTH 24 0
BBX 24 24 0 -2
BITMAP
000000
007000
036018
0661FC
0C6000
186000
306000
036C00
03FE0C
066FFE
0C6C30
1C6C30
3C6C30
6C6C30
0C6C30
0C6C30
0C6DB0
0C6F30
0CDE30
0CCC30
0CC030
0D83F0
0F00E0
000000
ENDCHAR

STARTCHAR cns4_2824
ENCODING 10276
SWIDTH 960 0
DWIDTH 24 0
BBX 24 24 0 -2
BITMAP
000000
001C00
0E1818
0C18FC
181800
301800
601800
071800
06180C
0C19FE
0C3830
1C3830
3C3830
6C3C30
0C3630
0C3330
0C6330
0C61B0
0CC1B0
0CC1B0
0D8030
0F03F0
0C00E0
000000
ENDCHAR

STARTCHAR cns4_2825
ENCODING 10277
SWIDTH 960 0
DWIDTH 24 0
BBX 24 24 0 -2
BITMAP
000000
000018
307FFC
1C0198
0C0198
000198
002198
063FF8
7F3198
063180
06318C
0C3FFE
0C618C
1B018C
1F818C
33018C
030198
0601F0
060180
0C0180
1F0180
31FFFE
603FF8
000000
ENDCHAR

STARTCHAR cns4_2826
ENCODING 10278
SWIDTH 960 0
DWIDTH 24 0
BBX 24 24 0 -2
BITMAP
000000
000000
300000
1C0030
0E3FF8
000000
000000
06000C
7F7FFE
060300
060300
0C0300
0C0600
1B0660
1F8C30
330C18
03180C
0631FC
06FF0C
0C6000
1E0000
33FFFE
607FF8
000000
ENDCHAR

STARTCHAR cns4_2827
ENCODING 10279
SWIDTH 960 0
DWIDTH 24 0
BBX 24 24 0 -2
BITMAP
000000
000000
300380
1C0300
0E030C
007FFE
000300
060300
7F2318
063FFC
0C3318
0C3318
183318
1B3318
1FB318
333318
0333F8
063330
060300
0C0300
1F8000
31FFFE
603FF8
000000
ENDCHAR

STARTCHAR cns4_2828
ENCODING 10280
SWIDTH 960 0
DWIDTH 24 0
BBX 24 24 0 -2
BITMAP
000000
000000
300E38
180C30
0C0C30
000C30
000C30
060C34
7F7FFE
060C30
0C0C30
0C0C30
180C30
1B0C30
3F8C30
630C30
030C30
060FF0
0C0C30
1C0C30
370000
61FFFE
001FF8
000000
ENDCHAR

STARTCHAR cns4_2829
ENCODING 10281
SWIDTH 960 0
DWIDTH 24 0
BBX 24 24 0 -2
BITMAP
000000
00020C
0033FE
7FFB0C
18030C
180318
180318
180330
183330
1FFB60
183360
183330
183318
183318
18330C
1FF30C
18330C
18031C
1803F8
180330
181B00
7FFF00
000300
000000
ENDCHAR

STARTCHAR cns4_282A
ENCODING 10282
SWIDTH 960 0
DWIDTH 24 0
BBX 24 24 0 -2
BITMAP
000000
07710C
0661FE
06618C
066D8C
3FFF98
066D98
066DB0
266DB0
3FFDE0
366DE0
3661B0
366198
3FFF98
66678C
06678C
06678C
0C679C
0C7FF8
186DB0
186180
306180
606180
000000
ENDCHAR

STARTCHAR cns4_282B
ENCODING 10283
SWIDTH 960 0
DWIDTH 24 0
BBX 24 24 0 -2
BITMAP
000000
03820C
0303FE
03030C
03030C
030318
431B18
7FFF30
631B30
631B60
631B60
631B30
631B18
7FFB18
631B0C
631B0C
631B0C
631B1C
631BF8
631B30
7FFB00
601B00
601B00
000000
ENDCHAR

STARTCHAR cns4_282C
ENCODING 10284
SWIDTH 960 0
DWIDTH 24 0
BBX 24 24 0 -2
BITMAP
000000
01C20C
0183FE
03830C
03030C
063318
0C1B18
180F30
7FF730
300360
073B60
063330
063318
063318
7FFF0C
06330C
0C330C
0C331C
0C33F8
183330
183300
303300
603300
000000
ENDCHAR

STARTCHAR cns4_282D
ENCODING 10285
SWIDTH 960 0
DWIDTH 24 0
BBX 24 24 0 -2
BITMAP
000000
00020C
0E03FE
0C030C
0C030C
181B18
1FFF18
301B30
38DB30
6FFB60
0CDB60
0CDB30
0CDB18
0FDB18
0CDB0C
0C3B0C
0DF30C
0C031C
0C0BF8
0C0B30
0C0F00
0E1F00
07FB00
000000
ENDCHAR

STARTCHAR cns4_282E
ENCODING 10286
SWIDTH 960 0
DWIDTH 24 0
BBX 24 24 0 -2
BITMAP
000000
00020C
0003FE
00030C
00030C
064318
3F7F18
066330
066330
066360
066360
066330
066318
066318
06630C
06630C
06630C
06631C
067FF8
07E330
7C0300
300300
000300
000000
ENDCHAR

STARTCHAR cns4_282F
ENCODING 10287
SWIDTH 960 0
DWIDTH 24 0
BBX 24 24 0 -2
BITMAP
000000
01C20C
0183FE
01830C
119B0C
1FFF18
199B18
199B30
199B30
7FFF60
199B60
199B30
199B18
199B18
7FFF0C
181B0C
181B0C
181B1C
181BF8
181B30
181B00
18FB00
183300
000000
ENDCHAR

STARTCHAR cns4_2830
ENCODING 10288
SWIDTH 960 0
DWIDTH 24 0
BBX 24 24 0 -2
BITMAP
000000
43400C
7FFFFE
63600C
63600C
63600C
667FFC
66638C
6C6300
6C6300
666330
666FF8
636330
636330
636330
666330
7E6630
6CC632
60CC32
60CC32
619832
61B03A
63601E
000000
ENDCHAR

STARTCHAR cns4_2831
ENCODING 10289
SWIDTH 960 0
DWIDTH 24 0
BBX 24 24 0 -2
BITMAP
000000
430C00
7F8E00
630C00
630C00
66180C
663FFE
6C300C
6C600C
66D0CC
661FEC
6618CC
6318CC
6318CC
6318CC
6618CC
7E1FCC
6C18CC
600018
600018
600038
6003F0
600060
000000
ENDCHAR

STARTCHAR cns4_2832
ENCODING 10290
SWIDTH 960 0
DWIDTH 24 0
BBX 24 24 0 -2
BITMAP
000000
43000C
7FBFFE
63030C
63030C
66060C
66060C
6C0C0C
6C0C18
661838
6631F0
666060
631018
631FFC
631818
661818
7E1818
6C1818
601818
601818
601818
601FF8
601818
000000
ENDCHAR

STARTCHAR cns4_2833
ENCODING 10291
SWIDTH 960 0
DWIDTH 24 0
BBX 24 24 0 -2
BITMAP
000000
430018
7FA1FC
633F00
633000
663FFE
66300C
6C300C
6C300C
663FFC
66300C
663030
633FF8
633060
6330C0
663180
7E6300
6C6604
606604
60CC04
60CC06
618E0E
6307FC
000000
ENDCHAR

STARTCHAR cns4_2834
ENCODING 10292
SWIDTH 960 0
DWIDTH 24 0
BBX 24 24 0 -2
BITMAP
000000
000000
100300
1FFF80
180300
180300
180300
1FFF00
180300
000000
2000C0
3FFFE0
3060C0
3060C0
3FFFC0
3060C0
3060C0
3060C8
3FFFC8
3060C8
00600C
00701C
003FF8
000000
ENDCHAR

STARTCHAR cns4_2835
ENCODING 10293
SWIDTH 960 0
DWIDTH 24 0
BBX 24 24 0 -2
BITMAP
000000
0381C0
036180
033180
030180
033180
3FF998
030FFC
030198
333198
1B6198
0FC198
078198
030198
078198
0FE318
1B7B18
73331A
03061A
03061A
030C1A
3F0C0E
061800
000000
ENDCHAR

STARTCHAR cns4_2836
ENCODING 10294
SWIDTH 960 0
DWIDTH 24 0
BBX 24 24 0 -2
BITMAP
000000
038070
036060
033060
033060
060060
0601F8
0EC9EC
0E79EC
1E7B66
1E1B66
363660
66366E
0637EC
0660D8
066018
06E030
066030
066060
0660C0
066180
066700
061C00
000000
ENDCHAR

STARTCHAR cns4_2837
ENCODING 10295
SWIDTH 960 0
DWIDTH 24 0
BBX 24 24 0 -2
BITMAP
000000
030380
038300
03630C
03331C
061B30
061B60
0E0380
0E06E0
1E0C38
1E381E
36FC7C
661860
061860
061864
06FFFE
061860
061860
061860
063060
063060
066060
066060
000000
ENDCHAR

STARTCHAR cns4_2838
ENCODING 10296
SWIDTH 960 0
DWIDTH 24 0
BBX 24 24 0 -2
BITMAP
000000
030380
038300
030318
067FFC
060300
064300
0E430C
0CFFFE
1CC00C
1D8068
3C3FF0
6C00C0
0C0380
0C0300
0C030C
0DFFFE
0C0300
0C0300
0C0300
0C0300
0C3F00
0C0600
000000
ENDCHAR

STARTCHAR cns4_2839
ENCODING 10297
SWIDTH 960 0
DWIDTH 24 0
BBX 24 24 0 -2
BITMAP
000000
060000
070018
06FFFC
066660
0C6660
0C6660
1C6660
1C7E60
1C6660
3C6660
3C6660
6C7E60
0C6660
0C6660
0C6660
0C6660
0C7E60
0DC664
0C8664
0C0666
0C0676
0C063C
000000
ENDCHAR

STARTCHAR cns4_283A
ENCODING 10298
SWIDTH 960 0
DWIDTH 24 0
BBX 24 24 0 -2
BITMAP
000000
060000
07380E
063138
0631E0
0C3180
0C3180
1DFF80
1C318C
3C31FE
3C3798
6C3D98
0C3998
0C7198
0DF318
0CB318
0C3318
0C3318
0C3618
0C3618
0C3618
0DFC18
0C6C18
000000
ENDCHAR

STARTCHAR cns4_283B
ENCODING 10299
SWIDTH 960 0
DWIDTH 24 0
BBX 24 24 0 -2
BITMAP
000000
0301C0
03B98E
03318C
03318C
06318C
063FFC
06300C
0C00C0
1CFFE0
1C0CC0
3C0CD8
6C0FFC
0C1E18
0C1B18
0C1B30
0C19B0
0C31E0
0C30C0
0C61E0
0C6338
0CCE1E
0DB80C
000000
ENDCHAR

STARTCHAR cns4_283C
ENCODING 10300
SWIDTH 960 0
DWIDTH 24 0
BBX 24 24 0 -2
BITMAP
000000
030000
0380F8
0323C0
033E00
063000
063000
063018
0C3FFC
0C3060
1C3060
3C3060
6C3060
0C3060
0C3060
0C306C
0DFFFE
0C0000
0C0C60
0C1830
0C3018
0C600C
0DC00C
000000
ENDCHAR

STARTCHAR cns4_283D
ENCODING 10301
SWIDTH 960 0
DWIDTH 24 0
BBX 24 24 0 -2
BITMAP
000000
060000
070018
06FFFC
060CC0
0C0CC0
0C8CCC
0CFFFE
18CCCC
18CCCC
38CCCC
78CCCC
18DFCC
18DFEC
18F33C
18E61C
18C60C
18C00C
18C00C
18C00C
18C00C
18C07C
18C018
000000
ENDCHAR

STARTCHAR cns4_283E
ENCODING 10302
SWIDTH 960 0
DWIDTH 24 0
BBX 24 24 0 -2
BITMAP
000000
03200C
03BFFE
03318C
06318C
06318C
063FFC
0C318C
0C318C
1C318C
1C3FFC
3C338C
6C0300
0C030C
0C7FFE
0C030C
0C060C
0C060C
0C0C0C
0C180C
0C301C
0C63F8
0DC070
000000
ENDCHAR

STARTCHAR cns4_283F
ENCODING 10303
SWIDTH 960 0
DWIDTH 24 0
BBX 24 24 0 -2
BITMAP
000000
030E00
038C00
030C00
061818
061FFC
0C3860
0C6CC0
1CC780
1C0780
3C0EF0
6C383E
0CE0C0
0C0380
0C1E30
0CF0E0
0C0380
0C0E1C
0C7830
0C00E0
0C0380
0C1E00
0CF000
000000
ENDCHAR

STARTCHAR cns4_2840
ENCODING 10304
SWIDTH 960 0
DWIDTH 24 0
BBX 24 24 0 -2
BITMAP
000000
000000
006000
3FF180
0001C0
000380
000300
000630
006C18
7FFFFC
0CC80C
0CC000
0CD018
0CDFFC
0CD818
0CD818
0CD818
0CD818
18DFFC
18D81C
30C006
30E00E
607FFC
000000
ENDCHAR

STARTCHAR cns4_2841
ENCODING 10305
SWIDTH 960 0
DWIDTH 24 0
BBX 24 24 0 -2
BITMAP
000000
000380
000300
300300
180300
0C0318
067FFC
060300
01BB38
01B330
033360
037370
067BD8
06DBCC
06C700
0C0780
3C0D80
1C0CC0
0C18C0
0C1860
0E3038
0E601E
0DC00C
000000
ENDCHAR

STARTCHAR cns4_2842
ENCODING 10306
SWIDTH 960 0
DWIDTH 24 0
BBX 24 24 0 -2
BITMAP
000000
000018
00FFFC
300000
180000
0C3BB8
0C3330
01E660
036660
03DCC0
066660
066330
063198
0C3198
0C0030
3CFFF8
1C0300
0C0300
0C0300
0C0300
0C030C
0DFFFE
000000
000000
ENDCHAR

STARTCHAR cns4_2843
ENCODING 10307
SWIDTH 960 0
DWIDTH 24 0
BBX 24 24 0 -2
BITMAP
000000
000060
003FF0
300060
18006C
0CFFFE
000060
018060
033FE0
030060
06800C
06FFFE
0CC00C
0D8068
0C7FF0
7818C0
3818C0
180D80
180700
180780
1C1DE0
1C707C
19C030
000000
ENDCHAR

STARTCHAR cns4_2844
ENCODING 10308
SWIDTH 960 0
DWIDTH 24 0
BBX 24 24 0 -2
BITMAP
000000
001800
0FFC0E
00180C
001AEC
1FFFCC
0018CC
0018CC
0FF8CC
0018CC
1006CC
1FFFCC
1806CC
3034CC
0FF8CC
0630CC
0330CC
01E0CC
00E00C
01E00C
07380C
1C1E7C
700C18
000000
ENDCHAR

STARTCHAR cns4_2845
ENCODING 10309
SWIDTH 960 0
DWIDTH 24 0
BBX 24 24 0 -2
BITMAP
000000
038000
03000E
03000C
0331CC
7FF98C
03018C
23318C
3FF98C
33318C
33318C
3FF18C
33318C
33318C
3FF18C
33318C
03018C
03198C
7FFC0C
03000C
03000C
0300FC
030038
000000
ENDCHAR

STARTCHAR cns4_2846
ENCODING 10310
SWIDTH 960 0
DWIDTH 24 0
BBX 24 24 0 -2
BITMAP
000000
01C000
01B00E
01980C
0181CC
7FFD8C
01818C
218D8C
3FFF8C
318D8C
318D8C
318D8C
3FFD8C
318D8C
318D8C
318D8C
3FFD8C
318D8C
318C0C
318C0C
318C0C
31BCFC
319838
000000
ENDCHAR

STARTCHAR cns4_2847
ENCODING 10311
SWIDTH 960 0
DWIDTH 24 0
BBX 24 24 0 -2
BITMAP
000000
038000
03000E
03000C
0301CC
03318C
03F98C
03018C
430D8C
7FFF8C
66CD8C
66CD8C
66CD8C
66CD8C
66CD8C
7FFD8C
66CD8C
66CD8C
66CC0C
66CC0C
66CC0C
603CFC
601838
000000
ENDCHAR

STARTCHAR cns4_2848
ENCODING 10312
SWIDTH 960 0
DWIDTH 24 0
BBX 24 24 0 -2
BITMAP
000000
000000
003C0E
03E00C
7E09CC
130D8C
19998C
19B18C
08018C
00718C
00618C
00698C
7FFD8C
00618C
18618C
0C618C
06618C
06618C
00600C
00600C
00600C
07E0FC
01C038
000000
ENDCHAR

STARTCHAR cns4_2849
ENCODING 10313
SWIDTH 960 0
DWIDTH 24 0
BBX 24 24 0 -2
BITMAP
000000
0380E0
0300C0
0300C0
1330C0
1FF8C0
1830CC
1837FE
1FF0CC
1830CC
1830CC
1830CC
1FF0CC
18018C
1B318C
19B98C
18E18C
18630C
19F30C
1F360C
7C0C18
3019F8
007030
000000
ENDCHAR

STARTCHAR cns4_284A
ENCODING 10314
SWIDTH 960 0
DWIDTH 24 0
BBX 24 24 0 -2
BITMAP
000000
0380E0
0360C0
0330C0
0300C0
0330C0
7FF8CC
0307FE
0300CC
3330CC
1B60CC
0FC0CC
0780CC
03818C
07C18C
0F798C
1B330C
73030C
030618
030C18
031838
3F31F0
0E6060
000000
ENDCHAR

STARTCHAR cns4_284B
ENCODING 10315
SWIDTH 960 0
DWIDTH 24 0
BBX 24 24 0 -2
BITMAP
000000
0030E0
3FF8C0
0030C0
0C60C0
06C0C0
0380CC
419BFE
7FFCCC
6318CC
6318CC
6318CC
7FF8CC
6318CC
6318CC
6318CC
7FF98C
63198C
63198C
631B18
631B18
637EF8
603030
000000
ENDCHAR

STARTCHAR cns4_284C
ENCODING 10316
SWIDTH 960 0
DWIDTH 24 0
BBX 24 24 0 -2
BITMAP
000000
038000
030000
03000C
07FFFE
06600C
066C0C
0CC60C
0D834C
1BFF4C
30CD6C
60CE6C
0187CC
07630C
00FF8C
07830C
03C60C
0E6C0C
003818
007E18
03C7B8
1E03F0
0000E0
000000
ENDCHAR

STARTCHAR cns4_284D
ENCODING 10317
SWIDTH 960 0
DWIDTH 24 0
BBX 24 24 0 -2
BITMAP
000000
1C0000
180700
180600
1FC600
180600
180600
1C0600
0FF600
000618
0E07FC
0C6600
1FF600
330600
030600
033600
3FFE04
030604
078604
06C606
0C670E
1863FC
300000
000000
ENDCHAR

STARTCHAR cns4_284E
ENCODING 10318
SWIDTH 960 0
DWIDTH 24 0
BBX 24 24 0 -2
BITMAP
000000
20000C
3FFFFE
300000
3070E0
3760C0
3660C0
3660C0
3660CC
37FFFE
3660C0
3060C0
3060C0
3FE0C0
3360C0
3360C0
3360C0
3660D8
366FFC
3C6000
30000C
3FFFFE
300000
000000
ENDCHAR

STARTCHAR cns4_284F
ENCODING 10319
SWIDTH 960 0
DWIDTH 24 0
BBX 24 24 0 -2
BITMAP
000000
200018
3FFFFC
300000
31C700
318600
318630
336FF8
336C60
337860
377C60
3776C0
3F66C0
3B6380
336380
336380
3363C0
3366E0
336C7C
331838
30000C
3FFFFE
300000
000000
ENDCHAR

STARTCHAR cns4_2850
ENCODING 10320
SWIDTH 960 0
DWIDTH 24 0
BBX 24 24 0 -2
BITMAP
000000
400018
7FFFFC
600000
601C00
6E1838
6C1830
6FFFF0
6C0030
601C00
601800
6018C0
63FFE0
601800
601980
61FFC0
601800
601800
601860
6FFFF0
60000C
7FFFFE
600000
000000
ENDCHAR

STARTCHAR cns4_2851
ENCODING 10321
SWIDTH 960 0
DWIDTH 24 0
BBX 24 24 0 -2
BITMAP
000000
003800
003000
003060
003FF0
003000
103018
1FFFFC
181818
181818
183818
183C18
186618
18DB98
1B99F8
1E38D8
183C18
186618
18C318
1981F8
1F00D8
1FFFF8
180018
000000
ENDCHAR

STARTCHAR cns4_2852
ENCODING 10322
SWIDTH 960 0
DWIDTH 24 0
BBX 24 24 0 -2
BITMAP
000000
0C0070
0E0060
0C0060
0C0C60
1FFE60
180060
3C1860
6FFC60
0D9860
0CD878
0CD86C
0C1A66
3FFF66
1B1860
199860
18D860
181A60
1FFF60
183060
183060
01F060
006060
000000
ENDCHAR

STARTCHAR cns4_2853
ENCODING 10323
SWIDTH 960 0
DWIDTH 24 0
BBX 24 24 0 -2
BITMAP
000000
070000
06000C
06CFFE
0FE360
0CC360
18C360
199F60
3FEB60
780360
1A3360
1BFB60
1B3360
1B3360
1B3360
1BF360
1B6360
1B0364
1B7664
1BC664
378C66
321876
60703C
000000
ENDCHAR

STARTCHAR cns4_2854
ENCODING 10324
SWIDTH 960 0
DWIDTH 24 0
BBX 24 24 0 -2
BITMAP
000000
08000C
0FFFFE
0C0000
0C0700
0C0600
0C0600
0C0618
0FFFFC
0C0600
0CE670
0CC660
0DC6E0
0DE6F0
0F7F98
1B3F0C
1E1980
181980
1830C0
1830E0
306078
31C03E
670018
000000
ENDCHAR

STARTCHAR cns4_2855
ENCODING 10325
SWIDTH 960 0
DWIDTH 24 0
BBX 24 24 0 -2
BITMAP
000000
08000C
0FFFFE
0C0000
0C8030
0CFFF8
0CC030
0CC030
0CC030
0CFFF0
0CC030
0CC030
0CC030
18FFF0
18C630
180600
18E660
18C630
318618
330618
36060C
6C7E0C
600C00
000000
ENDCHAR

STARTCHAR cns4_2856
ENCODING 10326
SWIDTH 960 0
DWIDTH 24 0
BBX 24 24 0 -2
BITMAP
000000
070000
060030
061FF8
060630
060630
06C630
3FE660
06066C
0607FE
06060C
06360C
7FFF0C
060718
060798
060DF0
0CCCF0
0C6C60
0C6CF0
19F8F8
7F199E
30330C
003E00
000000
ENDCHAR

STARTCHAR cns4_2857
ENCODING 10327
SWIDTH 960 0
DWIDTH 24 0
BBX 24 24 0 -2
BITMAP
000000
070000
06000C
060FFE
06C60C
07E60C
06060C
060618
463318
7FFB18
6DB330
6DB330
6DB1E0
6DB1E0
7FF1C0
6DB0C0
6DB1C0
6DB1E0
6DB360
6DB330
6DB638
6CF61E
606C0C
000000
ENDCHAR

STARTCHAR cns4_2858
ENCODING 10328
SWIDTH 960 0
DWIDTH 24 0
BBX 24 24 0 -2
BITMAP
000000
000380
000300
430300
7F8330
633FF8
631820
631870
630C60
630CC0
630CC0
63018C
63FFFE
630300
7F0300
630300
600300
000300
000300
000300
000300
000300
000300
000000
ENDCHAR

STARTCHAR cns4_2859
ENCODING 10329
SWIDTH 960 0
DWIDTH 24 0
BBX 24 24 0 -2
BITMAP
000000
0000E0
0000C0
0000D8
4680CC
7FFFFE
66C0C0
66C0C0
66C0C0
66C0C0
66C0DC
66C0D8
66C678
66FF78
66C070
66C070
7EC060
66C0F2
6180F2
0181B2
03031A
03060E
061C06
000000
ENDCHAR

STARTCHAR cns4_285A
ENCODING 10330
SWIDTH 960 0
DWIDTH 24 0
BBX 24 24 0 -2
BITMAP
000000
000380
000300
430300
7F8300
630330
6303F8
630300
63030C
63FFFE
630000
63000C
63FFFE
630300
630300
630380
7F03C0
630360
600330
000330
000300
000300
000300
000000
ENDCHAR

STARTCHAR cns4_285B
ENCODING 10331
SWIDTH 960 0
DWIDTH 24 0
BBX 24 24 0 -2
BITMAP
000000
000380
000300
430300
7F8300
630330
6303F8
630300
630300
630300
63030C
63FFFE
630300
630300
631B30
631B18
7F330C
63330C
60630C
00C300
000300
003F00
000600
000000
ENDCHAR

STARTCHAR cns4_285C
ENCODING 10332
SWIDTH 960 0
DWIDTH 24 0
BBX 24 24 0 -2
BITMAP
000000
0006C0
0006C0
0006C0
0006C0
4306C0
7FC6CC
637FFE
6366CC
6366CC
6366CC
6366CC
6366CC
637FFC
6366CC
6366CC
7F66CC
6366CC
6366CC
0066CC
0066CC
007FFC
00600C
000000
ENDCHAR

STARTCHAR cns4_285D
ENCODING 10333
SWIDTH 960 0
DWIDTH 24 0
BBX 24 24 0 -2
BITMAP
000000
003380
003B00
463360
7F3330
666318
666300
66630C
66E3FE
66FF80
67E198
67619C
666198
6661B0
6661B0
7E61E0
6660E0
6661C2
0061E2
006362
006E32
00781E
00600E
000000
ENDCHAR

STARTCHAR cns4_285E
ENCODING 10334
SWIDTH 960 0
DWIDTH 24 0
BBX 24 24 0 -2
BITMAP
000000
0001C0
0E0180
0C0180
0C018C
0C7FFE
0C0C60
0C6C6C
0D6C6C
7FE66C
0C666C
0C66CC
0C63CC
0C63CC
0C618C
0DE3CC
0F66EC
0C6C7C
78783C
20600C
007FFC
00600C
00000C
000000
ENDCHAR

STARTCHAR cns4_285F
ENCODING 10335
SWIDTH 960 0
DWIDTH 24 0
BBX 24 24 0 -2
BITMAP
000000
000030
00CFF8
1FE1B0
0301B0
030DB0
0303B0
0303B0
0301DA
0303DA
03730E
03C60E
3E0C06
183800
001800
001800
001860
0FFFF0
001800
001800
00180C
7FFFFE
000000
000000
ENDCHAR

STARTCHAR cns4_2860
ENCODING 10336
SWIDTH 960 0
DWIDTH 24 0
BBX 24 24 0 -2
BITMAP
000000
000000
000030
1FFFF8
003300
063338
033330
01B360
01B3C0
003380
00330C
7FFFFE
000000
001C00
001800
001860
07FFF0
001800
001800
001800
001800
00180C
7FFFFE
000000
ENDCHAR

STARTCHAR cns4_2861
ENCODING 10337
SWIDTH 960 0
DWIDTH 24 0
BBX 24 24 0 -2
BITMAP
000000
000300
0C0338
0D8630
0CEC30
0C3830
0C3C30
0CE730
0F8030
0C0034
0FFFF4
018306
037386
0661FC
1CC180
71FFC0
01C300
076600
1C3C00
003E00
00E780
0700FE
3C001C
000000
ENDCHAR

STARTCHAR cns4_2862
ENCODING 10338
SWIDTH 960 0
DWIDTH 24 0
BBX 24 24 0 -2
BITMAP
003000
003000
006018
3FFFFC
018380
0300E0
0E0038
38001E
E000CC
07FFE0
000000
0200C0
03FFE0
0300C0
0300C0
03FFC0
0300C0
0300C0
03FFC0
0300C0
000000
00000C
3FFFFE
000000
ENDCHAR

STARTCHAR cns4_2863
ENCODING 10339
SWIDTH 960 0
DWIDTH 24 0
BBX 24 24 0 -2
BITMAP
000000
001C00
003800
007018
3FFFFC
00C300
018180
0306C0
06C670
1CC63E
70C60C
07C600
06C600
06FFE0
06C600
06C600
06C600
06C600
06C610
06F610
07C618
1E0718
0803F0
000000
ENDCHAR

STARTCHAR cns4_2864
ENCODING 10340
SWIDTH 960 0
DWIDTH 24 0
BBX 24 24 0 -2
BITMAP
000000
000700
00E600
00C600
00C600
0EC600
0CD660
0CFFF0
0CC608
0CC608
0CFE0C
0DE71C
3F1BF8
181C00
00180C
7FFFFE
003C00
003600
006300
00C1C0
0180F0
07007E
3C0030
000000
ENDCHAR

STARTCHAR cns4_2865
ENCODING 10341
SWIDTH 960 0
DWIDTH 24 0
BBX 24 24 0 -2
BITMAP
000000
0E030E
0C7F8C
0C366C
0C366C
0C366C
0DB66C
7FF66C
19B66C
19B66C
19FFEC
19B66C
19B66C
33366C
3B366C
2E366C
07366C
07660C
0DE60C
0C660C
18C60C
30C67C
618618
000000
ENDCHAR

STARTCHAR cns4_2866
ENCODING 10342
SWIDTH 960 0
DWIDTH 24 0
BBX 24 24 0 -2
BITMAP
000000
0E0600
0C0700
0C0600
0C0618
0C0FFC
0D8CC0
7FD8C0
19B0C0
19E0C0
1980CC
19FFFE
1980C0
1B0ECE
330CCC
3B0CCC
2E0CCC
070CCC
0D8CCC
0CCCCC
180FFC
300C0C
600C0C
000000
ENDCHAR

STARTCHAR cns4_2867
ENCODING 10343
SWIDTH 960 0
DWIDTH 24 0
BBX 24 24 0 -2
BITMAP
000000
0E1060
0C1FF0
0C1860
0C1860
0C1864
0D9864
7FD866
0DB076
0DF03C
19C380
190300
1B030C
1BFFFE
330700
3F0780
270FC0
079B60
0D9B38
0C731E
19C30C
300F00
000600
000000
ENDCHAR

STARTCHAR cns4_2868
ENCODING 10344
SWIDTH 960 0
DWIDTH 24 0
BBX 24 24 0 -2
BITMAP
000000
0000C0
0C0FE0
060000
000018
38FFFC
1D8C00
030C00
061FF8
0C1830
1C0030
0C0070
0C07E0
0C71C0
00600C
3FFFFE
00C180
018300
03FE00
001F80
0079E0
03C078
3E0038
000000
ENDCHAR

STARTCHAR cns4_2869
ENCODING 10345
SWIDTH 960 0
DWIDTH 24 0
BBX 24 24 0 -2
BITMAP
000000
038000
03000C
0377FE
03C18C
3F398C
03E18C
03018C
3F1B8C
03730C
03C618
3F0DF8
030030
037000
00600C
7FFFFE
00C300
018300
03E600
073F00
003BC0
01E0F8
3F0038
000000
ENDCHAR

STARTCHAR cns4_286A
ENCODING 10346
SWIDTH 960 0
DWIDTH 24 0
BBX 24 24 0 -2
BITMAP
000000
001C00
001800
001860
0FFFF0
001800
001800
0399C0
030180
036198
3FF7FC
030180
030180
033180
00600C
7FFFFE
00C180
018300
03F600
071F00
0039E0
00E078
3F8018
000000
ENDCHAR

STARTCHAR cns4_286B
ENCODING 10347
SWIDTH 960 0
DWIDTH 24 0
BBX 24 24 0 -2
BITMAP
000000
001C00
001840
0318E0
0198C0
11998C
1FFFFE
18000C
300008
3000C0
03FFE0
000000
007000
00600C
3FFFFE
00C180
018300
030700
03FE00
061F80
0079F0
01E070
3F0000
000000
ENDCHAR

STARTCHAR cns4_286C
ENCODING 10348
SWIDTH 960 0
DWIDTH 24 0
BBX 24 24 0 -2
BITMAP
000000
4030E0
7FF8C0
6030C0
6030C0
61B0C0
7FF180
60318C
603FFE
69B198
6FF318
6DB318
6DB318
6DB318
6DB630
6FB7B0
6DBFF0
6C3070
603078
6030D8
60318C
61F30C
606E0C
000000
ENDCHAR

STARTCHAR cns4_286D
ENCODING 10349
SWIDTH 960 0
DWIDTH 24 0
BBX 24 24 0 -2
BITMAP
000000
0E0018
0C107C
0C1FC0
0C1800
0D9800
7FD800
0D9A0C
0D9BFE
0D9B6C
199B6C
199B6C
199B6C
199BFC
3B1B0C
3F3300
373300
07B300
06E304
0CE304
0C6306
18C38E
7181FC
000000
ENDCHAR

STARTCHAR cns4_286E
ENCODING 10350
SWIDTH 960 0
DWIDTH 24 0
BBX 24 24 0 -2
BITMAP
000000
000180
03FFC0
000600
000C18
3FFFFC
180C00
000C00
000C00
00FC00
001800
006018
3FF7FC
00C060
0381C0
030180
03618C
03FFFE
7F0180
330180
030180
1F1F80
060700
000000
ENDCHAR

STARTCHAR cns4_286F
ENCODING 10351
SWIDTH 960 0
DWIDTH 24 0
BBX 24 24 0 -2
BITMAP
000000
00E380
00C300
00C300
0ED310
0CFBF8
0CC300
0CC300
0CCB08
0CF308
0F839C
3E01F8
180300
03FFC0
000300
000E00
000C00
000C0C
7FFFFE
000C00
000C00
00FC00
003800
000000
ENDCHAR

STARTCHAR cns4_2870
ENCODING 10352
SWIDTH 960 0
DWIDTH 24 0
BBX 24 24 0 -2
BITMAP
000000
038000
030018
07FFFC
060018
0F0618
1BFF18
330618
03FE18
030618
03FE30
0003F0
0000E0
000180
07FFC0
000300
000E00
000C0C
7FFFFE
000C00
000C00
01FC00
003800
000000
ENDCHAR

STARTCHAR cns4_2871
ENCODING 10353
SWIDTH 960 0
DWIDTH 24 0
BBX 24 24 0 -2
BITMAP
000000
001C00
001800
10180C
1FFFFE
30E00C
60C318
01FF80
018700
033E00
060C18
1FFFFC
060000
0640C0
067FE0
0660C0
0660C0
066FC0
066390
0C6010
0C6018
187038
303FF0
000000
ENDCHAR

STARTCHAR cns4_2872
ENCODING 10354
SWIDTH 960 0
DWIDTH 24 0
BBX 24 24 0 -2
BITMAP
000000
001C00
001800
20180C
3FFFFE
30000C
340068
67FFF0
060060
060060
07FFE0
060060
060060
07FFE0
000000
0E0000
0C00C0
0FFFE0
0C0000
0C0008
0C0008
0E001C
07FFF8
000000
ENDCHAR

STARTCHAR cns4_2873
ENCODING 10355
SWIDTH 960 0
DWIDTH 24 0
BBX 24 24 0 -2
BITMAP
000000
001C00
001800
10180C
1FFFFE
30000C
301C18
601800
0018C0
001FE0
001800
001818
3FFFFC
001800
039980
0318C0
031860
061860
061830
0C1830
181800
01F800
007000
000000
ENDCHAR

STARTCHAR cns4_2874
ENCODING 10356
SWIDTH 960 0
DWIDTH 24 0
BBX 24 24 0 -2
BITMAP
000000
1C0000
180000
180000
182018
183FFC
19B180
FFF180
1B3198
1B3DB8
1B37B0
1B33E0
1B31C0
1B73C0
1B63C0
1B6360
1B6630
1BC618
33CC1C
331804
333006
63800E
61FFFC
C00000
ENDCHAR

STARTCHAR cns4_2875
ENCODING 10357
SWIDTH 960 0
DWIDTH 24 0
BBX 24 24 0 -2
BITMAP
000000
070000
060000
061030
061FF8
061830
06D830
7FFFF0
0E1830
0E1830
0E1FF0
0E0000
0F1C00
0F1840
0F1FE0
0F1800
0F1810
1B1810
1B1C38
1B0FF4
330004
33800E
61FFFC
000000
ENDCHAR

STARTCHAR cns4_2876
ENCODING 10358
SWIDTH 960 0
DWIDTH 24 0
BBX 24 24 0 -2
BITMAP
000000
08000C
0FFFFE
0C000C
0C000C
0FFFFC
0C0E00
0C0C18
0FFFFC
0C0C00
0DFFE0
0C0C60
0D0C60
0DFFE0
0D8C18
19FFFC
198E18
1B1EF8
301B30
303180
3060E0
61C07C
670030
000000
ENDCHAR

STARTCHAR cns4_2877
ENCODING 10359
SWIDTH 960 0
DWIDTH 24 0
BBX 24 24 0 -2
BITMAP
000000
10000C
1FFFFE
18000C
18000C
1FFFFC
18000C
180060
1BFFF0
180000
190060
19FFF0
198060
198060
19FFE0
198060
198060
198060
31FFE0
318060
30000C
6FFFFE
600000
000000
ENDCHAR

STARTCHAR cns4_2878
ENCODING 10360
SWIDTH 960 0
DWIDTH 24 0
BBX 24 24 0 -2
BITMAP
000000
08000C
0FFFFE
0C000C
0C000C
0C000C
0FFFFC
0DC00C
0D8040
0DFFE0
0D8008
0D8008
0DC01C
0CFFF8
0C0000
188030
18FFF8
18C030
18FFF0
30C030
30C030
60FFF0
60C030
000000
ENDCHAR

STARTCHAR cns4_2879
ENCODING 10361
SWIDTH 960 0
DWIDTH 24 0
BBX 24 24 0 -2
BITMAP
000000
08000C
0FFFFE
0C000C
0C000C
0C000C
0FFFFC
0C0C0C
0C0C00
0D1830
0DFFF8
0D8030
0D8030
0D8030
0DFFF0
198030
198030
198030
19FFF0
318030
318030
61FFF0
618030
000000
ENDCHAR

STARTCHAR cns4_287A
ENCODING 10362
SWIDTH 960 0
DWIDTH 24 0
BBX 24 24 0 -2
BITMAP
000000
08000C
0FFFFE
0C000C
0C000C
0C000C
0FFFFC
0C0C0C
0C0E00
0C1800
0CD8E0
0C7180
0C1B60
0C0E30
0C0FF8
0FFE0C
18060C
1866E0
18C630
31861C
37060C
600600
600600
000000
ENDCHAR

STARTCHAR cns4_287B
ENCODING 10363
SWIDTH 960 0
DWIDTH 24 0
BBX 24 24 0 -2
BITMAP
000000
003018
0E3018
0C3078
0C3078
6DFCD8
6DB798
6DB398
6DB3D8
6DB6F8
6DBC78
6DB018
6DBFF8
6DB6D8
6DB6D8
6D86C0
6D8CC0
7F8CC4
618CC4
0018C4
0018C6
0070E6
01C07C
000000
ENDCHAR

STARTCHAR cns4_287C
ENCODING 10364
SWIDTH 960 0
DWIDTH 24 0
BBX 24 24 0 -2
BITMAP
000000
001060
0E1FF0
0C1860
0C1860
0C1864
6DD864
6D9866
6DB076
6DB03C
6DE380
6D8300
6D830C
6DFFFE
6D8700
6D8780
6D8FC0
6D9B60
7FB338
61E31E
61830C
000300
000300
000000
ENDCHAR

STARTCHAR cns4_287D
ENCODING 10365
SWIDTH 960 0
DWIDTH 24 0
BBX 24 24 0 -2
BITMAP
000000
001C00
0E1838
0C1830
0C1830
0C1830
0FFFF0
0C0030
001C00
001800
00180C
7FFFFE
000000
040060
07FFF0
060060
060060
07FFE0
060060
060060
060060
07FFE0
060000
000000
ENDCHAR

STARTCHAR cns4_287E
ENCODING 10366
SWIDTH 960 0
DWIDTH 24 0
BBX 24 24 0 -2
BITMAP
000000
001C00
0E1838
0C1830
0C1830
0FFFF0
0C0030
007000
006330
1FFFB8
006060
0060C0
00618C
7FFFFE
000700
001C00
007000
07E060
7C7FF0
006004
006004
00700E
003FFC
000000
ENDCHAR

STARTCHAR cns4_2921
ENCODING 10529
SWIDTH 960 0
DWIDTH 24 0
BBX 24 24 0 -2
BITMAP
000000
0E0380
0C0300
0C230C
0C3FFE
4DB000
7FF000
6DB000
6DB800
6D9FFE
6D8000
6D8000
6D9B60
6D9B60
6D9B60
6D9B60
6F9B64
6D1B64
0C1B64
0C1B64
0C3366
0C3376
0C633C
000000
ENDCHAR

STARTCHAR cns4_2922
ENCODING 10530
SWIDTH 960 0
DWIDTH 24 0
BBX 24 24 0 -2
BITMAP
000000
0E0700
0C0600
0C060C
0C3FFE
4D8660
7FCC60
6D8C30
6D9838
6DB0DE
6DEFEC
6DC000
6D8018
6DBFFC
6D8600
6D8630
6F8FF8
6D1830
0C0030
0C0030
0C0070
0C07E0
0C01C0
000000
ENDCHAR

STARTCHAR cns4_2923
ENCODING 10531
SWIDTH 960 0
DWIDTH 24 0
BBX 24 24 0 -2
BITMAP
000000
0E0380
0C0300
0C0330
0C07F8
4D8630
7FCC60
6D9E60
6DB6C0
6D8180
6D83E0
6D8EC0
6DB98C
6DE1FE
6D830C
6D8618
6F9F18
6D73B0
0C01E0
0C01C0
0C0700
0C1C00
0C7000
000000
ENDCHAR

STARTCHAR cns4_2924
ENCODING 10532
SWIDTH 960 0
DWIDTH 24 0
BBX 24 24 0 -2
BITMAP
000000
00000E
0019CC
3FFD8C
03018C
06198C
07FD8C
0C318C
1E618C
33C18C
01818C
07007C
1C1C18
741830
07FFF8
061830
061830
061830
061830
061BF0
061860
001800
001800
000000
ENDCHAR

STARTCHAR cns4_2925
ENCODING 10533
SWIDTH 960 0
DWIDTH 24 0
BBX 24 24 0 -2
BITMAP
000000
00E380
00C300
00C300
0EC310
0CD3F8
0CFB00
0CC304
0CCF04
0CFB8E
0FC1FC
7E1C00
341830
07FFF8
061830
061830
061830
061830
0619F0
061860
001800
001800
001800
000000
ENDCHAR

STARTCHAR cns4_2926
ENCODING 10534
SWIDTH 960 0
DWIDTH 24 0
BBX 24 24 0 -2
BITMAP
000000
0E000E
0C030C
0C7F8C
0C1C6C
4D986C
7FDB6C
6D9FEC
6D9B6C
6DB36C
6DB36C
6DB36C
6DBB6C
6DEF6C
6DC66C
6D866C
6F8C6C
6D0C0C
0C180C
0C180C
0C300C
0CE07C
0C0018
000000
ENDCHAR

STARTCHAR cns4_2927
ENCODING 10535
SWIDTH 960 0
DWIDTH 24 0
BBX 24 24 0 -2
BITMAP
000000
000E00
000C00
100C0C
1FFFFE
180000
1A0018
1BFFFC
1B0018
1B00D8
1B7FF8
1B0018
1B2198
1B3FD8
1B3198
1B3198
1B3198
1B3F98
1B3198
1B0018
330018
3301F8
630030
000000
ENDCHAR

STARTCHAR cns4_2928
ENCODING 10536
SWIDTH 960 0
DWIDTH 24 0
BBX 24 24 0 -2
BITMAP
000000
000E00
000C00
000C00
080C0C
0FFFFE
0C0000
0C0E00
0D0C60
0DFFF0
0D8060
0D8060
0D8060
0DFFE0
0D8060
0D8030
19FFF8
198030
198030
198030
318030
31FFF0
618030
000000
ENDCHAR

STARTCHAR cns4_2929
ENCODING 10537
SWIDTH 960 0
DWIDTH 24 0
BBX 24 24 0 -2
BITMAP
000000
000E00
080C0C
0FFFFE
0C0000
0C1C00
0C18C0
0C3FE0
0C70C0
0CE180
0FB300
0C1FC0
0C0D8C
0C3BFE
0CE60C
0F8C18
0C3C30
18E660
1803C0
180380
300E00
307800
63C000
000000
ENDCHAR

STARTCHAR cns4_292A
ENCODING 10538
SWIDTH 960 0
DWIDTH 24 0
BBX 24 24 0 -2
BITMAP
000000
000E00
000C00
080C0C
0FFFFE
0C0000
0C6060
0C30C0
0C1980
0C1B18
0FFFFC
0C0600
0CE638
0CC630
0CC630
0CC630
18C630
18FFF0
18CC30
180C00
301800
303000
60E000
000000
ENDCHAR

STARTCHAR cns4_292B
ENCODING 10539
SWIDTH 960 0
DWIDTH 24 0
BBX 24 24 0 -2
BITMAP
000000
4018E0
7FFCC0
6018C0
6018D8
6018CC
60D8C0
7FF8CC
601BFE
6018C0
68D8C0
6FF8C0
6CD8C0
6CD8C0
6CD8C0
6CD860
6FD860
6CD862
601862
601832
601836
60F81E
60300E
000000
ENDCHAR

STARTCHAR cns4_292C
ENCODING 10540
SWIDTH 960 0
DWIDTH 24 0
BBX 24 24 0 -2
BITMAP
000000
000000
01900C
7FDFFE
0198C0
0198C0
0198C0
2198C0
3F98CC
319FFE
30180C
30180C
31980C
7FD80C
619FFC
0198CC
0198C0
0198C0
0198C0
0198C0
0398CC
3F1FFE
0E1800
000000
ENDCHAR

STARTCHAR cns4_292D
ENCODING 10541
SWIDTH 960 0
DWIDTH 24 0
BBX 24 24 0 -2
BITMAP
000000
030C00
7F8E00
030C00
030C18
031FFC
031800
233000
3F6070
3311C0
301F00
331B30
7F9B38
631B60
0319C0
031980
031980
031980
0318C0
031BE0
073E78
7EF03E
1C4018
000000
ENDCHAR

STARTCHAR cns4_292E
ENCODING 10542
SWIDTH 960 0
DWIDTH 24 0
BBX 24 24 0 -2
BITMAP
000000
030380
7F8380
030380
030380
0306C0
0306C0
230C60
3F1838
33301E
30600C
330FE0
7F8000
631018
031FFC
031818
031818
031818
031818
031818
071818
7E1FF8
1C1818
000000
ENDCHAR

STARTCHAR cns4_292F
ENCODING 10543
SWIDTH 960 0
DWIDTH 24 0
BBX 24 24 0 -2
BITMAP
000000
031818
7F8C18
030630
030630
03006C
033FFE
230630
3F0630
330630
300630
330634
7FBFFE
630630
030630
030630
030630
030C30
030C30
030C30
071830
7E3030
1C6030
000000
ENDCHAR

STARTCHAR cns4_2930
ENCODING 10544
SWIDTH 960 0
DWIDTH 24 0
BBX 24 24 0 -2
BITMAP
000000
000000
006030
1FF7F8
018180
018180
01E18C
7F3FFE
330180
060180
0C0180
180180
700060
0FFFF0
000060
07FFE0
060060
0C0018
0FFFFC
180018
000018
0007F0
0000E0
000000
ENDCHAR

STARTCHAR cns4_2931
ENCODING 10545
SWIDTH 960 0
DWIDTH 24 0
BBX 24 24 0 -2
BITMAP
000000
030000
030380
060300
060300
0C0330
19DFF8
318300
030300
030300
060318
0E7FFC
1E0000
360380
660300
060318
067FFC
060300
060300
060300
06030C
06FFFE
060000
000000
ENDCHAR

STARTCHAR cns4_2932
ENCODING 10546
SWIDTH 960 0
DWIDTH 24 0
BBX 24 24 0 -2
BITMAP
000000
030000
03200C
063FFE
06300C
0C300C
19B06C
71BFFC
03300C
03300C
06346C
0E37FC
1E366C
36366C
66366C
06366C
0637EC
06366C
06360C
06300C
06300C
06307C
063018
000000
ENDCHAR

STARTCHAR cns4_2933
ENCODING 10547
SWIDTH 960 0
DWIDTH 24 0
BBX 24 24 0 -2
BITMAP
000000
030600
038700
070630
060FF8
0C0C30
199E60
31B660
0363C0
030380
0601C0
0E03F0
1E0E3E
363818
66F030
061FF8
061830
061830
061830
061830
061FF0
061830
061830
000000
ENDCHAR

ENDFONT
